<svg width="70" height="70" viewBox="0 0 70 70" fill="none" xmlns="http://www.w3.org/2000/svg">
<path d="M65.3625 20.4165H49.5833V4.63734L65.3625 20.4165ZM67.0833 29.1665V52.4998C67.0833 54.415 66.7061 56.3113 65.9733 58.0806C65.2404 59.85 64.1662 61.4576 62.812 62.8118C61.4578 64.166 59.8501 65.2402 58.0808 65.9731C56.3115 66.706 54.4151 67.0832 52.5 67.0832H26.25C21.1212 67.0741 16.1382 65.3754 12.0718 62.2499C8.00532 59.1243 5.08197 54.746 3.75385 49.7921C2.42572 44.8382 2.76682 39.5847 4.72437 34.8441C6.68193 30.1035 10.1469 26.14 14.5833 23.5665V17.4998C14.5833 13.6321 16.1198 9.92277 18.8547 7.18786C21.5896 4.45296 25.2989 2.9165 29.1667 2.9165H40.8333C41.6069 2.9165 42.3488 3.22379 42.8957 3.77078C43.4427 4.31776 43.75 5.05962 43.75 5.83317V20.4165C43.75 21.9636 44.3646 23.4473 45.4586 24.5413C46.5525 25.6353 48.0362 26.2498 49.5833 26.2498H64.1667C64.9402 26.2498 65.6821 26.5571 66.2291 27.1041C66.7761 27.6511 67.0833 28.393 67.0833 29.1665ZM26.25 61.2498C29.7112 61.2498 33.0946 60.2235 35.9725 58.3006C38.8503 56.3776 41.0934 53.6445 42.4179 50.4468C43.7424 47.2491 44.089 43.7304 43.4137 40.3358C42.7385 36.9411 41.0718 33.8229 38.6244 31.3755C36.177 28.9281 33.0588 27.2613 29.6641 26.5861C26.2694 25.9109 22.7508 26.2574 19.553 27.5819C16.3553 28.9065 13.6222 31.1495 11.6993 34.0274C9.77636 36.9052 8.75001 40.2887 8.75001 43.7498C8.75001 48.3911 10.5938 52.8423 13.8756 56.1242C17.1575 59.4061 21.6087 61.2498 26.25 61.2498ZM37.0417 39.9873C37.5948 39.442 37.9086 38.6993 37.914 37.9226C37.9195 37.1458 37.6162 36.3988 37.0708 35.8457C36.5255 35.2926 35.7828 34.9788 35.0061 34.9733C34.2293 34.9679 33.4823 35.2712 32.9292 35.8165L24.5292 44.0998L21.6125 41.1832C21.3414 40.9098 21.0188 40.6928 20.6634 40.5447C20.3079 40.3967 19.9267 40.3204 19.5417 40.3204C19.1566 40.3204 18.7754 40.3967 18.42 40.5447C18.0646 40.6928 17.742 40.9098 17.4708 41.1832C16.9276 41.7296 16.6227 42.4689 16.6227 43.2394C16.6227 44.01 16.9276 44.7492 17.4708 45.2957L22.4583 50.1957C23.0063 50.7238 23.739 51.0169 24.5 51.0123C25.261 51.0169 25.9937 50.7238 26.5417 50.1957L37.0417 39.9873Z" fill="#55C1E1"/>
</svg>
