<svg width="70" height="70" viewBox="0 0 70 70" fill="none" xmlns="http://www.w3.org/2000/svg">
<path fill-rule="evenodd" clip-rule="evenodd" d="M31.8903 68.0224H31.0881C29.8903 68.0224 28.9189 67.0517 28.9189 65.8533C28.9189 59.3422 21.0461 56.0814 16.4422 60.6854C15.5952 61.5324 14.2213 61.5324 13.3744 60.6854L8.7042 56.0153C7.85709 55.1683 7.85709 53.7944 8.7042 52.9474C13.3023 48.3493 10.0394 40.4709 3.53623 40.4709C2.33789 40.4707 1.36719 39.4994 1.36719 38.3016V31.6974C1.36719 30.4994 2.33789 29.528 3.53637 29.528C10.0394 29.528 13.3025 21.6496 8.70434 17.0515C7.85723 16.2045 7.85723 14.8306 8.70434 13.9837L13.3745 9.3135C14.2215 8.46639 15.5954 8.46639 16.4423 9.3135C21.0405 13.9118 28.919 10.6488 28.919 4.14553C28.919 2.94705 29.8904 1.97635 31.0882 1.97635H31.8907C31.7391 2.40414 31.6564 2.86406 31.6564 3.34313V21.4366C25.3259 22.7058 20.557 28.2954 20.557 34.9993C20.557 41.7031 25.3259 47.2929 31.6564 48.562V66.6562C31.6563 67.1351 31.739 67.5949 31.8903 68.0224ZM56.6085 15.2554H68.515C68.4493 15.1127 68.3562 14.9816 68.2362 14.8625L55.659 2.36613C55.5395 2.24732 55.4084 2.15572 55.2661 2.09105V13.913C55.2661 14.6524 55.8692 15.2554 56.6085 15.2554ZM35.7578 68.0235C35.0048 68.0235 34.3906 67.4094 34.3906 66.6563V3.34326C34.3906 2.59021 35.0048 1.97607 35.7578 1.97607H52.5319V13.913C52.5319 16.1615 54.3601 17.9898 56.6085 17.9898H68.6328V66.681C68.6328 67.4203 68.0296 68.0235 67.2902 68.0235H35.7578ZM58.7787 34.7281H41.1612C40.4061 34.7281 39.794 35.3402 39.794 36.0953C39.794 36.8504 40.4061 37.4625 41.1612 37.4625H58.7785C59.5336 37.4625 60.1457 36.8504 60.1457 36.0953C60.1459 35.3402 59.5336 34.7281 58.7787 34.7281ZM58.7787 44.6012H41.1612C40.4061 44.6012 39.794 45.2132 39.794 45.9683C39.794 46.7234 40.4061 47.3355 41.1612 47.3355H58.7785C59.5336 47.3355 60.1457 46.7234 60.1457 45.9683C60.1459 45.2134 59.5336 44.6012 58.7787 44.6012Z" fill="#55C1E1"/>
</svg>
