<svg width="70" height="70" viewBox="0 0 70 70" fill="none" xmlns="http://www.w3.org/2000/svg">
<g clip-path="url(#clip0_11957_154)">
<path d="M61.2889 48.7028L69.9999 39.9923L61.2889 31.2814L62.6924 29.8779C65.1208 27.4495 65.1208 23.4985 62.6929 21.0702C61.5164 19.8942 59.9522 19.2464 58.2886 19.2464C56.6255 19.2464 55.0613 19.8942 53.8853 21.0702L52.4818 22.4737L43.7708 13.7627L41.2004 16.3336V20.3967C45.7473 21.4803 49.1391 25.5771 49.1391 30.4509C49.1391 35.3252 45.7473 39.422 41.2004 40.505V53.104H33.6595L32.1561 54.6073L43.7708 66.2215L52.4818 57.5105L53.6914 58.7206C56.1198 61.149 60.0707 61.149 62.4991 58.7206C64.9274 56.2923 64.9274 52.3413 62.4991 49.913L61.2889 48.7028Z" fill="#55C1E1"/>
<path d="M37.094 48.9981V36.679H38.8046C42.2391 36.679 45.0327 33.8854 45.0327 30.4508C45.0327 27.0169 42.2391 24.2232 38.8046 24.2232H37.094V11.9041H24.7749V9.91957C24.7749 6.48506 21.9812 3.69141 18.5467 3.69141C15.1127 3.69141 12.3191 6.48506 12.3191 9.91957V11.9041H0V24.2232H1.71112C4.72426 24.2232 7.24394 26.3739 7.81645 29.2209C8.06479 29.568 8.21272 29.9921 8.21272 30.4508C8.21272 30.9096 8.06479 31.3336 7.81645 31.6813C7.24394 34.5278 4.72426 36.679 1.71112 36.679H0V48.9981H12.3191V47.013C12.3191 43.579 15.1127 40.7854 18.5467 40.7854C21.9812 40.7854 24.7749 43.579 24.7749 47.013V48.9981H37.094Z" fill="#55C1E1"/>
</g>
<defs>
<clipPath id="clip0_11957_154">
<rect width="70" height="70" fill="white"/>
</clipPath>
</defs>
</svg>
