<svg width="70" height="70" viewBox="0 0 70 70" fill="none" xmlns="http://www.w3.org/2000/svg">
<path d="M27.9688 15.7812C26.9996 15.7812 26.2109 16.5699 26.2109 17.5391C26.2109 18.5082 26.9996 19.2969 27.9688 19.2969C28.9379 19.2969 29.7266 18.5082 29.7266 17.5391C29.7266 16.5699 28.9379 15.7812 27.9688 15.7812Z" fill="#55C1E1"/>
<path d="M65 5H5V8.51562H8.63281V50.9375H33.2422V54.7555C31.1961 55.4797 29.7266 57.4355 29.7266 59.7266C29.7266 62.634 32.0926 65 35 65C37.9074 65 40.2734 62.634 40.2734 59.7266C40.2734 57.4355 38.8039 55.4797 36.7578 54.7555V50.9375H61.3672V8.51562H65V5ZM29.2121 33.8738L26.7254 36.3605L24.4531 34.0883L22.1809 36.3605L19.6941 33.8738L21.9664 31.6016L19.6941 29.3293L22.1809 26.8426L24.4531 29.1148L26.7254 26.8426L29.2121 29.3293L26.9398 31.6016L29.2121 33.8738ZM27.9688 22.8125C25.0613 22.8125 22.6953 20.4465 22.6953 17.5391C22.6953 14.6316 25.0613 12.2656 27.9688 12.2656C30.8762 12.2656 33.2422 14.6316 33.2422 17.5391C33.2422 20.4465 30.8762 22.8125 27.9688 22.8125ZM53.8215 40.9051L51.3348 43.3918L49.0625 41.1195L46.7902 43.3918L44.3035 40.9051L46.5758 38.6328L44.3035 36.3605L46.7902 33.8738L49.0625 36.1461L51.3348 33.8738L53.8215 36.3605L51.5492 38.6328L53.8215 40.9051ZM46.7902 29.3293L44.3035 26.8426L48.3348 22.8125H45.5469C40.7012 22.8125 36.7578 26.7559 36.7578 31.6016C36.7578 38.3867 31.2383 43.9062 24.4531 43.9062H15.6641V40.3906H24.4531C29.2988 40.3906 33.2422 36.4473 33.2422 31.6016C33.2422 24.8164 38.7617 19.2969 45.5469 19.2969H48.3348L44.3035 15.2668L46.7902 12.7801L55.0637 21.0547L46.7902 29.3293Z" fill="#55C1E1"/>
</svg>
