<svg width="70" height="70" viewBox="0 0 70 70" fill="none" xmlns="http://www.w3.org/2000/svg">
<path d="M53.2875 22.6209C49.7897 22.6209 46.9437 19.7728 46.9437 16.2772V4.375H22.0938C17.2594 4.375 13.3438 8.29062 13.3438 13.125V21.0831C14.7437 20.6697 16.2094 20.4531 17.71 20.4531C21.7984 20.4531 25.6375 22.0412 28.5206 24.9222C34.4816 30.8875 34.4837 40.5869 28.525 46.55C25.6375 49.4353 21.7984 51.0234 17.71 51.0234C16.2203 51.0234 14.7525 50.8047 13.3438 50.3803V56.875C13.3438 61.7094 17.2594 65.625 22.0938 65.625H56.4156C61.25 65.625 65.1656 61.7094 65.1656 56.875V22.6209H53.2875ZM40.355 46.0031H34.755C33.6678 46.0031 32.7863 45.1216 32.7863 44.0344C32.7863 42.9472 33.6678 42.0656 34.755 42.0656H40.355C41.4422 42.0656 42.3237 42.9472 42.3237 44.0344C42.3237 45.1216 41.4422 46.0031 40.355 46.0031ZM51.9487 38.5897H36.8769C35.7897 38.5897 34.9081 37.7081 34.9081 36.6209C34.9081 35.5337 35.7897 34.6522 36.8769 34.6522H51.9487C53.0359 34.6522 53.9175 35.5337 53.9175 36.6209C53.9175 37.7081 53.0359 38.5897 51.9487 38.5897Z" fill="#55C1E1"/>
<path d="M17.71 47.0839C20.6172 47.0839 23.5244 45.9771 25.7381 43.7633C30.1634 39.3358 30.1634 32.1346 25.7381 27.7049C21.3128 23.2839 14.1094 23.2839 9.68187 27.7049C5.73343 31.6555 5.33312 37.8024 8.43062 42.2299L3.4475 47.213C2.6775 47.983 2.6775 49.2299 3.4475 49.9977C3.8325 50.3827 4.33562 50.5752 4.83874 50.5752C5.34187 50.5752 5.845 50.3827 6.23 49.9977L11.2153 45.0124C13.16 46.3796 15.4284 47.0839 17.71 47.0839ZM12.4644 30.4917C15.3562 27.5999 20.0616 27.5999 22.9512 30.4917C25.8431 33.3814 25.8431 38.0889 22.9512 40.9786C20.0594 43.8705 15.3541 43.8705 12.4622 40.9786C9.57468 38.0889 9.57468 33.3836 12.4644 30.4917Z" fill="#55C1E1"/>
<path d="M50.8834 16.275C50.8834 17.6006 51.9619 18.6812 53.2897 18.6812H65.1678V18.025C65.1678 16.275 64.4678 14.6125 63.2428 13.3875L56.1553 6.3C54.9281 5.075 53.2656 4.375 51.5156 4.375H50.8834V16.275Z" fill="#55C1E1"/>
</svg>
