<svg width="70" height="70" viewBox="0 0 70 70" fill="none" xmlns="http://www.w3.org/2000/svg">
<path fill-rule="evenodd" clip-rule="evenodd" d="M15.3333 11.6667C15.3333 7.98477 18.318 5 21.9999 5H48.6666C52.3486 5 55.3333 7.98477 55.3333 11.6667V15H15.3333V11.6667ZM8.66661 26.6667C8.66661 22.9848 11.6514 20 15.3333 20H55.3333C59.0153 20 61.9999 22.9848 61.9999 26.6667V30H8.66661V26.6667ZM1.99994 41.6667C1.99994 37.9847 4.98471 35 8.66661 35H61.9999C65.6819 35 68.6666 37.9847 68.6666 41.6667V51.6667C68.6666 59.0303 62.6969 65 55.3333 65H15.3333C7.96947 65 1.99994 59.0303 1.99994 51.6667V41.6667ZM26.1666 45C26.1666 43.6193 27.2859 42.5 28.6666 42.5H41.9999C43.3806 42.5 44.4999 43.6193 44.4999 45C44.4999 46.3807 43.3806 47.5 41.9999 47.5H28.6666C27.2859 47.5 26.1666 46.3807 26.1666 45Z" fill="#55C1E1"/>
</svg>
