<svg width="70" height="70" viewBox="0 0 70 70" fill="none" xmlns="http://www.w3.org/2000/svg">
<path d="M63.7724 5.00524C52.0594 4.79523 38.7014 10.918 30.2461 20.4158C22.1658 20.5683 14.298 23.8809 8.50528 29.6737C8.16776 30.0062 8.04776 30.5037 8.19526 30.9537C8.34527 31.4062 8.73529 31.7337 9.2053 31.8012L18.8407 33.1813L17.6506 34.5138C17.2081 35.0089 17.2306 35.7614 17.7006 36.2314L33.7687 52.2995C34.0112 52.542 34.3313 52.6645 34.6538 52.6645C34.9513 52.6645 35.2488 52.5595 35.4863 52.347L36.8188 51.157L38.1989 60.7923C38.2664 61.2624 38.6364 61.6074 39.0839 61.7574C39.1989 61.7949 39.3189 61.8124 39.4414 61.8124C39.7965 61.8124 40.159 61.6574 40.409 61.4099C46.1217 55.6971 49.4343 47.8294 49.5868 39.7491C59.0947 31.2762 65.2674 17.9232 64.9949 6.22528C64.9774 5.56026 64.4399 5.02274 63.7724 5.00524ZM52.2519 26.5861C51.0344 27.8036 49.4343 28.4136 47.8318 28.4136C46.2292 28.4136 44.6291 27.8036 43.4116 26.5861C40.9765 24.1485 40.9765 20.1833 43.4116 17.7457C45.8492 15.3081 49.8143 15.3081 52.2519 17.7457C54.6895 20.1833 54.6895 24.151 52.2519 26.5861Z" fill="#55C1E1"/>
<path d="M11.8104 47.2618C9.1353 49.9369 5.46266 62.0224 5.05265 63.3899C4.92014 63.83 5.04265 64.3075 5.36516 64.6325C5.60517 64.8725 5.92268 65 6.25019 65C6.3702 65 6.4902 64.9825 6.6102 64.9475C7.97776 64.5375 20.0632 60.8648 22.7383 58.1897C25.7509 55.1771 25.7509 50.2744 22.7383 47.2618C19.7232 44.2492 14.823 44.2517 11.8104 47.2618Z" fill="#55C1E1"/>
</svg>
