<svg width="70" height="70" viewBox="0 0 70 70" fill="none" xmlns="http://www.w3.org/2000/svg">
<g clip-path="url(#clip0_11957_217)">
<path d="M63.0557 43.8895C61.6362 43.0708 59.9817 42.8523 58.3875 43.2769C57.4908 43.5162 56.7143 43.9845 56.0286 44.5688L52.0076 42.2478C53.002 39.9823 53.573 37.4915 53.573 34.8633C53.573 32.2352 53.002 29.7444 52.0076 27.4789L56.0286 25.1579C56.7143 25.7422 57.4913 26.2105 58.3875 26.4498C58.9183 26.5924 59.4551 26.6623 59.9897 26.6623C61.0551 26.6623 62.1088 26.3841 63.0557 25.8372C65.992 24.1411 67.0035 20.3717 65.3089 17.4317C63.6085 14.496 59.8433 13.4823 56.9055 15.179H56.9012C54.5909 16.5152 53.4987 19.1332 53.9543 21.6192L49.9189 23.9483C46.9426 19.9241 42.3903 17.2015 37.1667 16.614V11.7904C39.5486 10.9407 41.2682 8.68593 41.2682 6.01564C41.2682 2.6233 38.5088 -0.136719 35.1159 -0.136719C31.7235 -0.136719 28.9635 2.6233 28.9635 6.01564C28.9635 8.68593 30.6832 10.9407 33.0651 11.7904V16.6135C27.8415 17.201 23.2892 19.9241 20.3128 23.9477L16.278 21.6187C16.733 19.1327 15.6409 16.5147 13.3306 15.1785H13.3263C10.3906 13.4844 6.62118 14.4954 4.92287 17.4338C3.22884 20.3717 4.23981 24.1405 7.17607 25.8372C8.12349 26.3836 9.17451 26.6623 10.2421 26.6623C10.7746 26.6623 11.3134 26.5918 11.8443 26.4498C12.741 26.2105 13.5175 25.7422 14.2032 25.1579L18.2241 27.4789C17.2297 29.7444 16.6588 32.2352 16.6588 34.8633C16.6588 37.4915 17.2297 39.9823 18.2241 42.2478L14.2032 44.5688C13.5175 43.9845 12.7404 43.5162 11.8443 43.2769C10.2565 42.8523 8.59826 43.0686 7.17607 43.8895C4.23981 45.5862 3.22884 49.355 4.92287 52.295C6.06255 54.2657 8.1331 55.3691 10.2624 55.3691C11.3054 55.3691 12.3628 55.1047 13.3306 54.5482C15.6409 53.2115 16.733 50.5935 16.2775 48.1075L20.3128 45.7784C23.2892 49.8026 27.8415 52.5257 33.0651 53.1132V57.9363C30.6832 58.786 28.9635 61.0408 28.9635 63.7111C28.9635 67.1034 31.7235 69.8634 35.1159 69.8634C38.5088 69.8634 41.2682 67.1034 41.2682 63.7111C41.2682 61.0408 39.5486 58.786 37.1667 57.9363V53.1132C42.3903 52.5257 46.9431 49.8026 49.9189 45.7784L53.9543 48.1075C53.4987 50.594 54.5919 53.2115 56.9055 54.5482C57.8711 55.1047 58.9264 55.3691 59.9678 55.3691C62.0965 55.3691 64.1692 54.2657 65.3089 52.2929C67.0035 49.355 65.992 45.5862 63.0557 43.8895ZM28.9635 24.6094H41.2682V28.711H28.9635V24.6094ZM41.2682 45.1173H28.9635V41.0157H41.2682V45.1173ZM43.319 36.9141H26.9127V32.8126H43.319V36.9141Z" fill="#55C1E1"/>
</g>
<defs>
<clipPath id="clip0_11957_217">
<rect width="70" height="70" fill="white"/>
</clipPath>
</defs>
</svg>
