<svg width="1170" height="372" viewBox="0 0 1170 372" fill="none" xmlns="http://www.w3.org/2000/svg">
<g clip-path="url(#clip0_9487_2492)">
<path d="M267.625 0H182.875V400H267.625V0Z" fill="#F7FAFD"/>
<path d="M29 400H113.75L182.875 0H98.125L29 400Z" fill="#F7FAFD"/>
<path d="M507.625 400H422.875V0H507.625V400Z" fill="#F7FAFD"/>
<path d="M269 0H353.75L422.875 400H338.125L269 0Z" fill="#F7FAFD"/>
<path d="M746.625 0H661.875V400H746.625V0Z" fill="#F7FAFD"/>
<path d="M508 400H592.75L661.875 0H577.125L508 400Z" fill="#F7FAFD"/>
<path d="M986.625 400H901.875V0H986.625V400Z" fill="#F7FAFD"/>
<path d="M748 0H832.75L901.875 400H817.125L748 0Z" fill="#F7FAFD"/>
<path d="M987 400H1071.75L1140.88 0H1056.12L987 400Z" fill="#F7FAFD"/>
</g>
<defs>
<clipPath id="clip0_9487_2492">
<rect width="1170" height="372" fill="white"/>
</clipPath>
</defs>
</svg>
