<svg width="730" height="760" viewBox="0 0 730 760" fill="none" xmlns="http://www.w3.org/2000/svg">
<path d="M315.299 2.90083C315.244 1.52121 314.081 0.447198 312.702 0.501968C311.322 0.556737 310.248 1.71954 310.303 3.09917L315.299 2.90083ZM110.238 265.903L108.962 263.753L110.238 265.903ZM32.1592 514.036L34.1997 512.592H34.1997L32.1592 514.036ZM397.509 524.374L396.581 522.053L397.509 524.374ZM705.507 758.346C706.251 759.509 707.796 759.85 708.96 759.107L727.921 746.993C729.084 746.249 729.425 744.704 728.681 743.54C727.938 742.377 726.392 742.036 725.229 742.779L708.375 753.547L697.607 736.693C696.863 735.53 695.318 735.189 694.154 735.933C692.991 736.676 692.65 738.222 693.393 739.385L705.507 758.346ZM310.303 3.09917C313.217 76.5182 285.678 128.091 246.085 168.098C206.366 208.232 154.601 236.665 108.962 263.753L111.514 268.053C156.896 241.118 209.358 212.318 249.639 171.615C290.045 130.786 318.277 77.9186 315.299 2.90083L310.303 3.09917ZM108.962 263.753C62.5454 291.303 26.3702 330.852 10.0173 375.259C-6.37084 419.762 -2.78265 469 30.1187 515.481L34.1997 512.592C2.28095 467.499 -1.12849 419.995 14.7093 376.987C30.5823 333.883 65.8565 295.152 111.514 268.053L108.962 263.753ZM30.1187 515.481C70.4629 572.476 132.854 587.137 199.735 581.688C266.564 576.243 338.392 550.702 398.437 526.696L396.581 522.053C336.562 546.049 265.344 571.326 199.329 576.704C133.367 582.078 73.115 567.569 34.1997 512.592L30.1187 515.481ZM398.437 526.696C468.399 498.725 558.771 495.151 624.698 529.013C657.596 545.911 684.4 572.118 699.657 609.31C714.925 646.528 718.721 694.971 705.173 756.462L710.055 757.538C723.761 695.332 720.034 645.806 704.283 607.412C688.522 568.991 660.811 541.941 626.982 524.566C559.455 489.881 467.52 493.691 396.581 522.053L398.437 526.696Z" fill="#55C1E1"/>
</svg>
