<svg width="32" height="32" viewBox="0 0 32 32" fill="none" xmlns="http://www.w3.org/2000/svg">
<path d="M28.8835 26.6955H28.8955V26.721L28.8011 27.4358C26.6634 29.0064 22.1228 30.8257 16.867 30.9902C16.7987 30.9902 16.7324 30.9902 16.6661 30.9941C16.4913 30.998 16.3225 31 16.1558 31H16.0874C15.8805 31 15.6836 30.9961 15.4887 30.9902C15.4425 30.9902 15.3943 30.9882 15.3501 30.9863C15.2738 30.9843 15.2014 30.9804 15.1271 30.9765C14.9945 30.9706 14.8619 30.9628 14.7333 30.953H14.7313C14.5887 30.9432 14.452 30.9295 14.3154 30.9158H14.3054C14.2089 30.906 14.1125 30.8942 14.0181 30.8825C13.9859 30.8786 13.9538 30.8727 13.9196 30.8688C13.8453 30.859 13.7689 30.8492 13.6946 30.8375C13.5861 30.8198 13.4756 30.8022 13.3691 30.7826C13.1903 30.7493 13.0175 30.7121 12.8447 30.673C12.674 30.6338 12.5072 30.5887 12.3445 30.5417C12.3445 30.5417 12.3425 30.5398 12.3405 30.5398C12.2581 30.5163 12.1777 30.4908 12.0953 30.4654C11.2817 30.2069 10.5222 29.8504 9.72862 29.3902C9.5699 29.2962 9.41118 29.2003 9.24844 29.1004C9.00534 28.9496 8.75621 28.789 8.50306 28.6186C8.2479 28.4483 7.98471 28.2701 7.71348 28.0801C4.31607 25.7281 3.14074 22.0895 3.00613 18.0279C2.86148 13.5452 5.29049 9.47575 8.7763 6.6851C11.9145 4.18232 14.9081 3.53607 19.5853 3.39115C20.2704 3.36961 21.0058 3.40094 21.7793 3.4734C21.932 3.48711 22.0867 3.50277 22.2414 3.5204C22.3961 3.53607 22.5548 3.55369 22.7115 3.57523C22.8702 3.59286 23.0289 3.6144 23.1897 3.6379C23.5794 3.68882 23.9772 3.74953 24.379 3.81611C24.582 3.84744 24.7869 3.88074 24.9918 3.91794C25.1003 3.93557 25.2108 3.95515 25.3213 3.97474C25.5745 4.01978 25.8316 4.06482 26.0908 4.11182C26.1551 4.12357 26.2194 4.13532 26.2837 4.14707C26.5931 4.20386 26.9065 4.26261 27.2199 4.32137C27.3927 4.35466 27.5655 4.38599 27.7403 4.41928C27.8086 4.14316 27.8166 2.96619 28.2044 1H29C28.5881 4.54658 28.8875 8.2929 29 12.5034L28.3711 12.2351C28.3189 11.4106 28.2084 10.3727 28.0417 9.1252C27.9573 8.87845 27.9854 7.83465 27.5414 7.39794C26.6031 6.42268 24.5137 5.70984 22.834 5.13604C22.6813 5.08316 22.5226 5.03421 22.3579 4.98916C22.3137 4.97741 22.2675 4.96371 22.2213 4.95196C22.0605 4.91083 21.8938 4.87166 21.727 4.83445C21.6306 4.81291 21.5321 4.79333 21.4337 4.7757C21.3714 4.76395 21.3091 4.7522 21.2448 4.74045C21.1102 4.71499 20.9736 4.69345 20.837 4.67387C20.6722 4.64841 20.5075 4.62687 20.3427 4.60924C19.5994 4.51916 18.86 4.48195 18.2071 4.48195C18.0423 4.48195 17.8816 4.48391 17.7289 4.48978C14.5324 4.5877 10.9783 5.81951 8.9089 7.91298C6.83751 10.0084 5.68829 13.3552 5.79277 16.5121C5.91733 20.3191 7.56279 23.1881 10.4017 25.7085C10.5704 25.8574 10.7372 26.0023 10.906 26.1394C11.0727 26.2784 11.2415 26.4116 11.4082 26.5408C11.6935 26.7582 11.9808 26.9619 12.2681 27.1499C12.6237 27.3829 12.9834 27.5944 13.345 27.7844C13.4676 27.8471 13.5881 27.9078 13.7107 27.9665C13.9719 28.0918 14.2371 28.2074 14.5063 28.3092H14.5083C14.6871 28.3797 14.8659 28.4444 15.0487 28.5031C15.2758 28.5795 15.5088 28.6461 15.7419 28.7087C15.9769 28.7694 16.216 28.8243 16.4571 28.8713C16.646 28.9085 16.8368 28.9398 17.0297 28.9692C17.313 29.0103 17.6003 29.0436 17.8956 29.0671C18.5165 29.12 19.1674 29.1356 19.8505 29.1141C23.0912 29.0142 26.0346 28.0116 28.347 26.7367C28.3631 26.7288 28.3792 26.721 28.3953 26.7112H28.4234L28.6765 26.7014C28.7529 26.6995 28.8212 26.6975 28.8835 26.6955Z" fill="#9A1D19"/>
</svg>
