<svg width="175" height="50" viewBox="0 0 175 50" fill="none" xmlns="http://www.w3.org/2000/svg">
<g clip-path="url(#clip0_9430_17)">
<path d="M99.8615 41.26L99.9012 41.637L99.8296 42.014L99.7289 42.3512L99.4451 43.0123L99.1694 43.2671L98.9864 43.3893L98.7318 43.522L98.4375 43.6441L98.1325 43.7052H97.4617L97.1859 43.6441L96.9817 43.5831L96.8199 43.368L96.7271 43.1636L96.7059 42.9698L96.7271 42.8689L96.8199 42.7255H96.9817L97.0825 42.8078V43.0123L97.1222 43.2884L97.459 43.4716H97.7746L97.9787 43.4317L98.3765 43.2884L98.5913 43.084L98.8962 42.6857L99.0288 42.2264L99.111 41.7671V41.5122L98.9572 41.2361L98.875 40.9706L98.8538 40.6759L98.7318 40.4715L98.6099 40.2379L98.4773 40.0547L98.2731 39.9007L98.0583 39.8396L97.7719 39.7573L97.4776 39.7786L97.101 40.0733L96.8783 40.2963L96.7669 40.5512L96.6847 40.7954L96.6449 41.1326L96.6847 41.3158L96.5017 41.4883L96.3479 41.6105L96.2047 41.7645L96.1437 41.9476V42.2423L96.104 42.5291V42.7627L96.0642 43.007L96.0854 43.2618L96.0244 43.445L95.9422 43.6787L95.8308 44.3928L95.7301 44.8521L95.6903 45.1362L95.6081 45.5132L95.5683 45.9513L95.396 46.3495L95.3747 46.6442L95.2528 46.9814L95.152 47.2867L95.0698 47.6849L94.9796 48.0407L94.9399 48.3566L94.9186 48.6832L94.9399 49.0814L94.9611 49.315L95.0433 49.5195L95.0035 49.7133L94.7993 49.8965L94.6986 49.9973L94.505 49.7743L94.444 49.4796L94.4228 49.2141V48.8159L94.444 48.5212L94.4838 48.2265L94.4626 47.9L94.5235 47.807L94.6243 47.5416L94.7357 47.1858L94.8179 46.9814L94.9001 46.6654L94.9823 46.3893L95.0937 46.1451L94.9611 45.7893L94.9399 45.3725V45.0566L94.9611 44.8335L94.9001 44.4778L94.9399 43.8459L95.0937 43.5804L95.0009 43.1822L95.0724 42.7441V42.3671L95.1122 42.0512L95.0724 41.6954L95.0937 41.4512L95.0009 41.1963L94.8577 41.0954L94.9186 40.8618L95.0406 40.6175L95.0724 40.3228L95.0009 40.0574V39.8237L94.9186 39.6193L94.6031 39.1308L94.4811 38.5308L94.4599 38.3476V38.1538L94.6031 37.9493L94.8179 37.7157H95.1546L95.7964 37.8883L96.0907 37.9706L96.2525 38.3263L96.3135 38.6715L96.4063 38.8255L96.69 38.8042L96.9843 38.6715L97.7374 38.5706L98.0424 38.5918L98.3977 38.6927L98.5913 38.8042L98.8353 38.9264L99.111 39.16L99.4664 39.7414L99.5486 40.0574L99.6705 40.4025L99.7527 40.6972L99.8137 40.9733L99.8641 41.26H99.8615ZM94.4785 46.6707L94.3777 46.5884L94.2159 46.7106L94.3167 46.8115L94.4599 46.8327L94.4811 46.6707H94.4785ZM93.7466 41.953L93.8394 42.176L94.0011 42.1361L94.0621 41.9742L93.9189 41.8733L93.7466 41.9556V41.953ZM107.087 40.2007L107.188 40.5565V40.8618L107.005 41.1379L106.711 41.2998L106.356 41.4538L105.918 41.5972L105.441 41.637L105.003 41.7379L104.698 41.8919L104.343 42.014L104.049 42.0963L103.571 42.1176L103.195 42.0777L102.94 42.099L102.717 42.1813L102.617 42.4149L102.656 42.853L102.778 43.0866L103.012 43.3733L103.449 43.8512L103.672 44.0663L104.11 44.2893L104.343 44.4008L104.627 44.5229H104.963L105.279 44.4406L105.544 44.4008L105.838 44.2893L106.133 44.2282H106.316L106.337 44.3105L106.236 44.422L106.053 44.5442L105.738 44.7061L105.401 44.8787L105.085 45.0008L104.78 45.0831L104.322 45.0619L103.863 44.961L103.486 44.7672L103.049 44.4831L102.651 44.1459L102.375 43.9627L102.171 43.7689L101.999 43.5247L101.877 43.4317L101.622 42.8105L101.399 42.2715L101.256 41.8335L101.206 41.4963L101.235 41.1193L101.317 40.7211L101.399 40.3839L101.5 40.1609L101.601 39.906L101.694 39.7839L101.877 39.6219L102.02 39.6007L102.275 39.2449L102.569 38.9901L102.874 38.8281L103.25 38.7671H103.728L104.125 38.7458L104.664 38.8069L105.101 38.929L106.313 39.529L106.629 39.7228L106.923 39.9883L107.085 40.2034L107.087 40.2007ZM105.255 40.2671L105.083 40.0812L104.818 39.9485L104.523 39.8237L104.186 39.7812H103.86L103.566 39.8635L103.272 39.9883L103.006 40.1848L102.853 40.2671L102.691 40.4529L102.752 40.5857L102.895 40.5644L103.128 40.5857H103.526L103.863 40.668H104.208L104.584 40.6467L104.921 40.5644L105.215 40.4821L105.255 40.2644V40.2671ZM105.915 43.9601L106.027 44.061L106.149 43.9601L106.128 43.8273H105.974L105.913 43.9601H105.915ZM107.687 38.6927L107.848 38.8255L108.002 38.7432V38.5706L107.809 38.5308L107.687 38.6927ZM112.521 42.8901L112.5 42.5954L112.335 42.391L112.12 42.2078L111.937 42.0963L111.744 42.014L111.601 41.8308L111.436 41.7406L111.243 41.7007L111.06 41.4963L110.845 41.3237L110.662 41.1618L110.468 41.0184L110.203 40.9574L110.01 40.7848L109.888 40.5618L109.97 40.2671L110.163 40.0627L110.368 39.9087L110.665 39.7653L110.98 39.7042L111.267 39.7255L111.603 39.7653L112.022 39.7255L112.277 39.6246L112.42 39.4706L112.563 39.2476V38.9529L112.502 38.8095L112.341 38.5759L112.187 38.475L111.943 38.2812L111.728 38.1591L111.444 38.0768H111.15L110.795 38.1591L110.397 38.2812L110.092 38.3317L109.816 38.3529L109.583 38.475L109.36 38.5361L109.299 38.7511H109.105L108.962 38.9343L108.922 39.0564L108.75 39.2901L108.588 39.5343L108.466 39.829L108.445 40.0839L108.363 40.368L108.384 40.6839L108.485 40.96L108.628 41.1644L108.771 41.4193L109.005 41.5627L109.259 41.706L109.442 41.7273L109.718 41.799L109.901 41.8999L110.195 42.022L110.46 42.1839L110.837 42.3777L110.97 42.4999L111.314 42.6724L111.609 42.7733L111.823 43.0388L111.924 43.2937V43.6309L111.903 43.9149L111.749 44.0689L111.545 44.2309L111.269 44.4247L111.065 44.5468L110.789 44.6291L110.452 44.7114L110.187 44.5893L109.771 44.5495L109.516 44.4486L109.233 44.3371L108.957 44.2362L108.814 44.0132V43.7185L108.835 43.4636L108.917 43.2406L108.835 43.068L108.663 43.0972L108.519 43.3017L108.437 43.4848L108.326 43.7795V44.0742L108.437 44.2972L108.559 44.5309L108.763 44.6132L108.957 44.7751L109.294 44.9079L109.691 45.0088L109.975 45.03L110.19 45.192H110.832L111.147 45.1707L111.37 45.0698L111.625 44.9265L111.858 44.8442L112.123 44.6105L112.338 44.4061L112.481 44.13L112.582 43.8141L112.622 43.53L112.582 43.2353L112.521 42.8981V42.8901ZM118.84 38.5918L118.546 38.5095L118.148 38.4883L117.925 38.4485H117.151L116.875 38.4883L116.591 38.4272L116.419 38.3051L116.379 38.1113L116.48 37.9069L116.512 37.652L116.594 37.429L116.615 37.1343L116.575 37.0122L116.422 36.7573L116.361 36.5953L116.199 36.4015L116.117 36.2582L115.883 36.1042L115.66 36.0033L115.406 35.9821L115.09 36.1042L114.886 36.3192L114.592 36.4626L114.47 36.7175V36.9405L114.552 37.1954L114.592 37.4502L114.613 37.7343L114.592 38.1724L114.552 38.5095L114.592 38.8042L114.552 38.9874L114.236 39.0087L113.971 39.0485L113.696 39.1095L113.473 39.0883L113.258 39.1998L113.136 39.3219L113.096 39.5051V39.6166L113.178 39.7175L113.322 39.7388L113.515 39.6989L113.719 39.5449L114.014 39.4441L114.279 39.3618L114.555 39.3219V40.6361L114.472 41.0131L114.451 41.3503L114.472 41.7167L114.512 42.176L114.613 42.5742L114.552 42.8689L114.592 43.1848V43.6017L114.552 43.9999L114.634 44.2654L114.716 44.6424L114.738 45.0194L114.891 45.3566L115.207 45.6937L115.512 45.7946L115.806 45.9778L116.122 46.0787L116.427 46.1291H116.904L117.259 45.9964L117.371 45.8344H116.923L116.7 45.8557L116.323 45.7123L116.119 45.5583L115.987 45.2743L115.904 45.1017L115.822 44.3981L115.862 43.9999L115.883 43.7663L115.965 43.4716L115.987 43.084L115.965 42.768V41.4538L116.005 41.1167L116.117 40.7184L116.178 40.4423V40.1981L116.26 40.0361L116.281 39.7202V39.5264L116.382 39.3644L116.597 39.221L116.88 39.1281L117.114 39.1998L117.511 39.1095L117.827 39.0883H118.111L118.426 39.006L118.721 38.9848L118.986 38.9237L119.14 38.8228L119.161 38.6688L118.988 38.6078L118.845 38.5865L118.84 38.5918ZM118.424 39.906L118.463 40.0998L118.718 40.1397L118.84 39.9246L118.607 39.8423L118.424 39.9034V39.906ZM124.896 40.7211L125.008 40.8432L125.109 40.9335L125.209 40.7795V40.5751H125.026L124.894 40.7184L124.896 40.7211ZM130.301 39.4069L130.046 39.2449L129.741 39.0113L129.426 38.9104L129.089 38.8494L128.794 38.8281L128.49 38.9104L128.195 38.9927L127.819 39.1361L127.442 39.229L127.219 39.2503L126.965 39.3326L126.588 39.4759L126.445 39.5157L126.262 39.6087L125.864 39.9538L125.772 40.2485V40.6467L125.711 40.8512L125.567 41.1459L125.506 41.5016L125.485 41.8388L125.506 42.2769V42.6034L125.567 43.0627L125.668 43.4795L125.708 43.8565L125.79 44.1512L125.923 44.4061L126.045 44.6928L126.259 44.7751L126.543 44.9689L126.819 45.0911L127.105 45.2132L127.593 45.2636L128.113 45.2132L128.378 45.1734L128.694 45.0725L129.049 44.9291L129.325 44.7964L129.529 44.6344L129.569 44.4911L129.468 44.3185L129.274 44.2972L129.131 44.4088L128.948 44.4911L128.612 44.5521H127.837L127.614 44.4512L127.259 44.3397L127.026 44.2388L126.761 43.9733L126.628 43.6574V43.0654L126.649 42.7601L126.742 42.3432L126.885 42.2211L126.946 42.0485L127.028 41.8043L127.182 41.5096L127.405 41.2149L127.62 40.9919L127.986 40.7768L128.201 40.6945H128.516L128.871 40.7954L129.137 40.8352L129.473 40.9467H129.871L130.157 40.8565L130.433 40.3786L130.534 40.1742L130.574 39.8981L130.513 39.6326L130.309 39.4175L130.301 39.4069ZM136.842 41.7193L136.681 41.4751L136.498 41.199L136.344 40.9759L136.121 40.8034L135.784 40.5804L135.623 40.4476L135.368 40.3467L135.185 40.2246H134.992L134.909 40.368L134.949 40.583L135.092 40.7051L135.286 40.8485L135.53 41.0423L135.763 41.2653L135.946 41.5202L136.119 41.8361L136.219 42.0804V42.4972L136.158 42.8131L135.986 43.1503L135.763 43.3733L135.387 43.6282L135.05 43.6893L134.673 43.7105L134.634 43.6494L134.297 43.6282L134.032 43.5459L133.817 43.3309L133.594 43.1689L133.422 42.9539L133.279 42.6884L133.218 42.3512V42.0353L133.239 41.6583L133.34 41.414L133.451 41.037L133.655 40.8432L133.676 40.5777L133.798 40.3016L133.992 40.0574L134.154 39.8423L134.175 39.5662L134.135 39.3618L134.013 39.1281L133.798 39.006L133.554 38.9662L133.178 39.0485L132.923 39.2025L132.658 39.3857L132.443 39.5476L132.403 39.7812L132.181 39.9857L131.966 40.6175L131.844 41.0158V41.414L131.743 41.8122L131.693 42.0963L131.722 42.4946L131.743 42.8105L131.886 43.0866L132.008 43.3733L132.181 43.6494L132.425 43.7928L132.658 44.0689L132.923 44.3132L133.178 44.4247L133.493 44.5468L133.82 44.6079L134.217 44.6902L134.594 44.6503L134.992 44.5893L135.389 44.5495L135.726 44.4273L136.063 44.2548L136.225 44.0105L136.469 43.8379L136.641 43.5539L136.742 43.2778L136.885 43.0229L136.957 42.6963L136.996 42.3406L136.935 41.9636L136.842 41.7299V41.7193ZM134.909 40.06L134.87 39.9273L134.737 39.906L134.655 39.9883L134.787 40.0998L134.909 40.06ZM142.663 44.5627L142.745 44.7247L142.846 44.6849L142.928 44.5627L142.827 44.4008L142.666 44.5627H142.663ZM143.62 43.6256L143.581 43.3309L143.469 43.0362L143.429 42.7521V42.4574L143.408 42.1813L143.326 41.8972L143.305 41.5813L143.244 41.2653L143.223 40.9388L143.201 40.6441L143.101 40.3069L142.947 40.0627L142.846 39.8688L142.806 39.5742L142.705 39.3697L142.573 39.075L142.43 38.9131L142.135 38.8122L141.852 38.852L141.496 38.8918L141.22 38.9741L140.934 39.0564L140.64 39.0963L140.425 39.168L140.202 39.0564L140.12 38.8122L140.009 38.6582L139.786 38.4352L139.571 38.2812L139.348 38.1378L139.054 38.1166L138.77 38.1378L138.537 38.3104L138.415 38.4325L138.314 38.6157L138.285 38.8095L138.314 39.0538L138.396 39.2688L138.479 39.4308L138.601 39.6246L138.683 39.8688V41.1618L138.704 41.499V41.876L138.776 42.1813L138.797 42.4574V42.7335L138.837 43.0893V43.4769L138.879 43.8141L138.919 44.0689V44.2919L139.001 44.884L139.062 45.1681L139.176 45.5238L139.279 45.6459L139.401 45.7389H139.587L139.783 45.699L139.865 45.5875L139.969 45.4654L139.948 45.2105L139.887 44.945L139.804 44.6291L139.783 44.2734V43.8964L139.804 43.4795L139.844 43.0202V42.6539L139.865 42.2769L139.948 41.9397L140.141 41.706L140.303 41.483L140.343 41.268L140.404 41.045L140.515 40.7901L140.778 40.4131L140.99 40.1689L141.191 39.9352L141.425 39.8529L141.748 39.752L141.96 39.8529L142.082 40.0149L142.377 40.1476L142.621 40.3706L142.793 40.891L142.833 41.645L142.994 42.1441L143.016 42.46L143.109 42.7362V43.0016L143.13 43.2963L143.212 43.591V43.8141L143.233 44.0902L143.294 44.2734L143.477 44.4459L143.692 44.4672L143.793 44.3849L143.875 44.2734V44.0902L143.793 43.8565L143.631 43.6335L143.62 43.6256ZM150.388 38.5918L150.093 38.5095L149.695 38.4883L149.473 38.4485H148.698L148.423 38.4883L148.139 38.4272L147.966 38.3051L147.927 38.1113L148.027 37.9069L148.059 37.652L148.141 37.429L148.163 37.1343L148.123 37.0122L147.969 36.7573L147.908 36.5953L147.746 36.4015L147.664 36.2582L147.431 36.1042L147.208 36.0033L146.954 35.9821L146.638 36.1042L146.434 36.3192L146.139 36.4626L146.017 36.7175V36.9405L146.1 37.1954L146.139 37.4502L146.161 37.7343L146.139 38.1724L146.1 38.5095L146.139 38.8042L146.1 38.9874L145.784 39.0087L145.519 39.0485L145.243 39.1095L145.02 39.0883L144.806 39.1998L144.684 39.3219L144.644 39.5051V39.6166L144.726 39.7175L144.869 39.7388L145.063 39.6989L145.267 39.5449L145.561 39.4441L145.827 39.3618L146.102 39.3219V40.6361L146.02 41.0131L145.999 41.3503L146.02 41.7167L146.06 42.176L146.161 42.5742L146.1 42.8689L146.139 43.1848V43.6017L146.1 43.9999L146.182 44.2654L146.264 44.6424L146.285 45.0194L146.439 45.3566L146.755 45.6937L147.06 45.7946L147.354 45.9778L147.669 46.0787L147.974 46.1291H148.452L148.807 45.9964L148.918 45.8344H148.47L148.248 45.8557L147.871 45.7123L147.667 45.5583L147.534 45.2743L147.452 45.1017L147.37 44.3981L147.41 43.9999L147.431 43.7663L147.513 43.4716L147.534 43.084L147.513 42.768V41.4538L147.553 41.1167L147.664 40.7184L147.725 40.4423V40.1981L147.807 40.0361L147.829 39.7202V39.5264L147.929 39.3644L148.144 39.221L148.428 39.1281L148.661 39.1998L149.059 39.1095L149.375 39.0883H149.658L149.974 39.006L150.268 38.9848L150.533 38.9237L150.687 38.8228L150.708 38.6688L150.536 38.6078L150.393 38.5865L150.388 38.5918ZM149.971 39.906L150.011 40.0998L150.266 40.1397L150.388 39.9246L150.154 39.8423L149.971 39.9034V39.906ZM155.283 39.4467H155.1L154.763 39.529L154.447 39.5688L154.182 39.7228L153.867 39.8662L153.591 40.0388L153.387 40.2007L153.214 40.2405L153.092 40.2193L152.97 40.0972V39.6804L152.816 39.4042L152.777 39.1998L152.432 39.0458L152.156 39.006L151.841 39.16L151.557 39.2609L151.385 39.383L151.284 39.5662L151.244 39.8211L151.265 40.0972L151.347 40.3414L151.491 40.5751L151.663 40.8591L151.684 41.0928L151.724 41.3476V41.653L151.745 42.0299L151.724 42.3671L151.684 42.7043V42.9884L151.663 43.3255L151.642 43.5804L151.663 43.8034V44.2813L151.684 44.6185L151.663 44.8521L151.745 45.0566L151.827 45.2504L151.981 45.4123L152.143 45.4521L152.326 45.4123L152.602 45.33L152.785 45.1574L152.938 44.8521V44.5574L152.978 44.2415L152.999 43.9574L153.082 43.6627L153.103 43.368V42.707L153.124 42.4123L153.206 42.1361L153.299 41.8919L153.381 41.6583V41.3529L153.464 41.1193L153.586 40.8644L153.861 40.6202L154.004 40.4476L154.341 40.3043L154.503 40.0812L154.84 39.8874L155.116 39.8476H155.299L155.492 39.8688L155.635 39.829V39.6857L155.553 39.5317L155.299 39.4494L155.283 39.4467ZM159.475 40.0574L159.435 39.9246L159.303 39.9034L159.22 39.9857L159.353 40.0972L159.475 40.0574ZM161.408 41.7167L161.246 41.4724L161.063 41.1963L160.91 40.9733L160.687 40.8007L160.35 40.5777L160.188 40.445L159.934 40.3441L159.751 40.222H159.557L159.475 40.3653L159.515 40.5804L159.658 40.7025L159.852 40.8459L160.095 41.0397L160.329 41.2627L160.512 41.5176L160.684 41.8335L160.785 42.0777V42.4946L160.724 42.8105L160.552 43.1477L160.329 43.3707L159.952 43.6256L159.616 43.6866L159.239 43.7079L159.199 43.6468L158.862 43.6256L158.597 43.5432L158.382 43.3282L158.16 43.1663L157.987 42.9512L157.844 42.6857L157.783 42.3485V42.0326L157.804 41.6556L157.905 41.4114L158.017 41.0344L158.221 40.8405L158.242 40.5751L158.364 40.2989L158.557 40.0547L158.719 39.8396L158.74 39.5635L158.701 39.3591L158.579 39.1255L158.364 39.0033L158.12 38.9635L157.743 39.0458L157.489 39.1998L157.224 39.383L157.009 39.5449L156.969 39.7786L156.746 39.983L156.532 40.6149L156.41 41.0131V41.4114L156.309 41.8096L156.258 42.0937L156.288 42.4919L156.309 42.8078L156.452 43.084L156.574 43.3707L156.746 43.6468L156.99 43.7902L157.224 44.0663L157.489 44.3105L157.743 44.422L158.059 44.5442L158.385 44.6052L158.783 44.6875L159.159 44.6477L159.557 44.5866L159.955 44.5468L160.292 44.4247L160.629 44.2521L160.79 44.0079L161.034 43.8353L161.207 43.5512L161.307 43.2751L161.451 43.0202L161.522 42.6937L161.562 42.3379L161.501 41.9609L161.408 41.7273V41.7167ZM164.747 32.0183L164.532 31.8563L164.248 31.6014L163.954 31.4581L163.699 31.4368H163.434L163.14 31.559L162.845 31.7023L162.662 31.936V32.313L162.763 32.6183L162.936 32.8944L163.097 33.1891L163.179 33.6271L163.28 34.044L163.392 34.4422L163.413 34.8803L163.392 35.3183L163.431 36.3776L163.41 36.8555L163.431 37.4263L163.532 38.0078L163.492 38.5281L163.532 38.9449L163.593 39.2821L163.532 39.598V40.0069L163.492 40.3839L163.532 40.7211L163.471 41.037L163.41 41.3211L163.389 41.7193L163.278 42.1176V42.5158L163.328 42.8716L163.389 43.2273V43.5432L163.41 43.9601L163.431 44.2866L163.614 44.6238L163.89 45.022L164.184 45.2557L164.428 45.3566H164.643L164.683 45.2026L164.346 44.876L164.203 44.6822L163.927 44.438L163.805 44.2043L163.765 43.9096V43.6256L163.744 43.3309V42.4149L163.845 42.0379V41.7007L163.906 41.3025L163.927 41.0184L163.967 40.6627L164.049 40.3866V40.1025L164.028 39.8874L164.161 39.6034L164.243 39.2264L164.325 38.6768L164.426 38.1777L164.487 37.7184L164.659 37.3812L164.638 36.9033L164.659 36.5768L164.741 36.2821L164.824 35.3051L164.863 34.9068L164.946 34.5909L164.863 34.2351L164.946 33.7758L165.038 33.4386L165.06 33.0616V32.8174L165.121 32.6236L164.948 32.236L164.744 32.0209L164.747 32.0183ZM165.622 41.1565L165.428 41.1352L165.327 41.3503L165.5 41.4326L165.643 41.3211L165.622 41.1591V41.1565Z" fill="#006596"/>
<path d="M34.1622 34.8351H34.1782V34.8696L34.0535 35.8387C31.2321 37.9679 25.2392 40.4343 18.3023 40.6574C18.2121 40.6574 18.1246 40.6574 18.0371 40.6627C17.8064 40.668 17.5836 40.6706 17.3635 40.6706H17.2734C17.0003 40.6706 16.7404 40.6653 16.4832 40.6574C16.4222 40.6574 16.3585 40.6547 16.3002 40.652C16.1994 40.6494 16.104 40.6441 16.0059 40.6388C15.8308 40.6308 15.6558 40.6202 15.4861 40.6069H15.4835C15.2952 40.5936 15.1149 40.5751 14.9346 40.5565H14.9213C14.794 40.5432 14.6667 40.5273 14.5421 40.5113C14.4997 40.506 14.4572 40.4981 14.4122 40.4928C14.3141 40.4795 14.2133 40.4662 14.1152 40.4503C13.972 40.4264 13.8261 40.4025 13.6856 40.3759C13.4496 40.3308 13.2215 40.2804 12.9935 40.2273C12.7681 40.1742 12.548 40.1131 12.3332 40.0494C12.3332 40.0494 12.3306 40.0467 12.3279 40.0467C12.2192 40.0149 12.1131 39.9804 12.0044 39.9458C10.9304 39.5954 9.92809 39.1122 8.88066 38.4883C8.67117 38.3609 8.46169 38.2308 8.24689 38.0954C7.92604 37.8909 7.59722 37.6732 7.2631 37.4423C6.92633 37.2113 6.57896 36.9697 6.22097 36.7122C1.7369 33.5236 0.185637 28.5908 0.00797127 23.0845C-0.182953 17.0074 3.02299 11.4905 7.62374 7.70722C11.7657 4.31424 15.7168 3.43811 21.89 3.24165C22.7943 3.21245 23.7648 3.25493 24.7857 3.35316C24.9873 3.37174 25.1914 3.39298 25.3956 3.41687C25.5998 3.43811 25.8093 3.46201 26.0161 3.49121C26.2256 3.51511 26.4351 3.54431 26.6472 3.57617C27.1617 3.6452 27.6867 3.7275 28.2171 3.81777C28.4849 3.86025 28.7554 3.90538 29.0258 3.95582C29.169 3.97972 29.3149 4.00627 29.4607 4.03281C29.7948 4.09388 30.1343 4.15494 30.4763 4.21866C30.5612 4.23459 30.6461 4.25052 30.7309 4.26645C31.1393 4.34344 31.5529 4.42309 31.9666 4.50273C32.1947 4.54787 32.4227 4.59035 32.6534 4.63548C32.7436 4.26114 32.7542 2.66553 33.266 0H34.316C33.7724 4.80805 34.1676 9.8869 34.316 15.595L33.4861 15.2312C33.4171 14.1135 33.2713 12.7064 33.0512 11.0152C32.9398 10.6807 32.9769 9.26565 32.3909 8.6736C31.1525 7.35146 28.3947 6.38507 26.1779 5.60718C25.9764 5.5355 25.7669 5.46912 25.5494 5.40806C25.4911 5.39213 25.4301 5.37355 25.3691 5.35762C25.157 5.30186 24.9369 5.24877 24.7168 5.19832C24.5895 5.16912 24.4596 5.14257 24.3296 5.11867C24.2474 5.10275 24.1652 5.08682 24.0804 5.07089C23.9027 5.03637 23.7224 5.00717 23.5421 4.98062C23.3246 4.94611 23.1072 4.9169 22.8897 4.89301C21.9086 4.77088 20.9328 4.72044 20.071 4.72044C19.8535 4.72044 19.6414 4.72309 19.4398 4.73106C15.2209 4.8638 10.53 6.53374 7.79875 9.37185C5.06482 12.2126 3.54803 16.7499 3.68592 21.0296C3.85033 26.1907 6.02209 30.0802 9.76899 33.4971C9.99173 33.6988 10.2118 33.8953 10.4346 34.0811C10.6547 34.2696 10.8774 34.4502 11.0975 34.6254C11.474 34.9201 11.8532 35.1962 12.2324 35.4511C12.7018 35.767 13.1765 36.0537 13.6538 36.3113C13.8155 36.3962 13.9746 36.4785 14.1364 36.5582C14.4811 36.7281 14.8311 36.8847 15.1865 37.0228H15.1891C15.4251 37.1184 15.6611 37.206 15.9024 37.2856C16.2021 37.3892 16.5097 37.4794 16.8173 37.5644C17.1275 37.6467 17.4431 37.721 17.7613 37.7847C18.0106 37.8352 18.2625 37.8777 18.517 37.9175C18.8909 37.9732 19.2701 38.0184 19.6599 38.0502C20.4793 38.1219 21.3385 38.1432 22.2401 38.1139C26.5173 37.9785 30.4021 36.6192 33.4542 34.8909C33.4755 34.8803 33.4967 34.8696 33.5179 34.8564H33.555L33.8891 34.8431C33.9899 34.8404 34.08 34.8378 34.1622 34.8351ZM47.3413 20.9393L47.3466 20.8517V20.8251L47.3758 20.8225L47.458 20.8066C48.1316 20.6977 48.8051 20.6048 49.4627 20.5331L49.4972 20.3712L47.8027 20.4296C47.633 20.4349 47.5084 20.4375 47.4235 20.4428L34.8756 20.4455C34.7721 20.4428 34.4221 20.4296 33.8785 20.411L32.6905 20.3712L32.7277 20.5331C33.4012 20.6074 34.0774 20.6977 34.7324 20.8066L34.8172 20.8225H34.8437V20.9393C34.9127 22.1659 34.9472 23.4349 34.9472 24.7146V30.2979C34.9472 31.5776 34.9127 32.8466 34.8464 34.0732V34.1581L34.8437 34.1873L34.8172 34.1926L34.7324 34.2086C34.0933 34.3121 33.4171 34.405 32.7277 34.482L32.6905 34.644L33.8785 34.6042H33.9183C33.9183 34.6042 33.9448 34.6042 33.9554 34.6042H33.9819C34.0562 34.6015 34.1251 34.5988 34.1914 34.5962H34.21C34.21 34.5962 34.2206 34.5935 34.2259 34.5935C34.3532 34.5909 34.4619 34.5856 34.5547 34.5829C34.7191 34.5776 34.8278 34.5723 34.8756 34.5723H37.0924C37.1614 34.5776 37.2648 34.5803 37.4027 34.5829L37.514 34.5882L39.2032 34.6466L39.1661 34.4847C38.4899 34.4077 37.8137 34.3148 37.1614 34.2112L37.0765 34.1953L37.05 34.19V34.1634L37.0447 34.0785C36.9784 32.8731 36.9466 31.6014 36.9466 30.3005V24.7173C36.9466 23.4163 36.9784 22.1473 37.0447 20.942L37.05 20.8411V20.8092H45.1378V20.8411L45.1457 20.942C45.212 22.1712 45.2438 23.4402 45.2438 24.7173V30.3005C45.2438 31.5802 45.212 32.8493 45.1457 34.0785L45.1404 34.1634V34.19L45.1139 34.1953L45.029 34.2112C44.3873 34.3148 43.7111 34.4077 43.0243 34.4847L42.9872 34.6466L44.1619 34.6068C44.451 34.5962 44.679 34.5882 44.8461 34.5829C45.0131 34.5776 45.1218 34.5723 45.1696 34.5723H47.3917C47.458 34.5776 47.5588 34.5803 47.694 34.5829L47.8027 34.5882L49.4972 34.6466L49.4627 34.4847C48.7786 34.4077 48.1024 34.3148 47.4554 34.2112L47.3732 34.1953L47.3493 34.19V34.1634L47.3413 34.0785C47.2751 32.8625 47.2406 31.5908 47.2406 30.3005V24.7173C47.2406 23.4296 47.2751 22.1579 47.3413 20.942V20.9393ZM60.1412 33.5794L60.128 33.6298L60.0829 33.6457C59.0514 34.1183 57.7388 34.3599 56.1743 34.3599C56.0867 34.3599 55.9966 34.3572 55.9091 34.3572H55.1507L55.1454 34.2537C55.0526 31.8829 55.0048 30.2129 55.0048 29.2864V27.42H55.7288C57.2668 27.42 58.3831 27.5713 59.0461 27.8793L59.1071 27.9111V28.3678C59.1203 28.6094 59.1097 28.9253 59.0752 29.281L59.2556 29.3634C59.4491 27.8155 59.6109 26.6155 59.7355 25.7978L59.534 25.819C59.4916 26.0845 59.4279 26.358 59.3431 26.6314L59.3245 26.6899L59.2662 26.7084C58.2956 26.9235 57.1209 27.0376 55.7818 27.0376H55.0048V26.5199C55.0048 24.5951 55.0526 22.7579 55.1454 21.0614L55.1507 20.9579L55.2541 20.9632C56.3281 20.9765 57.1103 21.019 57.5797 21.0853C58.4972 21.2101 59.2423 21.465 59.7992 21.842L59.8416 21.8685V21.9243C59.8602 22.1526 59.8655 22.3915 59.8655 22.6252C59.8655 22.8588 59.8602 23.0924 59.8496 23.3287L60.0829 23.4057C60.1704 21.8632 60.295 20.5331 60.4541 19.4313L60.2128 19.4738C60.1837 19.6968 60.1333 19.9995 60.0643 20.3685L60.0484 20.4455L59.9689 20.4535C59.0355 20.549 57.349 20.5968 54.9492 20.5968H53.1142C52.6819 20.5968 51.8811 20.5729 50.6693 20.5225L50.7117 20.7455C51.5311 20.8384 52.2073 20.9313 52.7137 21.0243L52.796 21.0375L52.8013 21.1198C52.8941 22.4845 52.9418 24.2606 52.9418 26.3978V30.3112C52.9418 31.8006 52.8941 33.1147 52.8013 34.2192L52.796 34.3015L52.7164 34.3148C51.9713 34.4581 51.303 34.5537 50.7249 34.5962L50.6746 34.8219C50.892 34.8192 51.1996 34.8059 51.5947 34.7794C52.0376 34.7555 52.4061 34.7396 52.674 34.7396H53.8142C56.5296 34.7396 58.5608 34.8006 59.8496 34.9254L59.9424 34.9387L59.9636 36.1918L60.1863 36.2369C60.3375 34.6971 60.547 33.2024 60.8042 31.7687L60.5735 31.8324C60.4992 32.2466 60.356 32.8333 60.1412 33.5794ZM82.3521 31.6492C80.9467 30.2289 80.236 28.4527 80.236 26.3739C80.236 24.6456 80.7903 23.2013 81.8854 22.0915C82.9806 20.9791 84.3648 20.4189 85.9983 20.4189C86.7434 20.4189 87.5177 20.5782 88.3026 20.8915C89.1538 21.2367 89.8221 21.6853 90.2887 22.2402C90.5142 22.4977 90.6467 22.6942 90.6892 22.8482C90.7555 23.5093 90.7926 24.0535 90.8085 24.4836L91.0498 24.5633C91.0657 22.4101 91.201 20.3951 91.4476 18.5711L91.2116 18.6242C90.9809 19.6915 90.8615 20.2278 90.8244 20.3712L90.8005 20.4694L90.7077 20.4455C89.2334 20.0977 87.9022 19.9198 86.7434 19.9198C84.4099 19.9198 82.4158 20.5703 80.8141 21.8473C79.0428 23.2677 78.1465 25.1925 78.1465 27.5713C78.1465 29.7165 78.9791 31.4607 80.6232 32.759C82.1241 33.959 83.9432 34.5643 86.038 34.5643C88.6394 34.5643 90.5089 34.1741 91.5961 33.3882L91.7764 32.8041C90.5751 33.4546 89.114 33.7891 87.4275 33.7891C85.4653 33.7891 83.7575 33.067 82.3521 31.6492ZM108.151 21.1942V21.1119L108.236 21.0986C108.888 20.9924 109.569 20.8968 110.262 20.8198L110.312 20.5968L109.079 20.6393C108.61 20.6552 108.307 20.6659 108.159 20.6712L95.6824 20.6738V20.5809L95.6744 20.6738C95.6426 20.6738 94.9425 20.6526 93.6724 20.6101L93.4204 20.5968L93.4708 20.8198C94.1788 20.8968 94.8577 20.9924 95.4994 21.0986L95.5816 21.1119L95.5869 21.1942C95.6559 22.4154 95.6877 23.6712 95.6877 24.9243V30.4359C95.6877 31.6944 95.6559 32.9501 95.5869 34.1687L95.5816 34.2537L95.4994 34.2696C94.8763 34.3705 94.1947 34.4634 93.4708 34.5457L93.4204 34.7634H93.6724C94.9425 34.713 95.6426 34.6918 95.6744 34.6918L95.6824 34.7953V34.6918H97.8674C98.0159 34.6971 98.3341 34.7104 98.8141 34.7289L100.018 34.7634L99.9676 34.5457C99.2542 34.4634 98.5728 34.3705 97.939 34.2696L97.8541 34.2537V34.1687C97.7852 32.9554 97.7507 31.6997 97.7507 30.4359V24.9243C97.7507 23.6659 97.7852 22.4128 97.8515 21.1942V21.0959H105.878L105.884 21.1942C105.95 22.4128 105.982 23.6659 105.982 24.9243V30.4359C105.982 31.6997 105.95 32.9554 105.884 34.1687V34.2537L105.796 34.2696C105.176 34.3705 104.491 34.4634 103.768 34.5457L103.72 34.7634H103.871C105.207 34.7157 105.942 34.6918 105.976 34.6918V34.7953L105.979 34.6918H108.164C108.307 34.6971 108.61 34.7103 109.079 34.7236L110.312 34.7634L110.262 34.5457C109.551 34.4634 108.869 34.3705 108.236 34.2696L108.153 34.2537V34.1687C108.082 32.9634 108.05 31.7103 108.05 30.4359V24.9243C108.05 23.6606 108.082 22.4022 108.151 21.1942ZM120.914 33.7997L120.903 33.8502L120.858 33.8714C119.826 34.344 118.511 34.5882 116.952 34.5882C116.864 34.5882 116.772 34.5882 116.681 34.5803H115.923L115.918 34.482C115.828 32.0714 115.78 30.3802 115.78 29.4377V27.5474H116.498C118.042 27.5474 119.158 27.7014 119.821 28.012L119.885 28.0439V28.5032C119.893 28.7554 119.885 29.0687 119.845 29.4377L120.028 29.5147C120.224 27.9403 120.383 26.7217 120.511 25.8907L120.306 25.912C120.269 26.1854 120.2 26.4642 120.118 26.7483L120.097 26.804L120.039 26.8173C119.084 27.0376 117.944 27.1545 116.628 27.1545C116.52 27.1545 116.411 27.1545 116.302 27.1545H115.78V26.6341C115.78 24.6774 115.828 22.811 115.918 21.088L115.923 20.9898H116.024C117.122 21.0057 117.883 21.0455 118.352 21.1172C119.272 21.242 120.017 21.4995 120.574 21.8845L120.614 21.911V21.9641C120.635 22.2004 120.64 22.4393 120.64 22.6783C120.64 22.9172 120.635 23.1562 120.622 23.3951L120.855 23.4721C120.943 21.9057 121.07 20.5517 121.226 19.434L120.988 19.4765C120.959 19.7021 120.908 20.0101 120.837 20.3871L120.823 20.4641L120.744 20.472C119.818 20.5676 118.127 20.6181 115.721 20.6181H113.889C113.465 20.6181 112.683 20.5942 111.442 20.5411L111.487 20.7694C112.322 20.865 112.98 20.9605 113.491 21.0535L113.571 21.0694L113.576 21.1517C113.666 22.5349 113.714 24.3349 113.714 26.5067V30.4837C113.714 31.997 113.666 33.3245 113.576 34.4475L113.571 34.5298L113.491 34.5431C112.746 34.6891 112.081 34.782 111.497 34.8272L111.45 35.0608C111.664 35.0555 111.975 35.0449 112.37 35.0236C112.81 34.9971 113.176 34.9785 113.449 34.9785H114.589C117.305 34.9785 119.336 35.0449 120.625 35.167L120.715 35.175L120.739 36.4546L120.959 36.5024C121.112 34.944 121.322 33.4201 121.579 31.9625L121.346 32.0236C121.272 32.4484 121.131 33.0404 120.914 33.8024V33.7997ZM130.009 25.5854L129.959 25.5111L130.025 25.4527C132.051 23.5597 133.873 22.0252 135.445 20.8968L135.482 20.8809C136.137 20.7508 136.53 20.6738 136.736 20.6393L136.8 20.411C136.142 20.4588 135.464 20.4827 134.766 20.4827C133.785 20.4827 132.809 20.4588 131.863 20.4057L131.9 20.6367C132.252 20.6844 132.716 20.7774 133.313 20.9234L133.464 20.9632L133.377 21.088C132.746 21.9455 131.709 23.0473 130.287 24.3668C129.182 25.3757 128.073 26.3792 126.954 27.3854L126.782 27.5421V25.1314C126.782 23.6633 126.814 22.2854 126.88 21.0402V20.9579L126.967 20.942C127.625 20.8331 128.307 20.7375 128.993 20.6579L129.044 20.4216C127.851 20.4667 127.14 20.4933 126.891 20.4986V20.5039L124.599 20.4986C124.353 20.4933 123.645 20.4667 122.446 20.4216L122.499 20.6579C123.189 20.7375 123.868 20.8331 124.528 20.942L124.613 20.9579V21.0402C124.682 22.296 124.714 23.6659 124.714 25.1314V30.2979C124.714 31.7607 124.682 33.136 124.615 34.3838V34.4714L124.528 34.4873C123.902 34.5909 123.221 34.6865 122.499 34.7714L122.446 35.0077L123.677 34.9626C124.146 34.9466 124.454 34.9387 124.599 34.9307V34.9254L126.891 34.9307C127.039 34.9387 127.355 34.9466 127.835 34.9626L129.044 35.0077L128.993 34.7714C128.272 34.6865 127.588 34.5909 126.967 34.4873L126.883 34.4714V34.3838C126.814 33.1386 126.782 31.7661 126.782 30.2979V28.2005L126.816 28.1686L128.15 27.0138L128.219 27.0907C130.439 29.4988 131.849 31.0174 132.404 31.5855C134.026 33.2183 135.57 34.5404 136.994 35.5254L137.474 35.3555C136.569 34.3254 135.347 32.8041 133.843 30.8448C132.205 28.7049 130.911 26.9341 130.009 25.5854ZM152.278 20.6101L152.26 20.6897L152.183 20.6977C151.074 20.78 150.271 20.8251 149.73 20.8384C148.16 20.8782 146.718 20.8968 145.431 20.8968C142.159 20.8968 139.958 20.8305 138.892 20.6977L138.81 20.6844L138.805 20.6021C138.741 19.9517 138.701 19.5322 138.685 19.3623L138.426 19.3145C138.383 20.857 138.285 22.4924 138.137 24.1703L138.391 24.104C138.55 23.1243 138.678 22.5163 138.789 22.2376L138.805 22.2057L138.829 22.1898C139.33 21.8818 140.115 21.6482 141.175 21.4836C141.939 21.3747 142.679 21.3137 143.387 21.3137C143.477 21.3137 143.565 21.3163 143.652 21.3163H144.212L144.22 21.4119C144.289 21.9907 144.32 23.6659 144.32 26.4031V28.8616C144.32 29.5439 144.289 31.2802 144.22 34.1687V34.259L144.129 34.2696C143.143 34.3838 142.297 34.4767 141.616 34.5457L141.565 34.7634C143.254 34.713 144.249 34.6918 144.44 34.6918H146.357C147.359 34.6918 148.306 34.713 149.176 34.7634L149.139 34.5457L146.513 34.259V34.1687C146.45 31.6174 146.413 29.3979 146.413 27.5633V25.9199C146.413 23.6606 146.45 22.1898 146.513 21.4145L146.521 21.3163H146.622C147.423 21.3163 148.338 21.388 149.34 21.5234C150.581 21.6853 151.459 21.9084 151.944 22.1871L151.995 22.2163V23.1933C151.995 23.5464 151.981 23.9128 151.963 24.2898L152.22 24.3615C152.238 24.1226 152.302 23.496 152.472 21.8606C152.57 20.8703 152.692 20.0393 152.827 19.3809L152.543 19.426C152.416 19.9437 152.329 20.3446 152.278 20.6101ZM163.689 20.403C162.774 20.1535 161.374 20.0287 159.528 20.0287H156.532C155.972 20.0393 155.535 20.0446 155.219 20.0499L155.253 20.2782C155.802 20.2889 156.494 20.3924 157.314 20.5756L157.391 20.5915L157.396 20.6712C157.465 21.5128 157.497 23.0765 157.497 25.3252V27.3403C157.497 30.582 157.465 32.8519 157.401 34.0918L157.393 34.1847L155.267 34.4873L155.224 34.713C156.558 34.6626 157.335 34.6387 157.473 34.6387H159.449C159.793 34.6387 160.271 34.6466 160.91 34.6785C161.469 34.705 161.923 34.713 162.23 34.7157L162.174 34.482C161.053 34.3572 160.247 34.259 159.714 34.1926L159.634 34.1847L159.621 34.1024C159.56 33.4599 159.515 32.7218 159.502 31.9068C159.491 31.3306 159.491 30.582 159.502 29.6766C159.515 28.458 159.525 27.7173 159.525 27.4651V25.681C159.525 22.9862 159.557 21.3057 159.621 20.5464L159.634 20.4481H159.73C162.58 20.4614 164.023 21.6137 164.023 23.873C164.023 24.9164 163.726 25.8297 163.142 26.5863C162.572 27.3244 161.814 27.8288 160.883 28.0784L160.846 28.3917C162.214 28.158 163.41 27.6138 164.407 26.7562C165.59 25.7474 166.189 24.5234 166.189 23.1163C166.189 21.7092 165.372 20.8703 163.689 20.403ZM78.0696 32.6979C78.1173 33.0324 78.165 33.4997 78.2154 34.0971C78.2287 34.1581 78.2366 34.2431 78.234 34.3572L78.2287 34.4528L78.1332 34.4581C77.9688 34.4661 77.823 34.4714 77.6957 34.4714C77.2979 34.4714 77.054 34.4369 76.8577 34.4103C76.7305 34.3944 76.6297 34.3838 76.521 34.3838L76.3672 34.3891L76.3592 34.2856C76.2956 33.067 76.2585 31.8271 76.2585 30.6138V24.9004C76.2585 23.6287 76.2956 22.3491 76.3592 21.1039L76.3672 21.0216L76.4494 21.0057C77.0964 20.8968 77.7752 20.8013 78.4753 20.7216L78.5283 20.488L77.3775 20.5278C76.8657 20.549 76.5289 20.557 76.3725 20.565H74.0814C73.9302 20.557 73.6147 20.549 73.1347 20.5331L71.9282 20.488L71.9786 20.7216C72.6919 20.8013 73.3734 20.8968 74.0071 21.0057L74.0893 21.0216V21.1039C74.1583 22.3517 74.1928 23.6314 74.1928 24.9004V30.5873C74.1928 31.8643 74.1583 33.1386 74.092 34.3891V34.4873H66.0679L66.0626 34.3891C65.9963 33.1519 65.9618 31.8696 65.9618 30.5873V24.9004C65.9618 23.6208 65.9963 22.3438 66.0626 21.1039V21.0216L66.1501 21.0057C66.7944 20.8968 67.4786 20.8013 68.176 20.7216L68.229 20.488L67.0384 20.5331C66.5478 20.549 66.2243 20.557 66.0732 20.565H63.7847C63.6256 20.557 63.2915 20.549 62.7797 20.5278L61.6289 20.488L61.6845 20.7216C62.3926 20.8013 63.0767 20.8968 63.7105 21.0057L63.7927 21.0216L63.798 21.1039C63.8643 22.3491 63.8961 23.6287 63.8961 24.9004V30.5873C63.8961 31.8643 63.8643 33.1386 63.798 34.3891L63.7927 34.4714L63.7105 34.4873C63.0741 34.5909 62.3899 34.6918 61.6845 34.7714L61.6289 34.9997C63.8139 34.9387 66.805 34.9015 70.5175 34.9015C72.6786 34.9015 74.0708 35.082 74.4447 35.1404C74.8769 35.2148 75.3569 35.2652 75.8209 35.3157C76.9506 35.4484 78.0139 35.5626 78.4223 35.9236L78.4461 35.9422L78.5496 36.3829C78.6132 36.5794 78.6636 36.8263 78.714 37.0599C78.7458 37.2113 78.7749 37.3546 78.8094 37.4954C78.9022 37.8405 78.9897 38.2069 79.0666 38.5732L79.4883 38.5998H79.4962C79.0136 36.2582 78.6636 34.2059 78.4567 32.4988L78.0669 32.6979H78.0696ZM173.049 14.9233L173.707 16.1153V16.1392H173.309L172.702 15.0056H172.044V16.1392H171.673V13.333H172.601C172.917 13.333 173.161 13.4047 173.33 13.548C173.5 13.6914 173.585 13.9011 173.585 14.1772C173.585 14.3525 173.537 14.5038 173.444 14.6339C173.349 14.764 173.219 14.8596 173.052 14.9259L173.049 14.9233ZM173.049 14.5569C173.158 14.4613 173.211 14.3339 173.211 14.1746C173.211 14.002 173.161 13.8666 173.057 13.7737C172.954 13.6808 172.805 13.633 172.609 13.633H172.044V14.6976H172.612C172.795 14.6976 172.941 14.6498 173.049 14.5542V14.5569ZM174.86 14.841C174.86 16.11 173.829 17.1401 172.564 17.1401C171.299 17.1401 170.268 16.1074 170.268 14.841C170.268 13.5746 171.299 12.5418 172.564 12.5418C173.829 12.5418 174.86 13.5746 174.86 14.841ZM174.595 14.841C174.595 13.7179 173.683 12.8073 172.564 12.8073C171.445 12.8073 170.533 13.7206 170.533 14.841C170.533 15.9613 171.445 16.8746 172.564 16.8746C173.683 16.8746 174.595 15.9613 174.595 14.841Z" fill="#9A1D19"/>
</g>
<defs>
<clipPath id="clip0_9430_17">
<rect width="175" height="50" fill="white"/>
</clipPath>
</defs>
</svg>
