<svg width="170" height="170" viewBox="0 0 170 170" fill="none" xmlns="http://www.w3.org/2000/svg">
<g clip-path="url(#clip0_9487_2938)">
<path d="M55.5328 115.24C38.7708 99.0799 38.278 72.2947 54.4377 55.5327C70.5975 38.7707 97.3826 38.2779 114.147 54.4403C130.912 70.6028 131.402 97.3852 115.24 114.15C99.0774 130.915 72.2976 131.402 55.5328 115.24ZM111.356 57.3357C96.1908 42.7152 71.9562 43.1558 57.3331 58.324C42.7099 73.4922 43.1532 97.7239 58.3214 112.347C73.4896 126.97 97.7213 126.527 112.344 111.359C126.968 96.1906 126.524 71.9588 111.356 57.3357Z" fill="#9A1D19"/>
<path d="M63.2075 107.279C50.8363 95.3521 50.4746 75.5814 62.4013 63.2101C74.328 50.8389 94.0988 50.4772 106.47 62.4039C118.841 74.3306 119.203 94.1014 107.276 106.473C95.3495 118.844 75.5788 119.206 63.2075 107.279ZM105.074 63.8516C93.5014 52.6945 75.006 53.0328 63.849 64.6058C52.6919 76.1787 53.0302 94.6741 64.6032 105.831C76.1761 116.988 94.6715 116.65 105.829 105.077C116.986 93.504 116.647 75.0086 105.074 63.8516Z" fill="#9A1D19"/>
<path d="M127.642 42.7611L125.325 40.5281C125.165 40.3739 124.911 40.3786 124.757 40.5385L100.613 65.5818C100.459 65.7417 100.464 65.9963 100.624 66.1504L102.94 68.3835C103.1 68.5376 103.354 68.533 103.508 68.3731L127.652 43.3298C127.806 43.1699 127.801 42.9153 127.642 42.7611Z" fill="#9A1D19"/>
<path d="M69.054 103.532L66.7377 101.299C66.5778 101.145 66.3232 101.15 66.169 101.31L42.0256 126.353C41.8714 126.513 41.8761 126.767 42.036 126.922L44.3523 129.155C44.5122 129.309 44.7668 129.304 44.9209 129.144L69.0644 104.101C69.2185 103.941 69.2139 103.686 69.054 103.532Z" fill="#9A1D19"/>
<path d="M68.3705 66.1716L43.3272 42.0282C43.1673 41.8741 42.9127 41.8787 42.7585 42.0386L40.5255 44.3549C40.3713 44.5148 40.376 44.7694 40.5359 44.9236L65.5792 69.067C65.7391 69.2211 65.9937 69.2165 66.1478 69.0566L68.3809 66.7403C68.535 66.5804 68.5304 66.3258 68.3705 66.1716Z" fill="#9A1D19"/>
<path d="M129.142 124.759L104.098 100.616C103.938 100.462 103.684 100.466 103.53 100.626L101.297 102.942C101.143 103.102 101.147 103.357 101.307 103.511L126.35 127.655C126.51 127.809 126.765 127.804 126.919 127.644L129.152 125.328C129.306 125.168 129.302 124.913 129.142 124.759Z" fill="#9A1D19"/>
<path d="M72.9749 122.385C70.8976 120.382 70.5818 115.95 70.4383 111.581C70.4205 111.06 70.4069 110.618 70.3873 110.301C70.1904 107.237 70.6147 104.164 71.6448 101.149C71.1304 100.805 70.7599 100.48 70.535 100.263C70.4367 100.168 70.3438 100.074 70.2536 99.9758C70.1555 99.892 70.0544 99.7999 69.956 99.7051C69.7311 99.4883 69.3932 99.1299 69.0305 98.6285C66.0524 99.7654 62.997 100.302 59.9304 100.22C59.6071 100.212 59.1625 100.212 58.649 100.216C54.0956 100.23 49.8375 100.079 47.7602 98.076C47.1193 97.4581 45.7787 95.7263 47.2178 93.0352C48.0936 91.3955 50.4994 89.3163 54.3675 86.8624C56.2373 85.6712 58.1069 84.4744 59.9766 83.2776C59.9766 83.2776 62.7115 81.5266 62.717 81.5209C62.6256 81.5088 62.537 81.4939 62.4454 81.4707L62.4149 81.463C61.9967 81.3961 61.6383 81.2783 61.3771 81.1892C61.2077 81.1343 61.0604 81.0846 60.9857 81.0777C60.7093 81.0606 60.1666 80.9822 58.5577 80.7382C57.0846 80.5167 53.7728 80.0194 52.833 79.9648C52.8165 79.9707 52.7973 79.9793 52.7809 79.9851C52.2433 80.1882 51.341 80.5278 50.3733 80.159C50.0451 80.0324 49.7602 79.8554 49.5241 79.6277C49.3189 79.4299 48.5101 78.5417 48.9862 77.2434C48.8734 76.9666 48.8039 76.6392 48.8247 76.2633C48.8652 75.6081 49.1992 74.9972 49.7384 74.5842C50.6562 73.8853 51.7847 73.9862 53.088 74.8847L53.1383 74.9169C53.2919 75.0162 53.4123 75.1052 53.5048 75.178C53.9509 75.261 55.2599 75.4165 56.5274 75.5701C59.71 75.9482 61.6531 76.1998 62.8561 76.4484C63.1641 76.2246 63.4782 76.0394 63.7301 75.9188C64.3351 75.6288 64.9417 75.4272 65.4769 75.249C65.8611 75.1204 66.218 75.0034 66.533 74.8679C66.7276 74.7842 66.9331 74.6949 67.144 74.6054C68.2344 74.1326 69.4508 73.6022 70.7022 73.3225C71.5133 72.83 72.4667 72.7186 73.5402 72.9834C74.4224 73.2048 75.2482 73.3609 75.9953 73.4466C76.9035 72.9771 77.7739 72.5525 78.6202 72.1698C78.199 71.9427 77.7779 71.7157 77.3623 71.4886L77.2452 71.4245C76.9244 71.2508 76.4978 71.0239 76.1014 70.6418C75.9637 70.509 75.8396 70.3677 75.7347 70.2177C75.4938 69.8825 75.3771 69.5422 75.3058 69.2674C74.2331 67.9891 73.138 66.2446 72.3791 64.6072C72.2324 64.2868 72.0669 63.9971 71.8929 63.6937C71.5304 63.0514 71.1224 62.3326 70.861 61.3267C69.0764 60.3818 63.945 57.7778 62.8126 57.3153C62.7877 57.313 62.7629 57.3162 62.738 57.3139C62.1607 57.3051 61.1968 57.2924 60.4302 56.5967L60.3655 56.5344C59.8145 56.0032 59.553 55.29 59.642 54.5732C59.7097 54.0473 59.9344 53.651 60.1996 53.3535C60.197 53.0581 60.2546 52.7339 60.4087 52.4052C60.685 51.8092 61.2181 51.3632 61.8719 51.18C62.6824 50.9526 63.5318 51.1911 64.2008 51.836C64.5156 52.1396 64.7427 52.4778 64.879 52.6797L64.913 52.7288C65.0178 52.8732 65.0974 52.9988 65.1602 53.1081C65.593 53.368 67.2917 54.1488 68.5477 54.7251C72.1902 56.3981 73.8367 57.1881 74.5775 57.8318C74.7397 57.9448 74.8996 58.0827 75.057 58.2345C75.414 58.5787 75.9082 59.1744 76.1252 59.7144L76.1976 59.8981C76.5628 60.8413 76.7481 61.3129 77.2598 62.1099C77.5696 62.593 77.8406 63.0658 78.0947 63.5223C78.3715 64.0115 78.6512 64.509 78.952 64.9508C79.23 65.3544 79.5002 65.783 79.6938 66.2517C80.0922 66.446 80.4825 66.6487 80.8644 66.8433C81.4386 67.1366 82.0323 67.4378 82.6145 67.7115C83.0127 67.8948 83.4463 68.1989 83.9973 68.5837C84.126 68.6752 84.3777 68.8474 84.6377 69.0221C85.2344 68.4313 86.0328 67.6932 86.9825 67.0793C87.3101 66.869 87.7196 66.613 88.1958 66.3778C88.1951 66.3392 88.1917 66.3033 88.191 66.2647C88.0923 63.8917 88.8956 62.2146 89.6723 60.5932L89.6909 60.557C89.7627 60.4038 89.8372 60.2533 89.9116 60.0918C89.9352 60.0223 89.9767 59.878 90.0053 59.7808C90.0909 59.4782 90.1976 59.1201 90.335 58.7807C90.5732 57.4646 91.1397 55.825 91.423 55.008C91.4755 54.8579 91.5149 54.7495 91.5332 54.6911C91.6893 54.1691 91.8787 53.6521 92.0629 53.1571C92.2523 52.6401 92.4312 52.1563 92.5476 51.7261C92.5735 51.6318 92.5992 51.5264 92.6248 51.4155C92.7378 50.955 92.8844 50.3641 93.1578 49.7599C93.1095 49.5343 93.0685 49.2562 93.0726 48.875C93.0737 48.4856 93.1462 47.9155 93.272 46.9467C93.381 46.1135 93.5113 45.0838 93.5191 44.6032C93.523 44.3629 93.5353 44.1307 93.5481 43.9261C93.5671 43.6027 93.5902 43.2074 93.5505 43.001C93.5304 42.9544 93.5101 42.9023 93.4843 42.8503C93.2509 42.3217 92.862 41.4423 93.1753 40.4535C93.4128 39.7009 93.9548 39.1387 94.6548 38.9077C95.1735 38.7353 95.6382 38.7765 96.0242 38.8937C96.2652 38.7843 96.5455 38.7074 96.8655 38.6905C97.4835 38.6626 98.0786 38.8892 98.5368 39.331C98.593 39.3852 98.6521 39.4421 98.7058 39.5101C99.4481 40.3885 99.4135 41.5158 98.5958 42.859L98.5637 42.9148C98.4701 43.0795 98.3868 43.2052 98.3195 43.3031C98.2425 43.9231 98.2749 45.5435 98.2967 46.736C98.3124 47.5918 98.3322 48.3701 98.3188 48.9972C99.2379 50.6317 98.0379 52.9622 97.2859 54.423C97.2458 54.4983 97.2138 54.5596 97.1952 54.6014C97.0062 54.9887 96.8062 55.3762 96.6141 55.7442C96.2487 56.4495 95.8727 57.1771 95.5818 57.8839C95.5403 58.0282 95.4565 58.4301 95.4035 58.699C95.3602 58.9014 95.3173 59.1203 95.2688 59.3393C95.2922 59.4107 95.3101 59.4822 95.3253 59.5564C95.4041 59.9416 95.4031 60.342 95.3499 60.7517C96.3617 60.6641 97.5545 60.9571 98.8773 62.0154C99.4435 62.0244 99.945 62.1174 100.389 62.2528C100.565 61.8686 100.885 61.4402 101.484 61.1062L101.511 61.0891C102.998 60.2279 104.062 61.0369 104.377 61.3349C105.343 60.7208 106.52 60.7765 107.319 61.5462C108.117 62.3158 108.216 63.4904 107.637 64.4785C107.947 64.7821 108.791 65.8133 107.985 67.3357L107.975 67.358C107.663 67.9685 107.244 68.3075 106.866 68.4967C107.02 68.9329 107.132 69.4307 107.158 69.9991C108.264 71.2822 108.601 72.4635 108.55 73.4779C108.955 73.407 109.35 73.3915 109.732 73.4563C109.809 73.4714 109.887 73.4866 109.962 73.5045C110.176 73.4509 110.385 73.3974 110.586 73.3467C110.85 73.2812 111.257 73.1798 111.405 73.1329C112.106 72.8164 112.819 72.4139 113.511 72.023C113.877 71.8175 114.252 71.6035 114.634 71.3977C114.667 71.3805 114.809 71.3006 114.809 71.3006C116.236 70.4958 118.524 69.2085 120.194 70.0699C120.82 70.0391 121.598 70.0249 122.454 70.0092C123.65 69.9901 125.27 69.9632 125.881 69.8637C125.979 69.7901 126.105 69.7049 126.263 69.6026L126.312 69.5686C127.627 68.7051 128.75 68.6265 129.652 69.3335C129.719 69.3875 129.784 69.4443 129.843 69.5012C130.298 69.9403 130.546 70.5267 130.541 71.1453C130.539 71.4685 130.472 71.7513 130.369 71.9935C130.503 72.3776 130.556 72.8406 130.405 73.3625C130.2 74.0704 129.66 74.6298 128.917 74.8947C127.935 75.244 127.042 74.8876 126.511 74.6736C126.455 74.6525 126.402 74.6286 126.358 74.6129C126.144 74.5809 125.75 74.6185 125.428 74.6492C125.215 74.6669 124.987 74.6904 124.758 74.7029C124.278 74.7283 123.251 74.8989 122.428 75.0383C121.453 75.1997 120.891 75.2928 120.505 75.3109C120.121 75.3262 119.842 75.2954 119.615 75.2554C119.021 75.5507 118.439 75.716 117.988 75.8457L117.95 75.8575C117.853 75.8841 117.76 75.9134 117.669 75.9399C117.241 76.0748 116.761 76.2686 116.252 76.4767C115.791 76.6674 115.265 76.8814 114.738 77.0622C114.683 77.0798 114.584 77.1203 114.453 77.1724L114.425 77.1839C113.622 77.4941 112.007 78.1229 110.701 78.4036C110.372 78.5532 110.026 78.6645 109.716 78.7668C109.614 78.799 109.471 78.8458 109.403 78.8719C109.239 78.9578 109.072 79.0464 108.911 79.1295C107.319 79.9649 105.675 80.8262 103.303 80.8171C103.264 80.8178 103.228 80.8157 103.189 80.8164C102.966 81.301 102.728 81.7223 102.533 82.0545C101.954 83.0261 101.243 83.8482 100.674 84.4716C100.858 84.7251 101.042 84.973 101.139 85.0983C101.543 85.6348 101.86 86.0598 102.058 86.4456C102.347 87.0119 102.67 87.5942 102.984 88.1518C103.195 88.5345 103.412 88.9227 103.624 89.3164C104.183 89.5244 104.644 89.8169 104.945 90.0047C105.403 90.2946 105.914 90.5586 106.407 90.8119C106.873 91.0547 107.355 91.3027 107.849 91.5946C108.662 92.0796 109.139 92.2421 110.093 92.5753L110.276 92.6382C110.832 92.8324 111.445 93.3044 111.805 93.6513C111.965 93.8058 112.106 93.9634 112.225 94.1214C112.856 94.8057 113.685 96.3425 115.548 100.031C116.167 101.262 117.012 102.934 117.287 103.357C117.393 103.416 117.525 103.493 117.684 103.598L117.717 103.62C117.93 103.754 118.276 103.968 118.591 104.272C119.26 104.917 119.532 105.754 119.334 106.567C119.173 107.23 118.746 107.779 118.161 108.077C117.832 108.243 117.513 108.309 117.218 108.318C116.93 108.594 116.543 108.833 116.02 108.919C115.306 109.035 114.584 108.799 114.033 108.268L113.969 108.206C113.248 107.462 113.2 106.5 113.17 105.929C113.17 105.901 113.167 105.876 113.166 105.849C112.662 104.734 109.875 99.7093 108.863 97.9522C107.848 97.7278 107.115 97.3463 106.462 97.0103C106.145 96.8449 105.852 96.6929 105.524 96.5553C103.862 95.8594 102.079 94.8289 100.759 93.8009C100.485 93.7369 100.138 93.6356 99.7995 93.407C99.643 93.305 99.4944 93.1834 99.3567 93.0506C98.9631 92.6712 98.7208 92.2532 98.5413 91.9499L98.4672 91.8243C98.2222 91.4145 97.9799 91.002 97.7376 90.5894C97.3833 91.4464 96.9936 92.3345 96.5576 93.2592C96.6676 93.989 96.8567 94.8112 97.1103 95.6958C97.417 96.7616 97.3378 97.7157 96.8781 98.547C96.6416 99.8106 96.1589 101.048 95.7262 102.15C95.6417 102.361 95.5626 102.567 95.4862 102.77C95.3623 103.09 95.2584 103.451 95.1467 103.831C94.9854 104.375 94.8061 104.989 94.5439 105.598C94.4272 105.86 94.2535 106.181 94.0411 106.497C94.3336 107.69 94.6561 109.622 95.1502 112.778C95.3473 114.042 95.5507 115.35 95.6499 115.793C95.7261 115.882 95.8223 116.008 95.9328 116.163L95.964 116.204C96.9067 117.471 97.046 118.592 96.3866 119.535C95.9937 120.094 95.3927 120.448 94.7394 120.512C94.3673 120.549 94.0376 120.492 93.7568 120.389C92.474 120.91 91.5568 120.134 91.3544 119.939C91.1211 119.714 90.9338 119.436 90.7954 119.118C90.3939 118.15 90.6975 117.239 90.8781 116.697C90.8834 116.681 90.8913 116.661 90.8965 116.644C90.8076 115.707 90.1897 112.421 89.9172 110.966C89.6143 109.35 89.5161 108.811 89.4862 108.538C89.4766 108.463 89.427 108.318 89.3604 108.151C89.256 107.877 89.1311 107.539 89.0486 107.107L89.0428 107.091C89.0191 107.003 88.9981 106.912 88.9854 106.824C88.98 106.829 87.2713 109.733 87.2713 109.733C86.1624 111.609 85.0563 113.487 83.953 115.369C81.6395 119.321 79.6525 121.804 78.0459 122.739C75.4092 124.276 73.6324 123.002 72.9887 122.382L72.9749 122.385Z" fill="white"/>
<path d="M117.526 106.13C117.564 105.961 117.489 105.78 117.295 105.593C117.121 105.425 116.886 105.281 116.733 105.181C116.699 105.16 116.671 105.144 116.649 105.128C116.467 105.007 116.344 104.943 116.25 104.895C116.149 104.841 116.094 104.815 116.026 104.75C115.964 104.69 115.888 104.595 115.783 104.445C115.463 103.989 114.692 102.465 113.878 100.851C112.615 98.3475 111.3 95.7565 110.794 95.3073C110.723 95.2009 110.625 95.084 110.504 94.9675C110.211 94.6856 109.826 94.4276 109.651 94.3673L109.473 94.3043C108.469 93.9553 107.864 93.7455 106.892 93.1668C106.445 92.8989 105.988 92.6642 105.545 92.4376C105.015 92.1656 104.469 91.8829 103.949 91.55C103.566 91.3112 102.946 90.9194 102.355 90.886C102.039 90.2622 101.694 89.6417 101.357 89.0403C101.035 88.4636 100.703 87.8676 100.397 87.2685C100.271 87.0223 99.9821 86.6354 99.6454 86.1915C99.1783 85.5676 98.3039 84.41 98.4065 84.1348L98.4486 84.018C98.7177 83.7839 98.9894 83.5415 99.2358 83.2746C99.7557 82.7128 100.416 81.9551 100.933 81.0924C101.265 80.534 101.719 79.7084 101.919 78.8211C102.346 78.9292 102.788 78.9543 103.296 78.956C105.213 78.9651 106.52 78.2785 108.038 77.4803C108.216 77.3859 108.402 77.2886 108.588 77.1913C108.692 77.1397 108.9 77.0696 109.123 76.9965C109.455 76.8882 109.828 76.7654 110.091 76.6226C111.263 76.4023 112.939 75.7558 113.745 75.4429C113.934 75.3704 114.065 75.3183 114.131 75.295C114.598 75.1373 115.075 74.9408 115.538 74.7528C116.086 74.5274 116.604 74.3163 117.109 74.158C117.219 74.1228 117.337 74.0903 117.461 74.0521C117.991 73.9016 118.59 73.7305 119.128 73.3865C119.153 73.3833 119.18 73.3773 119.21 73.374C119.502 73.3355 119.627 73.3581 119.788 73.3938C119.938 73.4242 120.104 73.4598 120.413 73.4486C120.705 73.4377 121.355 73.3264 122.109 73.2022C123.026 73.0501 124.061 72.8765 124.646 72.8437C124.842 72.8319 125.043 72.8144 125.239 72.797C125.76 72.746 126.298 72.6948 126.777 72.8047C126.88 72.8277 127.025 72.8858 127.178 72.9465C127.542 73.0918 127.956 73.2581 128.277 73.1446C128.461 73.0777 128.575 72.9762 128.611 72.8375C128.682 72.5904 128.492 72.3481 128.308 72.1112C128.243 72.0268 128.175 71.9397 128.13 71.8632C128.165 71.8156 128.246 71.7423 128.298 71.6889C128.471 71.5256 128.67 71.3425 128.674 71.1132C128.675 71.0276 128.651 70.8955 128.491 70.7686C128.174 70.5231 127.631 70.8782 127.307 71.0913C127.274 71.114 127.244 71.1338 127.219 71.1481C127.036 71.2647 126.927 71.3495 126.843 71.4145C126.688 71.5361 126.636 71.5785 126.24 71.652C125.513 71.7868 123.89 71.811 122.457 71.8344C121.284 71.8531 120.171 71.8707 119.585 71.945C119.553 71.8931 119.519 71.844 119.477 71.8034C118.873 71.2207 117.222 72.0269 115.686 72.8889C115.601 72.9374 115.53 72.9774 115.484 73.0031C115.117 73.1976 114.751 73.4086 114.396 73.6084C113.655 74.0279 112.887 74.4589 112.098 74.8158C111.94 74.8849 111.494 74.998 111.024 75.1143C110.65 75.2095 110.227 75.3112 109.859 75.4173C109.703 75.3373 109.536 75.2741 109.417 75.2514C108.802 75.1522 107.758 75.5772 106.996 75.8894C106.815 75.9645 106.653 76.031 106.516 76.0832C105.498 76.4636 104.411 76.8204 103.338 76.8704C102.657 76.9022 102.22 76.7086 101.768 76.4959C101.755 76.3912 101.748 76.2919 101.746 76.2036C101.769 76.2253 101.791 76.247 101.814 76.2686C102.674 77.0979 104.408 76.6437 105.763 75.2382C107.752 73.1749 106.092 71.4656 105.288 70.6905C105.404 69.4899 105.026 68.7347 104.602 68.0769C104.688 67.9207 104.717 67.6938 104.745 67.4392C104.776 67.1708 104.817 66.8414 104.936 66.7177C105.153 66.4928 105.265 66.5681 105.472 66.7024C105.611 66.7937 105.768 66.8958 105.958 66.8454C106.103 66.8068 106.217 66.6943 106.324 66.4825L106.345 66.4434C106.428 66.29 106.577 66.0056 106.33 65.7671C106.243 65.6831 106.112 65.6165 105.931 65.5673C105.426 65.4275 104.982 65.4273 104.496 65.5715L105.873 63.7376C106.166 63.4285 106.233 63.0489 106.028 62.8511C105.823 62.6532 105.446 62.7347 105.148 63.0384L103.366 64.4821C103.492 63.991 103.475 63.5467 103.317 63.047C103.261 62.8686 103.19 62.7401 103.103 62.6561C102.856 62.4176 102.574 62.5801 102.427 62.6657L102.388 62.6885C102.186 62.8026 102.072 62.9207 102.039 63.0676C101.996 63.259 102.103 63.4117 102.2 63.548C102.341 63.7497 102.418 63.8615 102.204 64.0836C102.085 64.2073 101.754 64.2575 101.49 64.301C101.239 64.3415 101.014 64.3732 100.858 64.4672C100.185 64.0681 99.4165 63.7176 98.2209 63.8776C97.417 63.1025 95.6481 61.5056 93.6589 63.5689C92.3039 64.9744 91.9163 66.7267 92.7736 67.5533C92.7961 67.575 92.8186 67.5966 92.8411 67.6183C92.7389 67.6174 92.6394 67.6137 92.5482 67.6071C92.3191 67.1639 92.107 66.737 92.1166 66.052C92.1273 64.9776 92.4468 63.8755 92.7869 62.8476C92.8314 62.7114 92.8946 62.5446 92.963 62.3556C93.2471 61.5827 93.6364 60.5262 93.5093 59.9155C93.4851 59.8 93.4158 59.6356 93.3273 59.4798C93.4198 59.1025 93.5087 58.6784 93.5875 58.3042C93.6865 57.8301 93.7804 57.3783 93.8437 57.217C94.1688 56.4185 94.5714 55.6352 94.9635 54.8797C95.1529 54.5145 95.3476 54.1381 95.5286 53.7648C95.5525 53.7174 95.5899 53.6449 95.6352 53.5585C96.4433 51.9945 97.1831 50.3158 96.5787 49.7332C96.5365 49.6925 96.489 49.6575 96.4332 49.6309C96.4833 49.0446 96.4629 47.9293 96.4386 46.7562C96.4097 45.3235 96.3772 43.6976 96.4853 42.9666C96.5416 42.5707 96.582 42.5175 96.7005 42.3552C96.7598 42.2713 96.8433 42.1565 96.9531 41.9695C96.9664 41.9444 96.9852 41.9137 97.0094 41.8773C97.2104 41.545 97.5509 40.9893 97.2885 40.682C97.1615 40.5325 97.0258 40.5101 96.9374 40.5117C96.7112 40.5214 96.5299 40.7263 96.3758 40.9086C96.3245 40.9675 96.2514 41.049 96.2078 41.0829C96.1297 41.0401 96.0402 40.9755 95.9534 40.9136C95.71 40.7385 95.4609 40.5581 95.2166 40.6371C95.0794 40.6838 94.9793 40.7989 94.9219 40.9822C94.8202 41.3071 95.0016 41.7152 95.16 42.0741C95.2263 42.2248 95.2897 42.3672 95.3164 42.4689C95.4411 42.9471 95.4096 43.4861 95.3804 44.0058C95.3702 44.2021 95.3574 44.4066 95.3527 44.6028C95.344 45.1856 95.2085 46.2319 95.0872 47.1509C94.9907 47.9093 94.9032 48.5626 94.903 48.8553C94.9004 49.1619 94.9448 49.3295 94.9807 49.478C95.0195 49.6347 95.0494 49.7612 95.0188 50.0517C95.0166 50.0821 95.0116 50.1098 95.0093 50.1347C94.688 50.6873 94.5362 51.2949 94.4025 51.833C94.3716 51.9551 94.3434 52.0744 94.315 52.1826C94.1779 52.6904 93.9831 53.2131 93.7806 53.7664C93.607 54.239 93.4281 54.7227 93.2849 55.1976C93.2667 55.2614 93.2167 55.3976 93.1539 55.5866C92.8679 56.4064 92.2832 58.1044 92.1061 59.2895C91.9729 59.557 91.8638 59.9346 91.7678 60.2705C91.7029 60.4953 91.6405 60.7119 91.59 60.815C91.4995 61.0044 91.4118 61.191 91.324 61.3721C90.5819 62.9183 89.9436 64.2554 90.0228 66.1704C90.0459 66.6809 90.0843 67.1192 90.2081 67.5422C89.3286 67.7737 88.5201 68.2579 87.9743 68.6103C87.131 69.1587 86.398 69.8459 85.8556 70.386C85.5979 70.642 85.3656 70.9224 85.1415 71.1999L85.0263 71.2462C84.755 71.3589 83.5662 70.5273 82.9257 70.0834C82.4642 69.7632 82.0698 69.486 81.8191 69.3691C81.2092 69.0848 80.5987 68.7729 80.0078 68.4744C79.3974 68.1625 78.7646 67.8399 78.1297 67.5478C78.0811 67.0074 77.7314 66.4588 77.4051 65.9815C77.059 65.4742 76.7564 64.9385 76.4626 64.422C76.2172 63.9902 75.9632 63.5392 75.6817 63.0997C75.0679 62.15 74.8332 61.5495 74.4506 60.5569L74.3839 60.3841C74.3144 60.2087 74.0452 59.8353 73.7529 59.5534C73.632 59.4369 73.5116 59.3425 73.4026 59.2754C73.3942 59.2673 73.383 59.2565 73.3745 59.2483C72.8432 58.7361 70.2533 57.5464 67.7498 56.3965C66.1067 55.6423 64.5556 54.9279 64.0888 54.6244C63.9352 54.525 63.84 54.4549 63.7753 54.3926C63.7079 54.3276 63.6792 54.2729 63.6222 54.1745C63.5736 54.0843 63.5023 53.9613 63.3748 53.7841C63.3579 53.7624 63.3408 53.7351 63.3181 53.7023C63.2159 53.5496 63.0599 53.3232 62.8856 53.1552C62.6916 52.9682 62.5108 52.897 62.3405 52.9443C62.1646 52.9917 62.0865 53.0953 62.0492 53.1733C61.951 53.3877 62.0633 53.6425 62.164 53.8643C62.1985 53.9355 62.2417 54.0368 62.2538 54.0918C62.1829 54.1428 62.0873 54.1971 61.9916 54.2513C61.7319 54.3969 61.4669 54.5481 61.4356 54.7999C61.4187 54.9356 61.4764 55.0726 61.6058 55.1972L61.6282 55.2189C61.8809 55.4462 62.3284 55.4546 62.7233 55.4557C62.8891 55.4582 63.041 55.4582 63.1463 55.4783C63.7668 55.5885 71.6055 59.6093 72.3173 60.0243C72.3648 60.0538 72.4094 60.0806 72.4458 60.1048C72.457 60.1156 72.4682 60.121 72.4821 60.129C72.4973 60.3551 72.5483 60.5779 72.5902 60.7538C72.7874 61.5731 73.1157 62.1553 73.4638 62.7675C73.6492 63.0927 73.8377 63.4317 74.0188 63.8233C74.7634 65.4306 75.909 67.2184 76.9379 68.3677C76.9606 68.4004 76.9906 68.5324 77.0115 68.6176C77.0563 68.8018 77.1013 68.997 77.1976 69.1278C77.2429 69.1877 77.2937 69.2476 77.3527 69.3045C77.5635 69.5077 77.8368 69.6518 78.0794 69.7827C78.1296 69.8094 78.1798 69.8361 78.2245 69.8629C78.668 70.1061 79.117 70.3492 79.566 70.5867C79.8169 70.7202 80.0652 70.8565 80.3162 70.99C80.5505 71.1182 80.7736 71.2412 80.9969 71.3696C81.3039 71.5463 81.6275 71.7281 81.9677 71.9042L82.1461 71.9948C82.3524 72.1015 82.6088 72.2348 82.8846 72.3651C82.7585 72.4171 82.6325 72.4691 82.5119 72.521C82.2214 72.6423 81.9419 72.7579 81.7033 72.8479C80.0388 73.4886 78.2917 74.2938 76.3635 75.3093C76.3 75.3077 76.2363 75.3006 76.1728 75.299C76.0511 75.2902 75.9296 75.2869 75.8078 75.2726C74.9666 75.1775 74.0467 75.0066 73.0701 74.7593C72.371 74.5843 71.859 74.671 71.4156 75.0409C70.2292 75.2476 68.969 75.7953 67.854 76.2824C67.6403 76.3747 67.4321 76.4669 67.2294 76.5534C66.8457 76.7151 66.4368 76.8523 66.0443 76.9838C65.5338 77.1533 65.0068 77.3286 64.5113 77.5669C64.1966 77.719 63.6427 78.0853 63.299 78.47C62.4786 78.1508 59.7467 77.8059 56.3013 77.3968C54.8124 77.2196 53.5283 77.0664 53.0626 76.97C52.6718 76.8915 52.6213 76.8483 52.4671 76.7213C52.3886 76.6565 52.2764 76.5646 52.0948 76.4492C52.0724 76.4331 52.0445 76.417 52.0137 76.3927C51.6921 76.1694 51.1523 75.7954 50.831 76.0443C50.6839 76.1575 50.6475 76.2796 50.6435 76.3626C50.6285 76.5975 50.8281 76.7955 51.0052 76.9662C51.0615 77.0204 51.1402 77.0963 51.1714 77.1427C51.1258 77.2181 51.0529 77.305 50.9853 77.3863C50.7746 77.6442 50.483 78.003 50.7781 78.2876C50.8343 78.3418 50.9069 78.3846 50.9987 78.4188C51.3157 78.5401 51.7353 78.3805 52.1028 78.2412C52.2563 78.1832 52.4017 78.1281 52.509 78.1068C52.952 78.0186 56.6154 78.5674 58.8057 78.8946C59.9963 79.0716 60.8575 79.2022 61.0704 79.2177C61.3883 79.2367 61.6551 79.3257 61.9384 79.4199C62.1718 79.4985 62.4136 79.5797 62.6932 79.6215C62.7487 79.6315 62.7985 79.6417 62.8374 79.652C63.0315 79.6982 63.1699 79.7122 63.3628 79.5402C63.4879 79.5849 63.6402 79.6125 63.831 79.6228C64.6659 79.6738 65.7927 78.9269 66.7831 78.2709C67.2115 77.9897 67.618 77.7199 67.9245 77.5707C68.3487 77.3614 68.8427 77.1922 69.3669 77.0141C70.0118 76.7952 70.6759 76.5677 71.2472 76.2507L71.2529 76.2561C71.711 76.6979 72.4031 76.942 73.3569 76.9991C70.7475 78.5187 68.1792 80.1701 65.6901 81.7731C65.016 82.2079 64.3419 82.6427 63.6649 83.0748C62.7587 83.6548 61.8526 84.2347 60.9464 84.8146C59.074 86.0142 57.2043 87.2109 55.3318 88.405C53.3063 89.6902 49.769 92.1104 48.8185 93.8896C48.1964 95.0525 48.2635 96.0067 49.0141 96.7303C50.726 98.3807 55.6659 98.3649 58.6149 98.3551C59.1478 98.3536 59.6062 98.3508 59.9543 98.361C63.2697 98.4494 66.5706 97.7539 69.772 96.2898C70.2748 97.3603 70.8865 98.0422 71.2154 98.3593C71.3166 98.4569 71.4149 98.5462 71.5158 98.6272C71.5976 98.7223 71.6933 98.82 71.7945 98.9176C72.1234 99.2346 72.8244 99.8183 73.9154 100.284C72.572 103.534 71.995 106.861 72.2075 110.174C72.2304 110.521 72.2443 110.98 72.2624 111.512C72.3605 114.46 72.5253 119.397 74.2373 121.047C74.9878 121.771 75.9465 121.8 77.0832 121.139C78.8237 120.127 81.1156 116.5 82.3259 114.429C83.4479 112.512 84.581 110.599 85.7113 108.684C86.2576 107.757 86.804 106.831 87.3504 105.904C87.7602 105.209 88.1699 104.514 88.5852 103.818C90.0934 101.275 91.6498 98.6537 93.0675 95.9961C93.1595 96.9472 93.4288 97.6298 93.887 98.0716L93.8926 98.077C93.5968 98.6595 93.3937 99.3315 93.1985 99.984C93.0397 100.514 92.8887 101.014 92.695 101.446C92.5544 101.76 92.3024 102.174 92.0371 102.612C91.4177 103.626 90.7126 104.779 90.7941 105.612C90.8113 105.802 90.8445 105.953 90.8937 106.076C90.7289 106.276 90.748 106.413 90.8012 106.606C90.8102 106.647 90.8249 106.694 90.837 106.749C90.8918 107.029 90.979 107.265 91.066 107.495C91.1705 107.775 91.2692 108.038 91.2999 108.356C91.3203 108.565 91.4796 109.424 91.7029 110.61C92.1127 112.784 92.7951 116.425 92.7232 116.871C92.7058 116.979 92.656 117.126 92.6037 117.281C92.4779 117.654 92.3393 118.079 92.4666 118.391C92.5069 118.484 92.5524 118.555 92.6058 118.607C92.901 118.891 93.2433 118.587 93.4989 118.367C93.5777 118.296 93.6647 118.223 93.7356 118.172C93.7831 118.202 93.8618 118.277 93.918 118.332C94.0951 118.502 94.2947 118.695 94.5345 118.671C94.6199 118.661 94.7406 118.62 94.8483 118.469C95.0798 118.139 94.6891 117.616 94.4569 117.3C94.4342 117.267 94.4116 117.24 94.3974 117.215C94.2727 117.041 94.1768 116.932 94.1119 116.853C93.9793 116.704 93.937 116.652 93.8416 116.267C93.7282 115.806 93.5281 114.528 93.2967 113.052C92.7617 109.618 92.3171 106.901 91.9654 106.09C92.3343 105.73 92.6802 105.163 92.8235 104.845C93.0435 104.342 93.1994 103.809 93.3502 103.298C93.4672 102.901 93.5895 102.487 93.737 102.098C93.8133 101.895 93.8978 101.683 93.9849 101.464C94.4309 100.331 94.9294 99.0494 95.0954 97.8589C95.4488 97.4023 95.5167 96.8875 95.3162 96.1952C95.036 95.2201 94.8288 94.3043 94.7032 93.4782C94.6843 93.3515 94.6737 93.2274 94.6632 93.1033C94.6566 93.0427 94.6526 92.9793 94.646 92.9186C95.5877 90.9574 96.3284 89.182 96.9105 87.4924C96.9971 87.2451 97.0997 86.9643 97.2156 86.6584C97.2576 86.5417 97.3051 86.4193 97.3526 86.2969C97.4928 86.5677 97.6355 86.8192 97.7497 87.0214L97.8467 87.1964C98.0352 87.5354 98.2315 87.8493 98.4193 88.1552C98.5531 88.3709 98.6868 88.5866 98.8207 88.8133C98.9547 89.0401 99.0886 89.2668 99.217 89.4937C99.485 89.9527 99.753 90.4117 100.024 90.8624C100.052 90.9116 100.078 90.9581 100.109 91.01C100.246 91.2449 100.405 91.5126 100.613 91.7132C100.673 91.7701 100.734 91.8187 100.796 91.8617C100.927 91.9505 101.124 91.9883 101.31 92.0263C101.396 92.0441 101.529 92.0692 101.556 92.0853C102.748 93.0769 104.577 94.1563 106.21 94.8417C106.608 95.0084 106.951 95.1871 107.283 95.3605C107.907 95.686 108.498 95.99 109.327 96.1598C109.504 96.1953 109.732 96.2353 109.955 96.245C109.964 96.2531 109.97 96.2641 109.978 96.2777C110.004 96.3131 110.035 96.354 110.063 96.4032C110.507 97.0965 114.814 104.786 114.944 105.405C114.969 105.509 114.977 105.663 114.983 105.826C115.004 106.221 115.023 106.668 115.262 106.909L115.284 106.931C115.417 107.058 115.55 107.111 115.688 107.086C115.938 107.046 116.08 106.775 116.216 106.511C116.264 106.416 116.314 106.318 116.365 106.243C116.421 106.253 116.524 106.298 116.596 106.324C116.821 106.417 117.08 106.525 117.291 106.414C117.365 106.376 117.465 106.295 117.509 106.114L117.526 106.13Z" fill="#171F39"/>
</g>
<defs>
<clipPath id="clip0_9487_2938">
<rect width="120" height="120" fill="white" transform="translate(83.2866) rotate(43.9519)"/>
</clipPath>
</defs>
</svg>
