<svg width="126" height="126" viewBox="0 0 126 126" fill="none" xmlns="http://www.w3.org/2000/svg">
<g clip-path="url(#clip0_9487_2893)">
<path d="M44.4503 88.5873C30.1854 78.5154 26.7719 58.7152 36.8439 44.4502C46.9158 30.1853 66.716 26.7718 80.9833 36.8455C95.2507 46.9191 98.6617 66.7176 88.5881 80.985C78.5144 95.2523 58.7177 98.661 44.4503 88.5873ZM79.2436 39.3095C66.3374 30.1969 48.4221 33.2814 39.3079 46.19C30.1936 59.0985 33.2798 77.0115 46.1884 86.1257C59.0969 95.24 77.0098 92.1538 86.1241 79.2452C95.2383 66.3367 92.1521 48.4237 79.2436 39.3095Z" fill="#9A1D19"/>
<path d="M49.2338 81.8125C38.7055 74.3789 36.1874 59.7637 43.6211 49.2354C51.0547 38.7071 65.6699 36.1891 76.1982 43.6227C86.7264 51.0563 89.2445 65.6715 81.8109 76.1998C74.3772 86.7281 59.762 89.2461 49.2338 81.8125ZM75.3283 44.8547C65.4794 37.9008 51.807 40.2564 44.8531 50.1053C37.8991 59.9541 40.2548 73.6266 50.1036 80.5805C59.9525 87.5344 73.6249 85.1788 80.5788 75.3299C87.5328 65.4811 85.1772 51.8086 75.3283 44.8547Z" fill="#9A1D19"/>
<path d="M89.6576 26.652L87.6864 25.2602C87.5503 25.1641 87.3621 25.1965 87.266 25.3326L72.2181 46.6451C72.122 46.7812 72.1544 46.9694 72.2905 47.0655L74.2617 48.4573C74.3978 48.5533 74.586 48.5209 74.6821 48.3848L89.73 27.0723C89.8261 26.9362 89.7937 26.748 89.6576 26.652Z" fill="#9A1D19"/>
<path d="M53.1415 78.3698L51.1703 76.9781C51.0342 76.882 50.846 76.9144 50.7499 77.0505L35.7019 98.363C35.6059 98.4991 35.6383 98.6873 35.7744 98.7834L37.7456 100.175C37.8817 100.271 38.0699 100.239 38.166 100.103L53.2139 78.7902C53.31 78.6541 53.2776 78.4659 53.1415 78.3698Z" fill="#9A1D19"/>
<path d="M48.3831 50.7516L27.0706 35.7036C26.9345 35.6076 26.7463 35.64 26.6502 35.7761L25.2584 37.7473C25.1624 37.8834 25.1948 38.0716 25.3309 38.1677L46.6434 53.2156C46.7795 53.3117 46.9677 53.2793 47.0638 53.1432L48.4556 51.172C48.5516 51.0359 48.5192 50.8477 48.3831 50.7516Z" fill="#9A1D19"/>
<path d="M100.101 87.2677L78.7886 72.2198C78.6525 72.1237 78.4643 72.1561 78.3682 72.2922L76.9764 74.2634C76.8803 74.3995 76.9127 74.5877 77.0488 74.6838L98.3613 89.7317C98.4974 89.8278 98.6856 89.7954 98.7817 89.6593L100.174 87.6881C100.27 87.552 100.237 87.3638 100.101 87.2677Z" fill="#9A1D19"/>
<path d="M101.821 53.1751C102.186 52.4861 101.98 51.6243 101.344 51.175C101.299 51.1429 101.249 51.1115 101.208 51.0892C97.2628 48.8776 92.0856 47.7818 85.8185 47.8235C80.954 47.859 76.7543 48.5825 74.4196 49.0814C74.3971 49.0727 74.377 49.0656 74.3545 49.0569C74.0349 48.946 73.6836 48.8951 73.3242 48.9066C73.076 48.6489 72.9177 48.5228 72.8005 48.44C72.6832 48.3573 72.5114 48.2503 72.1855 48.1026C72.0761 47.7601 71.9106 47.4461 71.6991 47.182C71.6833 47.1637 71.67 47.1471 71.6542 47.1288C71.3447 44.7594 70.6212 40.5598 69.025 35.9662C66.9688 30.0441 64.1996 25.5329 60.8001 22.5591C60.758 22.5222 60.7143 22.4877 60.6688 22.4556C60.0325 22.0063 59.1533 22.0989 58.6278 22.6707C58.442 22.8729 58.3085 23.1228 58.2494 23.3894C58.1301 23.9289 58.3058 24.4975 58.7109 24.8731C61.4185 27.3799 63.6312 31.1003 65.29 35.9352C66.4572 39.344 67.3886 43.5793 67.7903 47.2398C67.3697 47.4089 66.9924 47.6946 66.712 48.0917C66.6867 48.1276 66.6613 48.1635 66.6384 48.201L63.6321 46.7165C64.6906 42.7498 64.5168 38.924 64.4642 38.1304C64.447 37.8602 64.3636 37.6077 64.2208 37.3886C64.1955 37.3026 64.162 37.218 64.1227 37.1365L63.2584 35.2787C63.0986 34.9365 62.8581 34.6627 62.5623 34.4825C62.1067 34.2038 61.5383 34.161 61.0509 34.3689C60.8685 34.4445 60.7237 34.543 60.6061 34.6536C60.2867 34.6897 60.0046 34.8455 59.7651 35.1137C59.2481 35.6986 59.2114 36.5223 59.6754 37.2156L60.5558 38.5327C60.5557 38.5684 60.5555 38.6042 60.5595 38.6392C60.5655 38.8693 60.6402 42.998 59.2763 46.8387C59.1638 46.7593 59.0413 46.6943 58.9184 46.6398C58.8175 46.5542 58.7099 46.4782 58.5955 46.4118C57.7065 45.8988 56.5884 46.0558 55.8724 46.7906C52.4861 50.2716 47.7357 52.3844 47.5129 52.4816C47.4579 52.5037 47.4012 52.5282 47.3509 52.5537L45.4868 52.2592C44.6357 52.1242 43.8786 52.511 43.5559 53.2474C43.3861 53.6402 43.4005 53.9802 43.5114 54.27C43.4419 54.4396 43.4082 54.6345 43.4135 54.8605C43.4325 55.3973 43.6949 55.8837 44.135 56.1944C44.1446 56.2012 44.1614 56.213 44.1709 56.2198C44.4726 56.4221 44.8289 56.5267 45.2238 56.5259L47.5848 56.533C47.5848 56.533 47.6205 56.5332 47.6351 56.5328C47.2815 56.6021 46.9538 56.7615 46.6821 56.989C45.79 57.3487 45.1892 58.2149 45.1864 59.1988C45.1782 64.9933 41.5063 73.5854 41.3974 73.8311C41.3577 73.9178 41.3244 74.0055 41.2946 74.0883L39.428 75.4017C38.6935 75.9191 38.4063 76.7523 38.6975 77.5279C38.7946 77.7865 38.976 78.0221 39.2008 78.1809C39.2846 78.24 39.371 78.2902 39.4594 78.3275C39.5238 78.5308 39.6437 78.7265 39.8329 78.9104C39.8962 78.973 39.9646 79.0285 40.0364 79.0791C40.4239 79.3528 40.8957 79.4564 41.366 79.3691C41.7408 79.3003 42.0819 79.1217 42.3806 78.8307L44.3681 76.9145C44.4582 76.8275 44.5387 76.7338 44.6104 76.6374C44.7725 76.5296 44.9151 76.3937 45.0316 76.2286C45.515 76.4731 46.0981 76.4546 46.5673 76.1658C46.5748 76.1603 46.5822 76.1548 46.5921 76.151L50.9506 73.3493C50.9306 73.8549 50.999 74.4231 51.2184 75.0009L49.3029 78.2622C49.3029 78.2622 49.2944 78.2741 49.2894 78.2813C48.5098 79.6595 48.5693 80.8953 49.4353 81.5068C50.3013 82.1182 51.4875 81.7584 52.5237 80.5649C52.5287 80.5578 52.5321 80.553 52.5372 80.5458L54.9694 77.6494C55.5873 77.6627 56.1456 77.5371 56.6154 77.349L55.4338 82.3938C55.4338 82.3938 55.4284 82.4116 55.4282 82.4221C55.3113 82.9634 55.489 83.519 55.8828 83.8903C55.768 84.053 55.6835 84.2335 55.6386 84.424C55.5677 84.5245 55.5087 84.6334 55.4586 84.745L54.3162 87.2616C54.146 87.6397 54.0896 88.0193 54.1502 88.3955C54.2253 88.8679 54.4832 89.2795 54.8707 89.5531C54.9425 89.6038 55.0176 89.6496 55.1002 89.69C55.3368 89.8069 55.5614 89.8543 55.7721 89.8454C55.8385 89.9138 55.9107 89.9791 55.9968 90.0399C56.2241 90.2003 56.5068 90.2924 56.7829 90.2974C57.6088 90.3106 58.2979 89.7611 58.5421 88.8974L59.1551 86.699C59.2256 86.6448 59.2947 86.5825 59.3631 86.5161C59.5081 86.3818 66.3966 80.0071 71.8862 78.0506C72.8124 77.7187 73.4276 76.8625 73.4663 75.904C73.5915 75.5694 73.632 75.2073 73.5773 74.8532C73.5826 74.8712 73.5894 74.8868 73.5947 74.9048L74.3915 77.1272C74.5246 77.4972 74.7424 77.798 75.0323 78.017C75.0418 78.0238 75.0586 78.0356 75.0682 78.0424C75.5083 78.3531 76.0545 78.4377 76.565 78.2783C76.7804 78.2117 76.9521 78.1107 77.0887 77.9884C77.3988 77.9959 77.7241 77.8958 78.0374 77.6043C78.6216 77.0561 78.7328 76.2133 78.3208 75.4564L77.4195 73.7983C77.4259 73.7383 77.4307 73.6808 77.4324 73.6175C77.452 73.3409 77.8259 68.242 79.9962 63.8379C80.4491 62.9172 80.2228 61.8111 79.4419 61.145C79.341 61.0594 79.2334 60.9834 79.119 60.917C79.0258 60.8154 78.9242 60.7257 78.8094 60.6446C81.9722 58.0741 85.8919 56.7621 86.1067 56.6915C86.1427 56.6811 86.1747 56.6714 86.2083 56.6593L87.7441 57.0482C88.5527 57.2535 89.319 56.9449 89.6948 56.2603C89.8691 55.9424 89.9198 55.6269 89.8486 55.3114C89.9135 55.1636 89.9579 54.9942 89.968 54.797C89.9985 54.2665 89.7686 53.7492 89.3535 53.4131C89.0799 53.1913 88.7439 53.058 88.3702 53.0236L86.3303 52.8308C86.2404 52.8211 86.1478 52.8203 86.06 52.8228C85.8057 52.7615 85.5358 52.7681 85.2713 52.8431C84.514 53.0576 80.8489 54.1766 77.471 56.4984L75.066 54.1622C75.0913 54.1263 75.119 54.0921 75.1444 54.0562C75.4231 53.6615 75.5701 53.2096 75.5863 52.7551C79.1701 51.9086 83.473 51.369 87.0758 51.3282C92.1871 51.2734 96.4335 52.1135 99.7018 53.826C100.191 54.0821 100.784 54.0598 101.25 53.7651C101.483 53.6178 101.675 53.4125 101.802 53.1721L101.821 53.1751ZM62.5678 51.2347C62.448 51.3079 62.3306 51.3828 62.2149 51.4552L61.9133 50.9483L62.5654 51.233L62.5678 51.2347ZM48.7171 56.422C49.5151 56.1143 53.3045 54.5705 56.8089 51.7752L58.3637 54.1527C57.2258 55.0485 56.2349 55.9441 55.4047 56.8205L48.4037 56.5054C48.5098 56.4871 48.6121 56.459 48.7147 56.4203L48.7171 56.422ZM46.9488 71.7211C47.9994 68.9282 49.1809 65.224 49.6148 61.7663L52.0645 61.7645C50.7339 64.6034 50.3484 67.1955 50.2613 68.8726L46.9464 71.7194L46.9488 71.7211ZM75.0003 64.623C73.5405 68.8584 73.3545 72.95 73.3289 73.8138C73.3261 73.9194 73.3331 74.0211 73.3483 74.1215L70.7116 67.6354C71.2613 66.5573 71.7721 65.3262 72.2354 63.9542L74.9962 64.6237L75.0003 64.623ZM74.0713 59.5362L73.4927 59.4216C73.5222 59.2883 73.5535 59.1527 73.5824 59.0153L74.0689 59.5345L74.0713 59.5362ZM67.1739 72.4327L67.992 74.7418C64.8812 76.3094 61.7842 78.6648 59.504 80.5894L61.079 76.5106C62.6278 75.8656 64.9439 74.6365 67.1739 72.4327Z" fill="white"/>
<path d="M68.4785 68.7114C72.1306 63.346 73.1433 53.3567 73.5037 51.2774C73.5037 51.2774 72.452 49.8932 71.9975 49.5723C71.5429 49.2513 69.8866 48.7235 69.8866 48.7235C68.0461 49.7614 58.9716 54.0585 55.1394 59.2931C50.996 64.9533 51.4845 71.0699 51.8957 71.7975C52.0067 71.9906 52.25 72.2198 52.5478 72.4479C52.3239 72.9172 52.1337 74.0448 52.7979 75.0587L50.5027 78.9695C50.1453 79.6026 50.0293 80.234 50.2422 80.3844C50.4551 80.5347 51.013 80.2116 51.4883 79.6654L54.4055 76.1937C55.5816 76.4828 56.5821 75.9238 56.9495 75.5558C57.2665 75.7617 57.5615 75.9126 57.7806 75.9526C58.6022 76.099 64.5296 74.5125 68.4785 68.7114Z" fill="#171F39"/>
<path d="M70.3497 50.2408C70.2889 50.266 70.2226 50.2837 70.1566 50.2908C69.8984 50.3164 69.6352 50.1916 69.4395 49.9458C69.2602 49.7225 69.1449 49.4187 69.1114 49.0904C69.0491 48.4729 69.2946 47.9221 69.7046 47.7527C69.7654 47.7275 69.8317 47.7098 69.8977 47.7026C70.156 47.677 70.4191 47.8019 70.6148 48.0476C70.7941 48.271 70.9095 48.5747 70.9429 48.903C71.0052 49.5206 70.7597 50.0714 70.3497 50.2408Z" fill="#171F39"/>
<path d="M68.0904 50.3232C67.6263 49.9956 67.5159 49.3548 67.8436 48.8907C68.1713 48.4266 68.812 48.3162 69.2761 48.6439C69.7402 48.9716 69.8506 49.6123 69.5229 50.0764C69.1953 50.5405 68.5545 50.6509 68.0904 50.3232Z" fill="#171F39"/>
<path d="M69.5612 49.286C69.4272 49.1914 69.3386 49.0428 69.3251 48.8791L69.3247 48.8645C69.0628 44.808 67.9937 39.5542 66.6013 35.4845C64.8671 30.4314 62.5287 26.5184 59.6515 23.8559C59.6063 23.8133 59.5869 23.7494 59.5999 23.6904C59.6072 23.6597 59.6217 23.6341 59.6426 23.6095C59.7029 23.5445 59.7999 23.5341 59.8716 23.5848C59.8764 23.5881 59.8812 23.5915 59.886 23.5949C63.1052 26.4127 65.7392 30.7245 67.7179 36.4163C69.7229 42.1875 70.3131 47.3326 70.4476 48.7719C70.4533 48.8297 70.4509 48.889 70.4356 48.9463C70.3821 49.1845 70.1815 49.362 69.9396 49.3847C69.8052 49.3974 69.6729 49.3613 69.5629 49.2836L69.5612 49.286Z" fill="#171F39"/>
<path d="M60.9266 48.9897C60.6993 48.8292 60.6295 48.5219 60.7661 48.2777L61.1422 47.6435C61.2899 47.3785 61.6331 47.2731 61.9089 47.4105L67.6201 50.2277C67.6474 50.2398 67.6713 50.2567 67.6952 50.2736C67.8124 50.3563 67.8815 50.4768 67.8901 50.6119C67.8987 50.747 67.8415 50.8788 67.7307 50.9798L67.2114 51.5021C67.0074 51.6843 66.799 51.6089 66.6078 51.4989C66.575 51.4794 66.5494 51.4649 66.5221 51.4528L61.0194 49.0409C60.985 49.0238 60.957 49.0076 60.9306 48.989L60.9266 48.9897Z" fill="#171F39"/>
<path d="M60.6885 48.5957C60.411 48.3998 60.3028 48.0402 60.425 47.725C62.0724 43.432 61.9467 38.6292 61.9424 38.5796C61.9184 38.1718 62.0841 38.1097 62.4895 38.084C62.6579 38.0738 63.068 37.9906 63.0815 38.2152C63.0946 38.4252 63.4627 43.6106 61.6982 48.2117C61.5515 48.592 61.2331 48.8297 60.8486 48.6837C60.7924 48.6619 60.7371 48.6336 60.6868 48.5981L60.6885 48.5957Z" fill="#171F39"/>
<path d="M62.8681 37.7204L62.0038 35.8626C61.96 35.7672 61.9049 35.7031 61.841 35.6616C61.7634 35.614 61.6718 35.6067 61.5896 35.6419C61.4877 35.6846 61.5932 36.4187 61.5919 36.4357C61.5848 36.4307 60.8544 35.9724 60.8016 36.0319C60.7489 36.0914 60.6795 36.2252 60.8264 36.4437L61.9865 38.1769C62.0397 38.2539 62.1102 38.3216 62.1901 38.3709C62.3476 38.4677 62.5291 38.4848 62.6765 38.4132C62.9152 38.2985 63.0013 37.9937 62.8722 37.7197L62.8681 37.7204Z" fill="#171F39"/>
<path d="M58.5893 48.0708C58.3738 47.8327 58.0124 47.7962 57.7513 47.9883L57.0801 48.5073C56.7984 48.7135 56.7257 49.121 56.9193 49.4155L60.9369 55.5502C60.9565 55.5783 60.976 55.6065 60.9989 55.6298C61.1126 55.7531 61.258 55.8164 61.4118 55.8067C61.5657 55.797 61.7085 55.7114 61.8106 55.572L62.3363 54.9036C62.5163 54.6435 62.3997 54.4178 62.2508 54.2123C62.2257 54.1767 62.2045 54.1509 62.1866 54.1204L58.6647 48.1671C58.6413 48.1291 58.6194 48.0993 58.5917 48.0725L58.5893 48.0708Z" fill="#171F39"/>
<path d="M57.9011 47.6137C57.5627 47.4177 57.1361 47.4786 56.8629 47.7589C53.1716 51.5552 48.0877 53.7443 48.0367 53.7657C47.5975 53.936 47.6139 54.1411 47.7842 54.5804C47.8532 54.7618 47.9634 55.2303 48.2056 55.1361C48.4322 55.0487 54.0302 52.9285 57.9855 48.8599C58.3139 48.5217 58.4071 48.0749 58.069 47.7465C58.0183 47.6964 57.9626 47.6535 57.9001 47.6202L57.9011 47.6137Z" fill="#171F39"/>
<path d="M47.5878 55.1478L45.2269 55.1407C45.1091 55.1399 45.0147 55.1163 44.9388 55.0663C44.8527 55.0055 44.7991 54.9139 44.7945 54.8138C44.7914 54.6862 45.6071 54.4448 45.6244 54.4355C45.6148 54.4287 44.7843 53.8889 44.8223 53.8046C44.8603 53.7203 44.9672 53.5843 45.2673 53.6313L47.6388 54.0044C47.7447 54.0219 47.8485 54.0628 47.9387 54.1229C48.1167 54.2414 48.2215 54.423 48.2181 54.6106C48.214 54.916 47.9371 55.1507 47.5861 55.1502L47.5878 55.1478Z" fill="#171F39"/>
<path d="M52.1996 69.0367L45.6305 74.6799C45.5566 74.7388 45.5392 74.8448 45.589 74.9266C45.6443 75.0158 45.7605 75.0441 45.8497 74.9888L53.5847 70.0147L52.1972 69.0351L52.1996 69.0367Z" fill="#171F39"/>
<path d="M47.9272 57.8861C47.5551 57.946 47.2903 58.2753 47.3111 58.652L47.3911 59.6406C47.411 60.049 47.7645 60.381 48.1781 60.3791L56.7566 60.3741C56.7964 60.3735 56.8379 60.3706 56.8746 60.3642C57.0672 60.3353 57.2235 60.2306 57.3098 60.0728C57.4002 59.9144 57.407 59.722 57.3341 59.5307L57.0164 58.5895C56.8777 58.2477 56.582 58.2146 56.2866 58.2319C56.237 58.2363 56.1971 58.2368 56.1549 58.2357L48.0698 57.8721C48.0194 57.8723 47.9755 57.8736 47.9306 57.8813L47.9272 57.8861Z" fill="#171F39"/>
<path d="M47.3272 58.2333C46.8822 58.3457 46.5726 58.7436 46.5717 59.2018C46.5609 65.396 42.6928 74.3371 42.6652 74.3965C42.4365 74.8982 42.615 75.0565 43.1143 75.2836C43.3198 75.3785 43.7943 75.6813 43.9211 75.4052C44.0402 75.1451 48.4007 65.8418 48.4086 59.2047C48.4104 58.6539 48.1226 58.2034 47.5718 58.2016C47.4898 58.2011 47.4074 58.2111 47.3248 58.2316L47.3272 58.2333Z" fill="#171F39"/>
<path d="M43.4133 75.9213L41.4258 77.8375C41.3249 77.9348 41.2275 77.9915 41.1254 78.009C41.003 78.0301 40.8837 77.9961 40.7981 77.9141C40.692 77.8105 41.1792 76.9429 41.1855 76.9186C41.1709 76.9191 40.0347 77.1421 39.9967 77.0436C39.958 76.941 39.9382 76.7406 40.2289 76.5371L42.5261 74.9184C42.6312 74.8457 42.7504 74.7936 42.8729 74.7725C43.1194 74.728 43.3557 74.7944 43.505 74.9536C43.7492 75.212 43.7093 75.6391 43.4133 75.9213Z" fill="#171F39"/>
<path d="M71.9167 51.3471C71.9133 51.4128 71.9187 51.4812 71.9341 51.5458C71.9964 51.7978 72.2021 52.004 72.4992 52.1062C72.7697 52.2003 73.0945 52.2074 73.4151 52.1291C74.0178 51.9811 74.4547 51.5654 74.4772 51.1224C74.4805 51.0567 74.4751 50.9883 74.4597 50.9237C74.3974 50.6718 74.1917 50.4656 73.8946 50.3634C73.6241 50.2692 73.2993 50.2621 72.9787 50.3405C72.376 50.4884 71.9391 50.9041 71.9167 51.3471Z" fill="#171F39"/>
<path d="M72.5974 53.5054C73.0615 53.8331 73.7022 53.7227 74.0299 53.2586C74.3576 52.7945 74.2472 52.1537 73.7831 51.826C73.319 51.4983 72.6782 51.6087 72.3506 52.0728C72.0229 52.5369 72.1333 53.1777 72.5974 53.5054Z" fill="#171F39"/>
<path d="M73.0826 51.7724C73.2165 51.867 73.3863 51.9008 73.545 51.8587L73.5589 51.8542C77.4692 50.7434 82.7778 49.9927 87.0789 49.943C92.421 49.8862 96.8909 50.7803 100.363 52.6006C100.418 52.6289 100.485 52.6258 100.536 52.5939C100.562 52.5767 100.582 52.5545 100.598 52.5265C100.639 52.448 100.616 52.3531 100.545 52.3024C100.54 52.2991 100.535 52.2957 100.53 52.2923C96.7976 50.2017 91.8529 49.1625 85.8272 49.2026C79.7177 49.2445 74.6717 50.4101 73.2704 50.765C73.214 50.779 73.159 50.801 73.1101 50.8347C72.9035 50.9648 72.8034 51.2132 72.8629 51.4488C72.896 51.5797 72.9742 51.6923 73.0843 51.77L73.0826 51.7724Z" fill="#171F39"/>
<path d="M76.2489 59.8083C76.4762 59.9688 76.7892 59.9317 76.9736 59.7213L77.443 59.153C77.6433 58.9251 77.6277 58.5664 77.4059 58.3525L72.84 53.9134C72.8194 53.8917 72.7955 53.8748 72.7716 53.8579C72.6544 53.7751 72.5177 53.7504 72.3875 53.7875C72.2574 53.8246 72.1524 53.9226 72.0942 54.0608L71.7758 54.725C71.6723 54.9781 71.8132 55.1493 71.9808 55.2927C72.0102 55.3171 72.0324 55.3364 72.053 55.358L76.1672 59.7363C76.1949 59.763 76.2195 59.784 76.2458 59.8026L76.2489 59.8083Z" fill="#171F39"/>
<path d="M76.7022 59.9025C76.9797 60.0985 77.3548 60.0801 77.6109 59.8594C81.1051 56.8704 85.6731 55.3816 85.7213 55.3691C86.1136 55.2553 86.1167 55.0782 86.0053 54.6877C85.9584 54.5256 85.8996 54.1112 85.6835 54.1737C85.4812 54.2317 80.4716 55.6201 76.7263 58.8225C76.4169 59.0881 76.2995 59.4676 76.5657 59.7811C76.6051 59.8268 76.6503 59.8694 76.7005 59.9049L76.7022 59.9025Z" fill="#171F39"/>
<path d="M86.2188 54.2076L88.2587 54.4003C88.3632 54.4096 88.442 54.4402 88.5025 54.4865C88.5733 54.5436 88.6109 54.6275 88.6052 54.7168C88.599 54.8271 87.872 54.9734 87.8564 54.9803C87.8659 54.987 88.5398 55.5202 88.5014 55.5898C88.463 55.6595 88.3601 55.7697 88.1027 55.7027L86.0812 55.1895C85.9908 55.1651 85.9034 55.1213 85.8302 55.0625C85.6863 54.9465 85.6095 54.7811 85.6276 54.6183C85.6558 54.355 85.9142 54.1718 86.2157 54.2018L86.2188 54.2076Z" fill="#171F39"/>
<path d="M77.8995 61.705C78.196 61.8283 78.3513 62.1566 78.2577 62.4669L77.9932 63.2732C77.8932 63.6077 77.5335 63.8125 77.1912 63.7286L70.0657 61.9956C70.0327 61.9866 69.9996 61.9776 69.9699 61.9638C69.8181 61.8996 69.7074 61.7821 69.6651 61.6339C69.6228 61.4857 69.6556 61.3224 69.7528 61.1796L70.2068 60.4605C70.3916 60.2038 70.6434 60.2382 70.8868 60.3097C70.9288 60.3214 70.9601 60.3328 70.9949 60.3394L77.7835 61.6661C77.8272 61.6754 77.8626 61.6861 77.8971 61.7033L77.8995 61.705Z" fill="#171F39"/>
<path d="M78.5582 62.1988C78.8561 62.4521 78.9415 62.8745 78.7687 63.2257C76.4267 67.9746 76.065 73.498 76.0619 73.5532C76.0485 74.0241 75.852 74.0789 75.3787 74.0638C75.1847 74.0594 74.7063 74.1124 74.7141 73.8526C74.7206 73.6099 74.8452 67.6251 77.3556 62.5362C77.5643 62.1136 77.9542 61.8763 78.3768 62.085C78.441 62.116 78.5001 62.1541 78.5524 62.2019L78.5582 62.1988Z" fill="#171F39"/>
<path d="M74.912 74.4404L75.7089 76.6628C75.749 76.7736 75.8029 76.8546 75.8753 76.9094C75.9614 76.9702 76.0657 76.9901 76.1616 76.9609C76.2829 76.9211 76.2374 76.0717 76.2403 76.0522C76.2499 76.059 77.0365 76.661 77.1033 76.597C77.17 76.5329 77.2624 76.3867 77.1177 76.1196L75.9725 74.0098C75.9206 73.9157 75.8473 73.8317 75.7604 73.7668C75.5892 73.6387 75.383 73.6007 75.2074 73.6667C74.921 73.7728 74.7924 74.1122 74.9103 74.4428L74.912 74.4404Z" fill="#171F39"/>
<path d="M60.2806 74.7424L57.1612 82.8212C57.1279 82.9088 57.0363 82.9624 56.9426 82.9429C56.84 82.9206 56.7744 82.8206 56.7967 82.718L58.8955 73.7644L60.283 74.7441L60.2806 74.7424Z" fill="#171F39"/>
<path d="M72.2181 75.037C72.2861 75.4077 72.0644 75.7674 71.7024 75.8739L70.7442 76.1294C70.3526 76.2473 69.9215 76.0253 69.7849 75.6349L66.9188 67.5493C66.906 67.5116 66.8949 67.4715 66.8886 67.4347C66.8515 67.2436 66.8978 67.0612 67.0176 66.9271C67.1366 66.789 67.3157 66.7182 67.5203 66.7229L68.5136 66.7072C68.882 66.7236 69.0122 66.9911 69.0947 67.2753C69.1073 67.3236 69.1201 67.3613 69.1352 67.4007L72.1836 74.898C72.2002 74.9456 72.2137 74.9874 72.2214 75.0323L72.2181 75.037Z" fill="#171F39"/>
<path d="M72.0917 75.7186C72.1347 76.1755 71.8634 76.6005 71.4319 76.7547C65.596 78.836 58.4673 85.4749 58.4205 85.5207C58.0243 85.9042 57.8153 85.7889 57.4343 85.3944C57.2761 85.2325 56.8296 84.885 57.0498 84.6748C57.255 84.4755 64.5627 77.2532 70.8144 75.0246C71.3329 74.8386 71.8537 74.959 72.0397 75.4775C72.0677 75.5546 72.0858 75.6355 72.0941 75.7203L72.0917 75.7186Z" fill="#171F39"/>
<path d="M56.7309 85.3244L55.5903 87.8386C55.5324 87.9663 55.514 88.0787 55.5291 88.179C55.5502 88.3015 55.6223 88.4025 55.7281 88.4557C55.8612 88.5211 56.5159 87.7716 56.5366 87.7575C56.5411 87.7715 56.7111 88.9168 56.8166 88.9196C56.9262 88.9217 57.1217 88.8733 57.2162 88.5314L57.9728 85.8249C58.0086 85.7032 58.0154 85.5717 57.9943 85.4493C57.9538 85.202 57.8121 85.0016 57.6145 84.9159C57.2893 84.7723 56.9001 84.9528 56.7333 85.3261L56.7309 85.3244Z" fill="#171F39"/>
</g>
<defs>
<clipPath id="clip0_9487_2893">
<rect width="90" height="90" fill="white" transform="translate(51.9104) rotate(35.2245)"/>
</clipPath>
</defs>
</svg>
