<svg width="128" height="128" viewBox="0 0 128 128" fill="none" xmlns="http://www.w3.org/2000/svg">
<g clip-path="url(#clip0_9487_2883)">
<path d="M83.341 89.0778C69.5129 99.7416 49.586 97.1693 38.9204 83.3389C28.2547 69.5085 30.8307 49.5863 44.661 38.9206C58.4914 28.255 78.416 30.8291 89.0799 44.6572C99.7437 58.4852 97.1714 78.4121 83.341 89.0778ZM46.503 41.3092C33.9921 50.9572 31.6608 68.986 41.3107 81.4992C50.9606 94.0124 68.9876 96.3414 81.5008 86.6916C94.014 77.0417 96.343 59.0147 86.6931 46.5015C77.0432 33.9883 59.0162 31.6593 46.503 41.3092Z" fill="#9A1D19"/>
<path d="M78.2764 82.5104C68.0706 90.3809 53.3623 88.4807 45.4918 78.2749C37.6213 68.069 39.5215 53.3607 49.7274 45.4903C59.9332 37.6198 74.6415 39.52 82.512 49.7258C90.3824 59.9317 88.4822 74.64 78.2764 82.5104ZM50.6484 46.6845C41.1011 54.0471 39.3235 67.8066 46.6861 77.3539C54.0487 86.9011 67.8082 88.6787 77.3554 81.3162C86.9026 73.9536 88.6803 60.1941 81.3177 50.6468C73.9551 41.0996 60.1956 39.322 50.6484 46.6845Z" fill="#9A1D19"/>
<path d="M37.476 27.6277L35.5651 29.1013C35.4332 29.2031 35.4088 29.3925 35.5105 29.5244L51.4428 50.1842C51.5445 50.3161 51.7339 50.3405 51.8658 50.2388L53.7767 48.7652C53.9086 48.6635 53.9331 48.4741 53.8313 48.3422L37.899 27.6824C37.7973 27.5505 37.6079 27.526 37.476 27.6277Z" fill="#9A1D19"/>
<path d="M76.138 77.7618L74.2271 79.2354C74.0952 79.3371 74.0707 79.5265 74.1725 79.6584L90.1048 100.318C90.2065 100.45 90.3959 100.475 90.5278 100.373L92.4387 98.8993C92.5706 98.7975 92.5951 98.6081 92.4933 98.4762L76.561 77.8164C76.4593 77.6845 76.2699 77.66 76.138 77.7618Z" fill="#9A1D19"/>
<path d="M48.3438 74.171L27.684 90.1033C27.5521 90.205 27.5277 90.3944 27.6294 90.5263L29.103 92.4372C29.2047 92.5691 29.3941 92.5936 29.526 92.4918L50.1858 76.5595C50.3177 76.4578 50.3422 76.2684 50.2405 76.1365L48.7669 74.2256C48.6651 74.0937 48.4757 74.0693 48.3438 74.171Z" fill="#9A1D19"/>
<path d="M98.4777 35.5089L77.818 51.4412C77.686 51.5429 77.6616 51.7323 77.7633 51.8642L79.2369 53.7751C79.3386 53.907 79.528 53.9314 79.6599 53.8297L100.32 37.8974C100.452 37.7957 100.476 37.6063 100.374 37.4744L98.9008 35.5635C98.7991 35.4316 98.6096 35.4071 98.4777 35.5089Z" fill="#9A1D19"/>
<path d="M80.9425 84.4187C80.692 84.6119 80.4058 84.7586 80.0856 84.8613C79.9072 85.1431 79.6925 85.3827 79.4398 85.5776C77.2298 87.2819 74.0691 86.4538 70.0489 83.1157C69.0366 82.273 67.9517 81.2642 66.8002 80.0924C66.79 80.1558 66.7749 80.2081 66.7613 80.2481L66.6322 80.6657L66.5626 80.7194C66.9041 82.1165 67.2857 84.0595 67.3789 84.6312C67.6486 86.2612 67.6145 87.9146 67.5484 89.3154C67.5261 89.7948 67.3042 90.236 66.9401 90.5167C66.532 90.8315 66.0192 90.9051 65.5604 90.7561C65.0559 90.9602 64.508 90.902 64.086 90.5802C63.5653 90.183 63.3852 89.5083 63.6272 88.8631C64.0656 87.7004 64.1534 86.342 63.8935 84.8302C63.8135 84.3668 63.6181 83.4228 63.3767 82.544L62.6555 83.1001L61.8048 82.4766C61.5593 82.2925 61.0884 81.8161 61.3073 80.9779C61.0413 80.8391 60.4925 80.4488 60.5744 79.572C60.3896 79.4187 60.2044 79.188 60.1277 78.8441L59.9387 78.7716C59.6584 78.6623 58.8691 78.243 59.0939 77.0527C59.0329 76.9592 58.9776 76.8539 58.9262 76.7345C58.5913 76.6599 58.2007 76.4508 57.9756 75.9958C57.7458 76.9015 57.4658 77.9051 57.3265 78.3047C56.9576 79.3657 56.3489 80.3603 55.816 81.2373L55.6411 81.5237C55.5374 81.6961 55.4058 81.842 55.2505 81.9618C54.8447 82.2748 54.3157 82.3609 53.8407 82.191C53.6612 82.126 53.4965 82.0275 53.3578 81.9052C52.885 81.8149 52.4933 81.5179 52.2976 81.0771C52.0385 80.4966 52.1998 79.8138 52.6983 79.3813C53.3585 78.813 53.866 78.0038 54.2159 76.9758C54.2755 76.7893 54.4167 76.0037 54.511 75.4834C54.5623 75.1998 54.6146 74.908 54.6661 74.6391L54.3297 74.5434L54.0825 73.8872C53.9931 73.6418 53.8782 73.1091 54.2786 72.5637C54.2175 72.3742 54.1927 72.1455 54.2342 71.8731C53.921 71.5821 53.6826 71.1003 53.8288 70.4699C53.8387 70.4252 53.8554 70.3606 53.8732 70.2877C53.7715 70.2182 53.6701 70.1299 53.572 70.017C53.4833 69.9116 52.8075 69.0497 53.6709 68.088C53.7049 68.0506 53.739 68.0133 53.7777 67.9724C53.4936 67.7143 53.4132 67.4805 53.3766 67.3756L53.1708 66.7873L53.4556 66.2792L53.5787 66.0216L53.8384 65.8213C54.0402 65.6657 54.2442 65.5897 54.43 65.5574C54.4073 65.2162 54.5085 64.9495 54.6365 64.751L54.0115 64.7078L53.9793 64.6661L53.9631 64.6786L53.8519 64.731L53.3214 65.007L53.1083 64.9273C53.0702 64.9641 53.0302 64.9986 52.9861 65.0326L52.6522 65.2901L52.2309 65.3192C52.1402 65.3263 51.9814 65.3266 51.7952 65.2817C51.7812 65.2924 51.7673 65.3032 51.7493 65.3133C51.2798 65.6348 50.8335 65.8569 50.3459 66.0111C49.8343 66.1726 49.6043 66.2723 49.4304 66.4064C49.3492 66.469 49.2654 66.5521 49.1725 66.6571C49.0987 66.7436 49.0154 66.8226 48.9273 66.8905C48.387 67.3072 47.6901 67.3195 47.1394 66.9602C46.5799 66.9109 46.0961 66.5665 45.8825 66.0545C45.6501 65.4942 45.7878 64.848 46.2376 64.405C46.3284 64.3165 46.4227 64.2327 46.5247 64.154C47.0581 63.7427 47.6726 63.5276 48.1629 63.353C48.3465 63.289 48.5214 63.2281 48.6612 63.1647C48.7473 63.1278 48.8449 63.0673 48.9604 62.982L49.0587 62.5437L49.0458 62.0138L49.6046 61.5828C49.7461 61.4737 49.884 61.408 50.0065 61.3654L50.001 60.9555L50.5483 60.5334C50.808 60.3331 51.0615 60.2782 51.2391 60.2447C51.2278 60.1055 51.24 59.963 51.2737 59.8149L51.3014 59.6974L51.4905 59.252L51.7781 59.0303C52.0123 58.8497 52.2793 58.7547 52.5773 58.7431C52.4852 57.9044 52.6039 57.0177 52.9319 56.1435C52.7401 56.125 52.5566 56.1075 52.3899 56.0881C51.5833 55.9964 50.512 55.8685 49.27 55.7205C46.0333 55.3358 41.598 54.8066 37.5498 54.4005C34.6083 54.1061 32.088 53.8974 30.2586 53.803C29.5951 53.7674 28.5957 53.7135 28.2867 52.7277L28.0002 51.8096L28.7689 51.2095C29.1585 50.909 29.5925 50.8628 30.3611 50.8765C32.2529 50.9079 34.8331 51.0408 37.8216 51.262C42.7813 51.6271 48.7967 52.2247 52.7716 52.6652C52.8807 52.6772 52.9998 52.6926 53.1213 52.7062C53.4148 52.147 53.804 51.6397 54.2075 51.3286C54.611 51.0174 55.2004 50.7699 55.8159 50.6281C55.8313 50.509 55.8467 50.3899 55.8646 50.2836C56.151 48.358 57.1669 41.6095 58.3075 35.4638C58.8531 32.5172 59.3803 29.9879 59.8289 28.148C60.0105 27.4052 60.1655 26.9972 60.5551 26.6967L61.318 26.1084L62.1461 26.6162C63.0215 27.1615 62.8173 28.1436 62.6854 28.7926C62.3136 30.5882 61.8708 33.0783 61.4121 35.9985C60.7737 40.0188 60.16 44.4453 59.7095 47.6735C59.5375 48.9082 59.3895 49.9728 59.2727 50.7803C59.2497 50.9423 59.2199 51.1243 59.1885 51.3186C60.1174 51.2235 61.0051 51.334 61.7929 51.6362C61.8798 51.351 62.0395 51.1169 62.2738 50.9363L62.5613 50.7145L63.0424 50.6431L63.1631 50.6461C63.3149 50.6511 63.4558 50.6756 63.5876 50.7218C63.6651 50.5586 63.7804 50.3292 64.0424 50.1271L64.5874 49.7068L64.9848 49.8145C65.0571 49.707 65.1562 49.5861 65.2954 49.4788L65.8589 49.0443L66.3676 49.1956L66.817 49.2077C66.9307 49.1201 67.0098 49.0405 67.0674 48.9666C67.1624 48.8452 67.2635 48.6933 67.3761 48.5325C67.6702 48.0986 68.0361 47.5612 68.5695 47.1499C68.6715 47.0712 68.7766 47.0013 68.8829 46.9378C69.4257 46.6154 70.0862 46.6422 70.5709 47.0118C71.01 47.3462 71.2183 47.8993 71.1251 48.4593C71.3326 49.0833 71.1413 49.756 70.6033 50.1708C70.5152 50.2388 70.4176 50.2993 70.3152 50.3487C70.1883 50.4095 70.0907 50.47 70.0072 50.5344C69.8333 50.6685 69.6784 50.8656 69.3922 51.3193C69.1191 51.7518 68.7909 52.1269 68.3584 52.5012C68.3444 52.5119 68.3305 52.5226 68.3161 52.5375C68.3145 52.7273 68.2715 52.8825 68.2439 52.9666L68.1111 53.3649L67.7771 53.6225C67.7331 53.6564 67.6913 53.6886 67.6442 53.7139L67.6677 53.9361L67.266 54.3791L67.1847 54.4751L67.1684 54.4876L67.1988 54.527L67.0858 55.143C67.3104 55.0697 67.5935 55.0436 67.9183 55.1482C67.9991 54.9749 68.1244 54.7969 68.3262 54.6413L68.5882 54.4392L68.8686 54.3857L69.4302 54.2411L69.9486 54.592C70.0408 54.6541 70.2442 54.7931 70.422 55.1292C70.4692 55.104 70.5163 55.0788 70.561 55.0553C71.7013 54.4719 72.3671 55.3304 72.4375 55.4314L72.4501 55.4476C72.5361 55.5736 72.598 55.6922 72.6389 55.8124C72.7162 55.8119 72.7806 55.814 72.8264 55.8157C73.4733 55.8345 73.8786 56.1876 74.0805 56.5644C74.3544 56.5936 74.5693 56.6756 74.7371 56.7829C75.3577 56.5373 75.8388 56.7728 76.0611 56.9268L76.6335 57.3286L76.6418 57.6846C76.915 57.7032 77.2082 57.7285 77.4978 57.7492C78.025 57.7902 78.8206 57.8533 79.0203 57.8436C80.1011 57.7682 81.011 57.4807 81.7278 56.9908C82.2775 56.615 82.9789 56.6325 83.4763 57.0329C83.8546 57.3365 84.0382 57.7904 84.0054 58.2705C84.0902 58.4381 84.1419 58.6201 84.1591 58.8103C84.2027 59.3128 83.9831 59.8002 83.5773 60.1132C83.4219 60.233 83.2474 60.3232 83.0543 60.3797L82.7305 60.4777C81.7446 60.7721 80.628 61.1081 79.5104 61.1933C79.0885 61.2265 78.0467 61.2423 77.1123 61.2343C77.4952 61.5677 77.6 62.0009 77.5852 62.3415C77.6876 62.4215 77.7754 62.5017 77.8503 62.5845C79.0692 62.6689 79.2656 63.5566 79.2975 63.8426L79.3183 64.0374C79.6297 64.1966 79.808 64.4326 79.9088 64.6544C80.7776 64.798 81.0157 65.428 81.0805 65.7182C81.934 65.722 82.282 66.2931 82.3993 66.5651L82.8072 67.5448L82.0698 68.1135C82.8584 68.5704 83.7235 69.0016 84.1491 69.1985C85.547 69.8364 86.8813 70.0944 88.1172 69.9659C88.8028 69.8958 89.4095 70.2415 89.6613 70.8461C89.8653 71.336 89.7829 71.8765 89.459 72.3149C89.4866 72.7966 89.2827 73.2756 88.8769 73.5885C88.5128 73.8693 88.0316 73.9742 87.5581 73.8733C86.1865 73.5813 84.5787 73.194 83.0725 72.5213C82.5416 72.2835 80.7593 71.4206 79.4966 70.7376L79.4248 70.7931L78.9816 70.8131C78.9418 70.8142 78.8874 70.8155 78.8275 70.8099C79.6683 72.2213 80.3705 73.5252 80.926 74.7202C83.1328 79.4568 83.1326 82.7223 80.9203 84.4284L80.9425 84.4187Z" fill="white"/>
<path d="M61.1923 28.4723C60.7325 30.3505 60.2002 32.9355 59.6851 35.7106C58.6548 41.2609 57.6815 47.566 57.2491 50.4771C57.1965 50.8357 57.135 51.3602 57.084 51.8839C56.3687 51.8291 55.4467 52.1296 55.0687 52.4211C54.6907 52.7126 54.168 53.5262 54.0369 54.2338C53.5174 54.15 52.9945 54.0761 52.6343 54.0359C49.7112 53.7125 43.364 53.0491 37.7336 52.639C34.9187 52.432 32.2833 52.2898 30.3499 52.2572C29.3832 52.2409 29.3796 52.3657 30.3438 52.4172C32.2705 52.5179 34.8958 52.738 37.7012 53.019C43.312 53.5811 49.634 54.3749 52.5578 54.7088C52.9321 54.7529 53.4939 54.8005 54.0455 54.83C54.0731 54.9233 54.1123 55.0077 54.1713 55.0842C54.3305 55.2906 54.5572 55.4264 54.824 55.4943C53.7727 57.0706 53.6176 58.9172 54.5905 60.1787C54.6746 60.2877 54.7656 60.3913 54.8641 60.4855C54.6863 60.4228 54.4911 60.3663 54.3014 60.3313C54.0091 60.0242 53.6915 59.7034 53.6752 59.7159C53.6613 59.7267 53.7975 59.9656 53.964 60.2439C53.8165 60.206 53.6553 60.2416 53.4872 60.3305C53.4605 60.3438 53.4355 60.3594 53.4105 60.3749C53.311 60.337 53.2015 60.2957 53.0943 60.2526C52.9772 60.2062 52.8612 60.1661 52.7766 60.1427C52.6919 60.1192 52.6339 60.1159 52.631 60.1218C52.6271 60.1359 52.8056 60.2571 52.9999 60.4179C53.0526 60.4623 53.1118 60.5054 53.1691 60.5463C52.9408 60.7297 52.7087 60.9753 52.4993 61.2218C52.4483 61.2612 52.3834 61.3112 52.2979 61.3587C52.1921 61.4181 52.0576 61.4738 51.9251 61.513C51.6602 61.5916 51.4046 61.6149 51.4048 61.6295C51.405 61.6442 51.6518 61.7053 51.9552 61.7006C52.0073 61.7011 52.0623 61.6957 52.1155 61.688C51.9541 61.8863 51.8194 62.0568 51.7211 62.1548C51.7165 62.1584 51.7072 62.1655 51.7026 62.1691C51.6562 62.2049 51.6075 62.2424 51.5541 62.2836C51.4253 62.3755 51.2637 62.4632 51.1034 62.5239C50.78 62.6513 50.4597 62.6579 50.4594 62.6766C50.4555 62.6908 50.7652 62.7663 51.1358 62.7097C51.0586 62.8063 51.0094 62.8959 51.0168 62.9679C51.0222 63.0229 51.0387 63.073 51.0663 63.1184C50.4109 63.4721 49.9387 64.121 49.2224 64.4294C48.5765 64.7092 47.7388 64.8745 47.2156 65.3853C47.1173 65.4833 47.1619 65.5746 47.3019 65.5739C47.5361 65.5708 47.6997 65.5815 47.8347 65.7325C47.928 65.8344 48.036 65.8546 48.1272 65.7473C48.6387 65.1495 49.1062 64.9405 49.9333 64.6799C50.3253 64.5552 50.655 64.3785 50.976 64.1569C51.0857 64.0834 51.1941 64.0034 51.3054 63.9176C51.3773 63.8622 51.7702 63.5037 51.9773 63.307C51.9773 63.307 51.9819 63.3035 51.9843 63.3017C52.0477 63.6189 52.1204 63.9289 52.1414 63.9275C52.1666 63.9266 52.2013 63.4967 52.221 63.1339C52.4047 62.9885 52.6159 62.7924 52.8308 62.5675C52.8659 62.6994 52.9123 62.8411 52.9639 62.9752C53.0744 63.2671 53.221 63.4907 53.2343 63.4841C53.25 63.4756 53.1804 63.2224 53.1472 62.9299C53.1196 62.7071 53.1035 62.4608 53.0906 62.2858C53.3468 61.9994 53.5916 61.6886 53.7833 61.4002C53.8675 61.4758 53.9628 61.5466 54.0645 61.6161C54.068 61.7022 54.0709 61.7923 54.068 61.8797C54.0643 62.2153 54.0613 62.5135 54.0777 62.5156C54.0941 62.5178 54.1788 62.2343 54.2551 61.9017C54.2656 61.853 54.2761 61.8042 54.2866 61.7555C54.4967 61.8745 54.7236 61.9769 54.9385 62.0589C54.8853 62.2441 54.8279 62.4622 54.788 62.6742C54.7133 63.0425 54.7153 63.3664 54.7317 63.3685C54.7481 63.3706 54.8277 63.0614 54.9709 62.7292C55.0503 62.5348 55.1454 62.332 55.2239 62.1605C55.3804 62.21 55.5243 62.2432 55.6388 62.2622C55.7053 63.3314 56.2879 64.6239 57.2545 66.1603C57.1077 66.181 56.953 66.2153 56.7925 66.2614C56.7294 66.2323 56.641 66.1896 56.5406 66.1265C56.4301 66.06 56.3083 65.9691 56.2015 65.8739C55.9835 65.6871 55.822 65.4825 55.8063 65.4909C55.7947 65.4998 55.8818 65.747 56.058 65.9994C56.144 66.1254 56.2529 66.2522 56.3627 66.3562C56.3716 66.3678 56.3834 66.3735 56.3947 66.3833C56.0307 66.5012 55.4664 66.6997 55.235 67.0039C55.208 67.0025 55.1793 66.9988 55.1546 66.9956C54.9054 66.9697 54.686 66.9058 54.6798 66.9217C54.6718 66.9353 54.8559 67.0781 55.1079 67.1796C55.1197 67.1853 55.1297 67.1886 55.1438 67.1925C55.1378 67.2231 55.1317 67.2536 55.1321 67.2829C55.1298 67.2847 55.1288 67.2929 55.1282 67.297C55.115 67.5772 55.2472 68.0891 55.3437 68.4252C55.2509 68.4967 55.072 68.6532 54.9112 68.7994C54.741 68.9528 54.6107 69.1051 54.6214 69.119C54.6321 69.1329 54.8102 69.0474 55.0158 68.9591C55.1637 68.8968 55.3215 68.8232 55.4384 68.759C55.4796 68.9084 55.5209 69.0578 55.5493 69.2097C55.5601 69.2716 55.5728 69.3505 55.5876 69.4464C55.5737 69.4571 55.5657 69.4707 55.56 69.4825C55.4759 69.6324 55.3676 69.9859 55.2972 70.2879C55.2246 70.5917 55.1472 70.851 55.1608 70.8591C55.1762 70.8694 55.3312 70.6389 55.4762 70.357C55.5378 70.2355 55.6041 70.1104 55.6652 69.993C55.7128 70.352 55.7678 70.783 55.8163 71.2152C55.7858 71.3386 55.7559 71.4726 55.7248 71.6001C55.6554 71.8792 55.5725 72.117 55.5837 72.1268C55.5973 72.1348 55.739 71.959 55.8741 71.7217C55.907 72.0328 55.9373 72.3312 55.9601 72.5909C55.8867 72.7067 55.7798 72.9038 55.6631 73.0641C55.5297 73.2557 55.3681 73.3914 55.3748 73.4048C55.3809 73.4223 55.5961 73.3561 55.7979 73.2005C55.8651 73.1487 55.9347 73.095 55.9925 73.0357C56.0005 73.1515 56.0047 73.2481 56.0033 73.3231C56.0061 73.7056 56.0345 74.1164 56.118 74.407C55.9282 75.2782 55.67 76.9861 55.5213 77.4263C55.1336 78.5684 54.5305 79.6326 53.6 80.4352C53.494 80.528 53.5801 80.5726 53.7199 80.5572C53.8685 80.5388 53.9256 80.517 54.045 80.4656C54.1731 80.4111 54.2045 80.7012 54.2275 80.7982C54.258 80.9336 54.381 80.9349 54.4509 80.8145C55.0136 79.885 55.6568 78.8824 56.0126 77.8572C56.2021 77.3117 56.74 75.3141 56.9118 74.4531C57.0754 74.2529 57.1155 74.0076 57.1027 73.7512C57.1162 73.7592 57.1293 73.7713 57.1429 73.7793C57.3427 73.9137 57.5391 73.9767 57.5472 73.9631C57.5575 73.9477 57.4075 73.8156 57.2739 73.6376C57.1917 73.5309 57.111 73.4119 57.0528 73.3125C57.0273 73.1547 56.9935 72.9959 56.9757 72.8432C56.9535 72.6754 56.9203 72.383 56.8822 72.0315C57.1157 72.1472 57.3353 72.1443 57.3351 72.1297C57.3396 72.1114 57.1457 72.0279 56.9884 71.8719C56.9344 71.8211 56.8856 71.7626 56.8409 71.7046C56.8077 71.4122 56.7689 71.0981 56.7278 70.7859C56.8939 70.9389 57.0521 71.0721 57.066 71.0614C57.0915 71.0417 56.8059 70.4891 56.6558 70.2609C56.5744 69.695 56.4868 69.193 56.4021 68.944C56.4003 68.9417 56.3985 68.9394 56.3972 68.933C56.4623 68.9789 56.525 69.0267 56.5877 69.0745C56.725 69.1757 56.8587 69.2724 56.9637 69.3319C57.0688 69.3914 57.1406 69.4174 57.1434 69.4115C57.1486 69.4038 57.0923 69.3547 57.0115 69.2691C56.9325 69.1858 56.8289 69.066 56.7183 68.9369C56.6076 68.8077 56.4815 68.6682 56.35 68.5552C56.3162 68.5258 56.2842 68.4987 56.2499 68.4734C56.2063 68.3258 56.161 68.1758 56.1174 68.0282C56.3876 68.0861 56.6949 68.1154 57.0067 68.1264C57.0201 68.2492 57.0465 68.3842 57.0768 68.505L57.1482 68.8087C57.1651 68.8881 57.1729 68.9413 57.1811 68.9424C57.1893 68.9434 57.2126 68.8921 57.2273 68.8105C57.2444 68.7271 57.2551 68.6116 57.2664 68.492C57.2741 68.3677 57.2865 68.2398 57.3003 68.133C57.4672 68.1337 57.6347 68.1303 57.7986 68.1222C57.8191 68.2543 57.8462 68.3998 57.875 68.533C57.9317 68.7888 57.9477 69.0205 57.9618 69.0244C57.98 69.0289 58.0495 68.7977 58.0664 68.5222C58.0767 68.3774 58.0853 68.2303 58.0912 68.1037C58.2474 68.0904 58.3954 68.0762 58.5357 68.0567C58.9893 68.6832 59.4843 69.3443 60.0208 70.04C60.2015 70.2742 60.3839 70.5108 60.5681 70.7496C60.2739 70.7805 59.9967 70.8575 59.7079 70.9914C59.6127 70.9686 59.514 70.9412 59.4198 70.9103C59.0781 70.8077 58.7848 70.6863 58.7763 70.704C58.7682 70.7175 59.0209 70.911 59.3449 71.0864C59.3761 71.103 59.4056 71.1173 59.4369 71.1338C59.3851 71.1626 59.3375 71.192 59.2852 71.2249C59.1441 71.3152 58.8622 71.4772 58.6071 71.6739C58.4568 71.6899 58.2849 71.7116 58.1206 71.7384C57.8014 71.7848 57.5385 71.8803 57.5429 71.8955C57.5472 71.9107 57.82 71.9 58.1273 71.9293C58.183 71.9344 58.2428 71.94 58.3026 71.9456C58.0821 72.1823 57.9649 72.4428 58.138 72.6865C58.1434 72.6934 58.1488 72.7004 58.1541 72.7073C58.0808 72.9192 57.9376 73.3329 57.832 73.7139C57.7767 73.9155 57.7371 74.1088 57.7145 74.252C57.6941 74.3934 57.6924 74.4872 57.6989 74.4859C57.7089 74.4893 57.7387 74.4034 57.7914 74.2703C57.8459 74.1395 57.9209 73.9634 58.0092 73.7806C58.1284 73.5371 58.263 73.2705 58.3633 73.0601C58.4561 73.2141 58.5962 73.3908 58.7549 73.5679C58.7629 73.6838 58.7842 73.8264 58.819 73.9771C58.8675 74.1838 58.9366 74.4078 59.0015 74.6166C59.0664 74.8255 59.1188 75.018 59.15 75.1641C59.1836 75.3083 59.1943 75.4036 59.2025 75.4047C59.2107 75.4057 59.2293 75.31 59.2302 75.1577C59.2352 75.0059 59.2183 74.7971 59.1879 74.5802C59.1605 74.372 59.1283 74.1528 59.1093 73.9603C59.2377 74.098 59.3571 74.2241 59.4445 74.3231C59.557 74.4545 59.6873 74.6092 59.8238 74.7813C59.8573 75.007 59.9252 75.354 60.0125 75.6638C60.1142 76.0403 60.2367 76.3526 60.2519 76.3483C60.2694 76.3422 60.2286 76.0112 60.2007 75.6297C60.1907 75.4969 60.1818 75.3558 60.1759 75.2235C60.3565 75.4577 60.5479 75.7059 60.7417 75.9668C60.7048 76.1395 60.6308 76.5183 60.5498 76.8545C60.4706 77.1929 60.4008 77.4908 60.4167 77.4971C60.4326 77.5033 60.5778 77.236 60.7293 76.9194C60.8267 76.7149 60.9227 76.4892 60.9887 76.3015C61.2375 76.6385 61.4893 76.9842 61.7281 77.3178C61.694 77.4846 61.6503 77.6773 61.6041 77.8572C61.5146 78.211 61.4367 78.5225 61.4526 78.5287C61.4685 78.5349 61.6217 78.2541 61.7836 77.9221C61.8367 77.8183 61.8844 77.7076 61.9298 77.5986C62.103 77.8423 62.2648 78.0762 62.416 78.2961C62.3777 78.3664 62.3355 78.4507 62.2986 78.542C62.227 78.7081 62.1605 78.9 62.1056 79.0829C61.9962 79.4446 61.9119 79.7573 61.9237 79.763C61.9414 79.7716 62.1039 79.4835 62.2799 79.1555C62.3679 78.9915 62.4652 78.8203 62.557 78.6756C62.5776 78.6448 62.5942 78.6136 62.6144 78.5869C62.8791 78.9782 63.0825 79.2947 63.187 79.4877C63.1924 79.4947 63.1977 79.5017 63.199 79.5081C63.1967 79.5099 63.1956 79.5181 63.1951 79.5222C63.1377 79.7403 63.0368 80.2137 62.9023 80.6244C62.7743 81.0338 62.6031 81.3729 62.6162 81.385C62.6315 81.3953 62.8747 81.0969 63.0785 80.6993C63.219 80.4356 63.3415 80.1341 63.4262 79.8987C63.701 80.3413 64.0045 80.7396 64.2743 80.8977C64.7504 82.1096 65.1398 84.0245 65.2414 84.6118C65.5163 86.2007 65.4849 87.8336 64.9046 89.3684C64.8384 89.5415 64.9696 89.5439 65.1216 89.434C65.2829 89.3171 65.3371 89.2531 65.4483 89.1192C65.5653 88.9736 65.7892 89.2927 65.8766 89.3917C66.0004 89.533 66.1422 89.4532 66.1514 89.2685C66.2216 87.8202 66.2353 86.3082 65.9988 84.8746C65.8738 84.113 65.319 81.3605 64.9806 80.231C65.0029 80.1065 65.0036 79.9876 64.9856 79.8684C65.0044 79.8687 65.0231 79.869 65.0419 79.8694C65.2428 79.8661 65.4215 79.8725 65.4277 79.8566C65.4322 79.8384 65.2723 79.7509 65.0768 79.6797C65.0268 79.6628 64.975 79.6436 64.925 79.6267C64.7874 79.2372 64.4786 78.88 64.1986 78.5264C64.2196 78.525 64.243 78.5217 64.2641 78.5203C64.4021 78.5026 64.5311 78.4734 64.6227 78.4434C64.7143 78.4135 64.7665 78.3806 64.7653 78.3742C64.7622 78.3654 64.7037 78.3662 64.6122 78.3627C64.5208 78.3593 64.3989 78.3498 64.268 78.3287C64.1881 78.3163 64.106 78.3057 64.0244 78.291C63.8931 78.1111 63.6781 77.8036 63.4207 77.4363C63.5068 77.4328 63.5952 77.4275 63.6812 77.424C64.0172 77.4089 64.3104 77.3863 64.3125 77.3698C64.3128 77.3511 64.0257 77.2952 63.6933 77.2335C63.5424 77.2056 63.3804 77.1826 63.232 77.1676C63.0362 76.8897 62.8206 76.5862 62.6028 76.2845C62.6151 76.2861 62.6257 76.2854 62.6403 76.2852C62.9426 76.2888 63.198 76.2508 63.1978 76.2361C63.1982 76.2174 62.9451 76.1722 62.667 76.0945C62.58 76.0728 62.4941 76.0429 62.41 76.0153C62.2113 75.7433 62.0126 75.4712 61.8236 75.2213C61.9112 75.2055 62.0012 75.1879 62.0876 75.1657C62.3876 75.0896 62.6384 75.0071 62.6382 74.9925C62.6344 74.9732 62.3668 74.9762 62.0639 74.9768C61.9134 74.9782 61.7599 74.9709 61.6233 74.9616C61.3353 74.5882 61.0782 74.2836 60.8961 74.1097C60.9369 74.1004 60.9778 74.0911 61.0187 74.0817C61.2943 74.0171 61.5514 74.0148 61.5535 73.9984C61.5556 73.982 61.3068 73.9039 61.0033 73.8939C60.8954 73.8883 60.7801 73.8922 60.6724 73.9013C60.4921 73.7297 60.3092 73.5453 60.1258 73.365C60.1606 73.3862 60.1978 73.4057 60.2331 73.4228C60.5451 73.5779 60.8396 73.6097 60.8417 73.5932C60.8479 73.5773 60.581 73.4614 60.3358 73.2585C60.215 73.1594 60.1009 73.0403 60.0197 72.9254C60.0161 72.9208 60.0143 72.9184 60.0108 72.9138C60.3426 72.8502 60.68 72.7601 60.9914 72.6605C61.2605 72.9375 61.5892 73.2534 61.6054 73.2409C61.6217 73.2284 61.4361 72.8871 61.2468 72.5745C61.4631 72.5001 61.6612 72.4213 61.8295 72.347C67.385 79.268 74.9482 87.3107 78.5867 84.5048C78.8302 84.317 79.0073 84.0288 79.1288 83.6541C79.5221 83.6318 79.8459 83.5337 80.0894 83.346C83.7279 80.5401 77.8714 71.1811 72.5896 64.0491C72.7042 63.9053 72.8267 63.7332 72.9577 63.5434C73.2119 63.8059 73.4925 64.0739 73.5111 64.0596C73.5296 64.0453 73.3053 63.6488 73.1058 63.3182C73.2813 63.0423 73.4541 62.7389 73.6 62.4341C73.6036 62.4388 73.6053 62.4411 73.6089 62.4457C73.6994 62.5535 73.7856 62.6941 73.8508 62.8361C73.9829 63.1225 74.0249 63.4119 74.0459 63.4105C74.0606 63.4103 74.1024 63.1192 74.0357 62.7786C74.0282 62.74 74.0188 62.6991 74.0072 62.6601C74.1367 62.8856 74.2686 63.1093 74.3892 63.3233C74.3531 63.4251 74.3223 63.5339 74.298 63.6414C74.2305 63.9375 74.2446 64.2003 74.2592 64.2001C74.2756 64.2022 74.345 63.9565 74.4757 63.704C74.4951 63.6668 74.5145 63.6297 74.534 63.5925C74.6558 63.8129 74.8851 64.139 75.1731 64.5123C75.1473 64.6468 75.1154 64.7972 75.0757 64.9424C74.9982 65.2352 74.9268 65.4974 74.945 65.5018C74.9591 65.5057 75.1026 65.2841 75.2524 65.0133C75.2959 64.9354 75.3376 64.8551 75.3733 64.7721C75.5647 65.0202 75.7773 65.2815 75.9922 65.541C75.9999 65.6276 76.0028 65.7178 76.0035 65.8098C76.0079 66.0985 75.985 66.3565 76.0056 66.3592C76.0197 66.3631 76.1213 66.1256 76.1947 65.8324C76.1981 65.8224 76.1997 65.8101 76.2036 65.7959C76.4418 66.0856 76.6787 66.3689 76.9001 66.6271C76.8769 66.7745 76.858 66.937 76.8465 67.09C76.8218 67.4271 76.8046 67.7214 76.8211 67.7235C76.8375 67.7257 76.9339 67.4479 77.0339 67.1267C77.0591 67.0444 77.0844 66.9621 77.112 66.8779C77.4036 67.2225 77.6446 67.5063 77.7852 67.679C77.7746 67.7611 77.7657 67.8456 77.7598 67.9242C77.7469 68.0561 77.7251 68.1765 77.7052 68.2658C77.6853 68.3551 77.6673 68.4133 77.6773 68.4167C77.6809 68.4213 77.7284 68.3774 77.7806 68.2964C77.8346 68.2178 77.8939 68.0981 77.9461 67.9691C77.9528 67.9491 77.9619 67.9273 77.9687 67.9073C78.2376 68.2657 78.5047 68.6551 78.8481 68.8895C78.8518 68.9422 78.8572 68.9972 78.8608 69.0498C78.88 69.2569 78.924 69.4338 78.9427 69.4341C78.9574 69.4339 78.9966 69.2595 79.0532 69.0642C79.0576 69.046 79.062 69.0278 79.0665 69.0096C79.1755 69.055 79.2924 69.0868 79.4185 69.0968C80.4249 69.7112 82.9461 70.9473 83.6508 71.2618C84.9755 71.8526 86.4413 72.2236 87.8617 72.5261C88.0444 72.5664 88.1559 72.4472 88.0507 72.2916C87.9772 72.1819 87.7254 71.8842 87.896 71.8081C88.0556 71.7369 88.1312 71.7007 88.2835 71.5721C88.4284 71.4531 88.4595 71.3255 88.2752 71.3456C86.6456 71.515 85.0584 71.1304 83.5892 70.4625C83.047 70.2149 81.294 69.3516 80.2428 68.5832C80.1585 68.2821 79.8504 67.8873 79.4921 67.5091C79.7413 67.487 80.0623 67.4428 80.3549 67.3762C80.7911 67.2802 81.1416 67.1208 81.1355 67.1033C81.1312 67.0882 80.758 67.1652 80.3271 67.1868C79.8976 67.2148 79.4123 67.1897 79.1867 67.1898C79.1844 67.1916 79.1762 67.1905 79.1721 67.19C79.1667 67.1831 79.1614 67.1761 79.1555 67.1733C78.9976 67.0213 78.7414 66.7418 78.4321 66.3887C78.4648 66.3783 78.4974 66.3679 78.5324 66.3557C78.6957 66.3037 78.8855 66.2573 79.067 66.2097C79.429 66.1229 79.7471 66.0366 79.7451 66.0196C79.7408 66.0045 79.4187 66.0088 79.0411 66.0226C78.8543 66.0298 78.6518 66.0454 78.4689 66.0719C78.3712 66.0843 78.2789 66.1037 78.2013 66.1229C78.0269 65.9208 77.8419 65.7048 77.6502 65.4755C77.7671 65.4592 77.8864 65.4412 78.0003 65.4163C78.3625 65.3441 78.673 65.2673 78.671 65.2503C78.6691 65.2334 78.348 65.2295 77.9831 65.2262C77.795 65.2269 77.5999 65.2184 77.4299 65.209C77.1661 64.8909 76.8976 64.5618 76.6349 64.2356C76.8314 64.2171 77.0758 64.184 77.2984 64.1418C77.6431 64.0756 77.9385 64.0031 77.9366 63.9862C77.9346 63.9692 77.6287 63.961 77.2812 63.9516C76.9355 63.9445 76.5527 63.9181 76.374 63.9117C76.1708 63.6578 75.9777 63.4074 75.7988 63.1755C75.9271 63.2171 76.0595 63.2593 76.1854 63.3027C76.5473 63.4267 76.857 63.5502 76.8674 63.5349C76.8754 63.5213 76.6004 63.3229 76.2662 63.1294C75.9887 62.9662 75.6704 62.8123 75.4607 62.7226C75.3312 62.5451 75.2124 62.3815 75.1139 62.2393C75.038 62.1314 74.9464 61.9838 74.8482 61.8229C75.0295 61.8901 75.231 61.9788 75.4277 62.0564C75.6321 62.1392 75.8298 62.2086 75.9755 62.2441C76.1231 62.282 76.2204 62.2883 76.2215 62.2801C76.2225 62.2719 76.1353 62.2355 76.0021 62.1682C75.8688 62.1009 75.6958 62.0013 75.5103 61.8855C75.3267 61.7719 75.1281 61.644 74.9382 61.5464C74.8013 61.4744 74.6688 61.4176 74.5588 61.3804C74.4255 61.1836 74.2924 61.0015 74.1671 60.8726C74.3961 60.8291 74.6882 60.7666 74.954 60.7132C75.1555 60.6725 75.3449 60.6447 75.4852 60.6253C75.6256 60.6058 75.7139 60.6005 75.7173 60.5905C75.7184 60.5823 75.6291 60.5624 75.4871 60.5462C75.3451 60.5299 75.1482 60.5191 74.9368 60.5231C74.5392 60.5302 74.105 60.5618 73.8814 60.5788C73.8761 60.5719 73.8707 60.5649 73.8653 60.558C73.6719 60.3263 73.3902 60.3734 73.107 60.5289C73.1167 60.4696 73.1265 60.4103 73.1357 60.3551C73.1878 60.0487 73.2675 59.7875 73.2516 59.7813C73.238 59.7733 73.0789 60.0033 72.9528 60.3002C72.8851 60.4522 72.8223 60.6153 72.7668 60.7543C72.5094 60.9528 72.2834 61.1825 72.1602 61.296C72.1151 61.3382 72.0764 61.3792 72.0336 61.4196C72.0255 61.3851 72.0174 61.3507 72.0111 61.3185C71.9214 60.9624 71.8009 60.6671 71.7857 60.6714C71.7688 60.6734 71.8093 60.9897 71.8217 61.3463C71.8277 61.4452 71.8291 61.5477 71.8269 61.6455C71.6222 61.8884 71.4768 62.1411 71.3745 62.416C71.1885 62.1748 71.0061 61.9383 70.8273 61.7064C70.2908 61.0107 69.7795 60.3621 69.2865 59.766C69.3387 59.637 69.3924 59.4957 69.4449 59.348C69.5689 59.3744 69.7157 59.4017 69.856 59.4303C70.125 59.4818 70.368 59.4756 70.3683 59.4568C70.3681 59.4422 70.1499 59.3701 69.9151 59.2479C69.7936 59.1863 69.6598 59.1231 69.5372 59.0697C69.5867 58.9132 69.6326 58.7521 69.6743 58.5905C69.7829 58.6066 69.9097 58.6271 70.0301 58.6489C70.1486 58.6684 70.2631 58.6874 70.3481 58.6921C70.4331 58.6968 70.4863 58.6891 70.4874 58.6809C70.4884 58.6727 70.4389 58.6517 70.3664 58.6151L70.0909 58.4689C69.9817 58.4089 69.8579 58.349 69.7425 58.3049C69.8111 58.0005 69.8586 57.6977 69.8736 57.4198C70.0053 57.4995 70.1387 57.5814 70.2704 57.6611C70.2862 57.7007 70.3043 57.7385 70.3241 57.7787C70.4 57.9346 70.5034 58.0879 70.5997 58.2319C70.6964 58.3717 70.786 58.5023 70.8465 58.5999C70.907 58.6975 70.9401 58.7644 70.9506 58.7637C70.9571 58.7624 70.9525 58.6846 70.9193 58.5697C70.8885 58.4529 70.8308 58.3014 70.766 58.1406C70.7357 58.0678 70.7078 57.9932 70.6775 57.9204C70.6793 57.9227 70.6811 57.925 70.687 57.9279C70.9062 58.0731 71.3695 58.2854 71.8961 58.5079C72.081 58.7093 72.5405 59.1278 72.566 59.1081C72.58 59.0974 72.4913 58.9106 72.3856 58.7111C72.6771 58.8302 72.9733 58.9457 73.2454 59.0539C73.2901 59.1119 73.3366 59.1722 73.3697 59.2391C73.4806 59.4309 73.5121 59.6396 73.5309 59.6399C73.545 59.6438 73.6019 59.4299 73.551 59.1769C73.879 59.3049 74.1534 59.4113 74.3124 59.4736C74.4531 59.5315 74.5987 59.6004 74.7467 59.6675C74.8257 59.7508 74.9208 59.855 75.0048 59.964C75.1408 60.1402 75.2327 60.317 75.2479 60.3127C75.2631 60.3084 75.2521 60.1024 75.1729 59.875C75.1686 59.8599 75.162 59.8465 75.1559 59.829C75.4029 59.9047 75.6481 59.9302 75.8833 59.8227C76.7597 59.8754 78.8284 59.8629 79.4042 59.8183C80.4861 59.7346 81.6216 59.3656 82.6612 59.0594C82.7937 59.0201 82.8255 58.9031 82.7022 58.8392C82.6143 58.7923 82.3417 58.6882 82.4269 58.5781C82.5052 58.4734 82.5432 58.4219 82.5982 58.287C82.6503 58.1581 82.625 58.0629 82.5107 58.14C81.5002 58.8342 80.3195 59.1494 79.1145 59.2317C78.6511 59.2637 76.9335 59.0794 76.0427 59.0416C75.7829 58.8869 75.3928 58.7551 75.0236 58.6552C74.953 58.6356 74.8589 58.6047 74.7484 58.5716C74.821 58.5267 74.89 58.4771 74.9573 58.4253C75.1613 58.2679 75.2777 58.0783 75.2623 58.068C75.2511 58.0582 75.0805 58.1823 74.8596 58.2602C74.6725 58.3342 74.4571 58.3857 74.3264 58.4273C74.081 58.3392 73.8002 58.234 73.5076 58.1232C73.7691 58.0546 73.9775 57.9605 73.9732 57.9453C73.9689 57.9301 73.7156 57.9517 73.4279 57.9479C73.2967 57.9456 73.1572 57.9422 73.0324 57.9386C72.6249 57.7794 72.2239 57.6191 71.8888 57.4818C72.0137 57.452 72.1515 57.4197 72.2888 57.3915C72.596 57.3247 72.8584 57.2333 72.8546 57.2141C72.8503 57.1989 72.5798 57.2078 72.2675 57.2008C71.9575 57.1921 71.5922 57.2076 71.4218 57.2503C71.4089 57.2528 71.3955 57.2594 71.3798 57.2678C71.2909 57.2292 71.216 57.1945 71.1606 57.1706C71.0209 57.1045 70.8869 57.0267 70.7529 56.9488C70.8447 56.8521 70.9583 56.7164 71.0539 56.591C71.1915 56.4146 71.3195 56.2641 71.3088 56.2502C71.298 56.2362 71.1194 56.3259 70.926 56.4492C70.7437 56.5676 70.5487 56.7032 70.4542 56.7724C70.1531 56.5978 69.6921 56.3357 69.4178 56.2773C69.4178 56.2773 69.4096 56.2762 69.4031 56.2775C69.3749 56.2697 69.3421 56.2654 69.3128 56.2658C69.3103 56.253 69.3118 56.2406 69.3093 56.2278C69.2753 55.9582 69.1839 55.7439 69.1688 55.7482C69.1518 55.7502 69.1596 55.9809 69.1195 56.2262C69.1158 56.255 69.1126 56.2796 69.1071 56.3061C68.7559 56.4549 68.4187 56.9479 68.2122 57.2699C68.2032 57.2583 68.2007 57.2454 68.1941 57.2321C68.1237 57.0977 68.0282 56.9643 67.9265 56.8467C67.7271 56.6122 67.5084 56.4628 67.4986 56.4741C67.4847 56.4848 67.6433 56.6953 67.7686 56.9537C67.8336 57.0811 67.8905 57.2221 67.9268 57.3458C67.9622 57.4589 67.9811 57.5553 67.9932 57.6237C67.9078 57.7672 67.8376 57.9063 67.778 58.0448C66.5378 56.7195 65.4357 55.8276 64.4185 55.4915C64.4315 55.3742 64.4337 55.2283 64.4256 55.0644C64.6115 55.032 64.8335 54.9939 65.0399 54.9642C65.3976 54.9102 65.7169 54.9118 65.719 54.8954C65.7211 54.8789 65.4084 54.7947 65.0332 54.7733C64.8181 54.7581 64.5926 54.7582 64.3999 54.7625C64.3752 54.5338 64.3338 54.2884 64.2721 54.0549C64.3219 54.0572 64.3717 54.0594 64.4215 54.0617C64.7649 54.0705 65.0565 54.0602 65.0604 54.0461C65.0648 54.0279 64.7733 53.9568 64.4477 53.8751C64.3649 53.8539 64.2784 53.8281 64.1961 53.8029C64.1547 53.6869 64.1105 53.5768 64.0587 53.4761C64.3864 53.3639 64.7492 53.2062 65.0913 53.0312C65.2572 53.0881 65.4914 53.1664 65.6999 53.2497C65.976 53.3584 66.2039 53.486 66.2137 53.4747C66.2253 53.4658 66.0445 53.265 65.7902 53.0839C65.6737 52.9999 65.5484 52.919 65.4298 52.8515C65.6978 52.7003 65.9429 52.5482 66.1325 52.4057C66.4903 52.4811 66.913 52.5545 66.9203 52.5304C66.9247 52.5122 66.6433 52.3631 66.355 52.2193C66.3573 52.2176 66.3596 52.2158 66.3619 52.214C66.603 52.0614 67.0513 51.7748 67.1232 51.7194C67.2322 51.6353 67.3394 51.5489 67.4384 51.4615C67.7325 51.2051 67.9889 50.9334 68.2092 50.586C68.6732 49.8547 68.9924 49.4532 69.7006 49.1104C69.8275 49.0496 69.8354 48.9399 69.7606 48.8238C69.6488 48.6548 69.68 48.4939 69.7426 48.2682C69.7807 48.1353 69.7042 48.0649 69.5821 48.1368C68.9551 48.513 68.5824 49.2813 68.1476 49.8348C67.6673 50.4492 66.9174 50.7428 66.411 51.2849C66.3736 51.2509 66.3316 51.2204 66.278 51.1988C66.2103 51.1734 66.1093 51.1958 65.9981 51.2483C66.1493 50.9024 66.1526 50.5855 66.138 50.5857C66.1198 50.5813 66.032 50.8894 65.8266 51.1698C65.7271 51.3093 65.5995 51.4411 65.4796 51.5446C65.428 51.5881 65.3794 51.6256 65.3312 51.6591C65.3242 51.6644 65.3173 51.6698 65.3103 51.6752C65.1929 51.7435 64.9938 51.8305 64.7586 51.9379C64.7778 51.8861 64.7965 51.8384 64.8116 51.7861C64.895 51.4962 64.8968 51.2396 64.8827 51.2357C64.8645 51.2313 64.7792 51.4708 64.6354 51.7112C64.5638 51.8293 64.4781 51.9435 64.3914 52.0325C64.3238 52.1031 64.2607 52.1555 64.2079 52.1925C63.9157 52.3364 63.6215 52.4968 63.3842 52.6686C63.3594 52.6028 63.3303 52.5364 63.3031 52.4723C63.197 52.2436 63.1269 52.0424 63.1105 52.0403C63.1041 52.0416 63.0948 52.0967 63.0937 52.1864C63.0926 52.276 63.1041 52.3965 63.1193 52.5217C63.1337 52.6363 63.1458 52.7527 63.1572 52.8585C63.1358 52.8787 63.1144 52.8989 63.0948 52.9215C62.966 53.0614 62.8884 53.2101 62.8898 53.3606C62.667 53.1293 62.4665 52.9363 62.4526 52.9471C62.4363 52.9596 62.6636 53.3502 62.8886 53.7091C62.8765 53.8997 62.8816 54.1028 62.8947 54.2924C62.8263 54.175 62.7516 54.0589 62.6675 53.9499C61.6946 52.6884 59.867 52.3708 58.0776 52.9853C58.0797 52.7099 58.006 52.4561 57.8469 52.2497C57.7896 52.1755 57.7162 52.1138 57.6329 52.0634C57.7446 51.5224 57.8391 50.9688 57.8938 50.5938C58.3139 47.6811 59.1534 41.3608 60.0353 35.7956C60.4765 33.0109 60.9308 30.4158 61.3231 28.5268C61.5183 27.5811 61.3949 27.5506 61.1668 28.492L61.1923 28.4723Z" fill="#171F39"/>
</g>
<defs>
<clipPath id="clip0_9487_2883">
<rect width="90" height="90" fill="white" transform="translate(0.884766 55.8459) rotate(-37.6385)"/>
</clipPath>
</defs>
</svg>
