<svg width="70" height="70" viewBox="0 0 70 70" fill="none" xmlns="http://www.w3.org/2000/svg">
<g clip-path="url(#clip0_9487_2575)">
<path d="M24.0648 62.4297V57.713L20.6281 53.1492V53.0837V41.5518H23.8302C26.5959 41.5518 28.8376 43.7936 28.8376 46.5592V51.0453" stroke="#55C1E1" stroke-width="2.4" stroke-miterlimit="10"/>
<path d="M45.9352 62.4297V57.713L49.3719 53.1492V32.2478C49.3719 29.3551 47.0268 27.0101 44.1341 27.0101H28.8376V47.058" stroke="#55C1E1" stroke-width="2.4" stroke-miterlimit="10"/>
<path d="M22.0215 70V62.4296H47.9785V70" stroke="#55C1E1" stroke-width="2.4" stroke-miterlimit="10"/>
<path d="M23.7179 8.25323L27.0531 11.5885L32.7102 12.3854L32.7566 12.4316L40.911 20.5861L38.6466 22.8503C36.6913 24.8058 33.5206 24.8058 31.565 22.8503L28.3929 19.6781" stroke="#55C1E1" stroke-width="2.4" stroke-miterlimit="10"/>
<path d="M35.7248 27.0098L31.2123 22.4972" stroke="#55C1E1" stroke-width="2.4" stroke-miterlimit="10"/>
<path d="M8.2532 23.718L11.5885 27.0533L12.3854 32.7103L21.2267 41.5518" stroke="#55C1E1" stroke-width="2.4" stroke-miterlimit="10"/>
<path d="M19.8097 1.45516L25.1628 6.80811L6.80827 25.1626L1.45532 19.8095" stroke="#55C1E1" stroke-width="2.4" stroke-miterlimit="10"/>
<path d="M46.2821 8.25334L42.9469 11.5886L37.2898 12.3855L37.2434 12.4317L34.9999 14.6753" stroke="#55C1E1" stroke-width="2.4" stroke-miterlimit="10"/>
<path d="M61.7468 23.718L58.4115 27.0533L57.6146 32.7103L48.7733 41.5518" stroke="#55C1E1" stroke-width="2.4" stroke-miterlimit="10"/>
<path d="M50.1903 1.45516L44.8372 6.80811L63.1917 25.1626L68.5447 19.8095" stroke="#55C1E1" stroke-width="2.4" stroke-miterlimit="10"/>
</g>
<defs>
<clipPath id="clip0_9487_2575">
<rect width="70" height="70" fill="white"/>
</clipPath>
</defs>
</svg>
