<svg width="70" height="70" viewBox="0 0 70 70" fill="none" xmlns="http://www.w3.org/2000/svg">
<g clip-path="url(#clip0_9487_2601)">
<path d="M30.2742 67.9492H10.1172C5.66221 67.9492 2.05078 64.3378 2.05078 59.8828V19.1406H38.4219V59.8015C38.4219 64.3014 34.774 67.9492 30.2742 67.9492Z" stroke="#55C1E1" stroke-width="2.4" stroke-miterlimit="10" stroke-linecap="round" stroke-linejoin="round"/>
<path d="M20.2363 54.1064C22.8793 54.1064 25.022 50.8929 25.022 46.9287C25.022 42.9646 22.8793 39.751 20.2363 39.751C17.5932 39.751 15.4506 42.9646 15.4506 46.9287C15.4506 50.8929 17.5932 54.1064 20.2363 54.1064Z" stroke="#55C1E1" stroke-width="2.4" stroke-miterlimit="10" stroke-linecap="round" stroke-linejoin="round"/>
<path d="M10.3916 39.5459C10.3916 41.509 11.9833 43.1006 13.9467 43.1006H15.8412" stroke="#55C1E1" stroke-width="2.4" stroke-miterlimit="10" stroke-linecap="round" stroke-linejoin="round"/>
<path d="M10.3916 54.3115C10.3916 52.3484 11.9833 50.7568 13.9467 50.7568H15.8412" stroke="#55C1E1" stroke-width="2.4" stroke-miterlimit="10" stroke-linecap="round" stroke-linejoin="round"/>
<path d="M30.0811 39.5459C30.0811 41.509 28.4894 43.1006 26.526 43.1006H24.6315" stroke="#55C1E1" stroke-width="2.4" stroke-miterlimit="10" stroke-linecap="round" stroke-linejoin="round"/>
<path d="M30.0811 54.3115C30.0811 52.3484 28.4894 50.7568 26.526 50.7568H24.6315" stroke="#55C1E1" stroke-width="2.4" stroke-miterlimit="10" stroke-linecap="round" stroke-linejoin="round"/>
<path d="M16.818 32.7783C16.818 32.7783 20.2364 34.9658 20.2364 39.751" stroke="#55C1E1" stroke-width="2.4" stroke-miterlimit="10" stroke-linecap="round" stroke-linejoin="round"/>
<path d="M23.6546 32.7783C23.6546 32.7783 20.2363 34.9658 20.2363 39.751" stroke="#55C1E1" stroke-width="2.4" stroke-miterlimit="10" stroke-linecap="round" stroke-linejoin="round"/>
<path d="M2.05078 19.1406L9.43441 9.57031H20.2363" stroke="#55C1E1" stroke-width="2.4" stroke-miterlimit="10" stroke-linecap="round" stroke-linejoin="round"/>
<path d="M38.4219 19.1406L31.0383 9.57031H20.2363" stroke="#55C1E1" stroke-width="2.4" stroke-miterlimit="10" stroke-linecap="round" stroke-linejoin="round"/>
<path d="M9.43442 9.57031V5.04602C9.43442 3.39172 10.7755 2.05078 12.4299 2.05078H28.0428C29.6972 2.05078 31.0383 3.39172 31.0383 5.04602V9.57031" stroke="#55C1E1" stroke-width="2.4" stroke-miterlimit="10" stroke-linecap="round" stroke-linejoin="round"/>
<path d="M51.0014 43.6133V59.8015C51.0014 64.3013 47.3536 67.9492 42.8537 67.9492H30.3516" stroke="#55C1E1" stroke-width="2.4" stroke-miterlimit="10" stroke-linecap="round" stroke-linejoin="round"/>
<path d="M50.4298 8.03928C49.634 6.39319 49.9855 4.3342 51.4772 3.05315C53.0824 1.67502 55.5149 1.73654 57.0532 3.18713C57.3266 3.44553 57.5576 3.73127 57.7465 4.03479C58.1689 4.71975 59.0687 4.9385 59.7756 4.55158C61.3467 3.69436 63.4196 3.88576 64.7555 5.25158C66.1214 6.58733 66.3128 8.65998 65.4556 10.2309C65.0687 10.9377 65.2875 11.8373 65.9724 12.2598C66.2759 12.4485 66.5617 12.6795 66.8202 12.953C68.2709 14.491 68.3325 16.9233 66.9542 18.5283C65.673 20.0199 63.6124 20.3713 61.9661 19.5756" stroke="#55C1E1" stroke-width="2.4" stroke-miterlimit="10" stroke-linecap="round" stroke-linejoin="round"/>
<path d="M51.0698 28.7109V18.9355L55.5819 14.4238" stroke="#55C1E1" stroke-width="2.4" stroke-miterlimit="10" stroke-linecap="round" stroke-linejoin="round"/>
<path d="M55.1033 28.8477H46.8993V43.6133H55.1033V28.8477Z" stroke="#55C1E1" stroke-width="2.4" stroke-miterlimit="10" stroke-linecap="round" stroke-linejoin="round"/>
</g>
<defs>
<clipPath id="clip0_9487_2601">
<rect width="70" height="70" fill="white"/>
</clipPath>
</defs>
</svg>
