<svg width="70" height="70" viewBox="0 0 70 70" fill="none" xmlns="http://www.w3.org/2000/svg">
<path d="M60.1624 59.6102C60.1624 64.2437 56.4062 68 51.7726 68H17.3898C12.7563 68 9 64.2437 9 59.6102V15.8432C9 11.2097 12.7563 7.45339 17.3898 7.45339H20.3263M40.4619 55.4153H20.0467M48.8517 44.089H20.0467M42.4195 7.45339H51.7727C56.4062 7.45339 60.1625 11.2097 60.1625 15.8432V45.6271M20.1865 7.59322C20.1865 4.50422 22.6907 2 25.7797 2C28.8687 2 31.3729 4.50422 31.3729 7.59322V27.3093C31.3729 30.3983 28.8687 32.9025 25.7797 32.9025C22.6907 32.9025 20.1865 30.3983 20.1865 27.3093V18.6398" stroke="#55C1E1" stroke-width="2.4" stroke-miterlimit="10" stroke-linecap="round" stroke-linejoin="round"/>
</svg>
