<svg width="70" height="70" viewBox="0 0 70 70" fill="none" xmlns="http://www.w3.org/2000/svg">
<path d="M44.5547 35.5977C44.5547 40.8832 40.2699 45.168 34.9844 45.168C29.6988 45.168 25.4141 40.8832 25.4141 35.5977C25.4141 30.3121 29.6988 26.0273 34.9844 26.0273C40.2699 26.0273 44.5547 30.3121 44.5547 35.5977Z" stroke="#55C1E1" stroke-width="2.4" stroke-miterlimit="10" stroke-linecap="round" stroke-linejoin="round"/>
<path d="M55.5157 53.6197C58.1503 55.1041 61.494 54.18 62.9841 51.5557C64.4743 48.9312 63.5467 45.6004 60.9121 44.1159L60.7431 44.02C58.9447 42.9986 57.9308 40.9884 58.2115 38.9393C58.3567 37.8803 58.4316 36.7991 58.4316 35.7003C58.4316 34.5425 58.3481 33.4044 58.187 32.2913C57.8897 30.2371 58.9116 28.2155 60.7166 27.1905L60.9121 27.0793C63.5467 25.595 64.4743 22.2641 62.9841 19.6397C61.494 17.0153 58.1503 16.0913 55.5157 17.5756L55.2759 17.7118C53.4501 18.7487 51.1883 18.5395 49.5491 17.2271C47.7438 15.7819 45.7221 14.5958 43.5402 13.7252C41.5988 12.9506 40.3164 11.0827 40.3164 8.99241V8.93758C40.3164 5.91719 37.8679 3.46883 34.8476 3.46883C31.8274 3.46883 29.3789 5.91719 29.3789 8.93758C29.3789 11.0374 28.0849 12.9117 26.1306 13.6799C23.924 14.5473 21.8795 15.737 20.0545 17.1907C18.416 18.4963 16.1583 18.6994 14.3365 17.6648L14.1797 17.5756C11.5452 16.0913 8.20143 17.0153 6.7112 19.6397C5.22097 22.2641 6.14874 25.595 8.78331 27.0793L8.82719 27.1044C10.6494 28.1393 11.6804 30.1816 11.377 32.2551C11.2124 33.3796 11.1269 34.53 11.1269 35.7003C11.1269 36.8212 11.2051 37.924 11.3562 39.0034C11.6433 41.0546 10.6264 43.0691 8.82542 44.0919L8.78331 44.1159C6.14874 45.6004 5.22097 48.9312 6.7112 51.5557C8.20143 54.18 11.545 55.1041 14.1796 53.6197" stroke="#55C1E1" stroke-width="2.4" stroke-miterlimit="10" stroke-linecap="round" stroke-linejoin="round"/>
<path d="M19.9453 68C19.9453 60.338 26.164 54.0547 33.835 54.0547H36.4072C44.0782 54.0547 50.2969 60.338 50.2969 68" stroke="#55C1E1" stroke-width="2.4" stroke-miterlimit="10" stroke-linecap="round" stroke-linejoin="round"/>
</svg>
